<svg xmlns="http://www.w3.org/2000/svg" fill="#9ea7b2" viewBox="0 0 40 40" class="Icon_icon__w6Pjo" preserveAspectRatio=""><path d="M7.03 27.993A1.04 1.04 0 016 26.948V15.036c0-.576.462-1.045 1.03-1.045h17.948c.568 0 1.03.47 1.03 1.045v11.912c0 .576-.462 1.045-1.03 1.045zm12.973-1.997h4.008V15.987h-4.008zm-6.003 0h4.007V15.987H14zm-6.004 0h4.008V15.987H7.996zm-4.33 14.005a3.662 3.662 0 01-3.659-3.658v-20.32c0-8.839 7.19-16.029 16.028-16.029 8.838 0 16.028 7.19 16.028 16.028v2.526h3.285V7.176l-.211-.075a3.667 3.667 0 01-2.44-3.448 3.663 3.663 0 013.659-3.659 3.663 3.663 0 013.658 3.659c0 1.545-.98 2.931-2.439 3.448l-.211.075v12.38c0 .556-.452 1.008-1.008 1.008h-4.293v15.78A3.662 3.662 0 0128.404 40zM16.035 2.01c-7.726 0-14.012 6.286-14.012 14.012v20.321c0 .906.737 1.643 1.643 1.643h24.738c.906 0 1.643-.737 1.643-1.643v-20.32c0-7.727-6.286-14.013-14.012-14.013zm20.321 0c-.906 0-1.643.737-1.643 1.643s.737 1.643 1.643 1.643 1.643-.737 1.643-1.643-.737-1.643-1.643-1.643zm-28.29 9.978c-.121 0-.241-.019-.357-.055a1.03 1.03 0 01-.607-.493.868.868 0 01-.042-.734c1.34-3.405 4.935-5.692 8.944-5.692 4.009 0 7.603 2.287 8.944 5.692.197.5-.094 1.05-.649 1.227a1.174 1.174 0 01-.356.055c-.451 0-.855-.257-1.006-.64-1.04-2.64-3.826-4.413-6.933-4.413-3.107 0-5.893 1.774-6.933 4.413-.15.383-.555.64-1.005.64zm7.938 0a1.001 1.001 0 01-1.008-.993c0-.547.452-.992 1.008-.992a1 1 0 011.007.992c0 .547-.452.993-1.007.993zM9.986 32.013a1 1 0 01-.991-1.008 1 1 0 01.99-1.008h12.036a1 1 0 01.992 1.008 1 1 0 01-.992 1.008zm0 4a1 1 0 01-.991-1.008 1 1 0 01.99-1.008h12.036a1 1 0 01.992 1.008 1 1 0 01-.992 1.008z"></path></svg>