<svg xmlns="http://www.w3.org/2000/svg" version="1.1" id="Layer_1" x="0" y="0" viewBox="0 0 24 24" xml:space="preserve"><style>.basket_3x3_st0{fill:#f79311}.basket_3x3_st1{fill:#2a2d30}</style><path class="basket_3x3_st0" d="M12 1c6.1 0 11 4.9 11 11s-4.9 11-11 11S1 18.1 1 12 5.9 1 12 1z"/><path class="basket_3x3_st1" d="M12 0C5.4 0 0 5.4 0 12s5.4 12 12 12 12-5.4 12-12S18.6 0 12 0zM4 6c1.1 1.4 1.8 3.1 2 5H2.1c.1-1.9.8-3.6 1.9-5zm1.9 7c-.2 1.9-.9 3.6-2 5-1.1-1.4-1.8-3.1-1.9-5h3.9zm5.1 8.9c-2.2-.2-4.1-1.1-5.6-2.5 1.4-1.8 2.4-4 2.6-6.5h3v9zM11 11H8c-.3-2.4-1.2-4.7-2.6-6.5C6.9 3.2 8.8 2.3 11 2.1V11zm9-5c1.1 1.4 1.8 3.1 1.9 5H18c.2-1.9.9-3.6 2-5zm-7-3.9c2.2.2 4.1 1.1 5.6 2.5-1.4 1.8-2.4 4-2.6 6.5h-3v-9zM13 13h3c.2 2.4 1.1 4.7 2.6 6.5-1.5 1.4-3.5 2.3-5.6 2.5v-9zm7 5c-1.1-1.4-1.8-3.1-2-5h3.9c-.1 1.9-.8 3.6-1.9 5z"/><path class="basket_3x3_st1" d="M1.8 5.8h20.4v12.4H1.8z"/><path d="M8.1 10.9c0 .5-.4.9-.9 1 .5.1.9.5.9 1v1.6c0 1.3-.7 2-2 2H4.4c-1.3 0-2-.7-2-2V14c0-.2.1-.3.3-.3H4c.2 0 .3.1.3.3v.6H6c.2 0 .3-.1.3-.3v-1c0-.4-.2-.6-.6-.6H4c-.2 0-.3-.1-.3-.3v-1.3s.1-.1.3-.1h1.7c.4 0 .6-.2.6-.5v-1c0-.2-.1-.3-.3-.3H4.4v.6c0 .2-.1.3-.3.3H2.8c-.2 0-.3-.1-.3-.3v-.7c0-1.2.7-1.8 2-1.8h1.6c1.3 0 2 .7 2 2v1.6zm13.4 0c0 .5-.4.9-.9 1 .5.1.9.5.9 1v1.6c0 1.3-.7 2-2 2h-1.6c-1.3 0-2-.7-2-2V14c0-.2.1-.3.3-.3h1.3c.2 0 .3.1.3.3v.6h1.6c.2 0 .3-.1.3-.3v-1c0-.4-.2-.6-.6-.6h-1.7c-.2 0-.3-.1-.3-.3v-1.3c0-.2.1-.3.3-.3h1.7c.4 0 .6-.2.6-.5v-1c0-.2-.1-.3-.3-.3h-1.6v.6c0 .2-.1.3-.3.3h-1.3c-.2 0-.3-.1-.3-.3v-.5c0-1.2.7-1.8 2-1.8h1.6c1.3 0 2 .7 2 2v1.6z" fill="#fff"/><path class="basket_3x3_st0" d="M15.2 16.2c.1.2 0 .3-.2.3h-1.4c-.2 0-.3-.1-.3-.2L12 13.9l-1.3 2.4c-.1.1-.2.2-.3.2H8.8c-.2 0-.3-.1-.2-.3l2.2-4.4-2.2-4.2c-.1-.2 0-.3.2-.3h1.4c.2 0 .3.1.3.2l1.3 2.3 1.3-2.3c.1-.1.2-.2.3-.2h1.4c.2 0 .3.1.2.3l-2 4.2 2.2 4.4z"/></svg>