<svg xmlns="http://www.w3.org/2000/svg" viewBox="0 0 24 24"><path fill-rule="evenodd" clip-rule="evenodd" fill="#FFD617" d="M1.2 21.9s-1.1-9.6 4-15c6.5-6.8 17-6 17-6s3.6 8.3-4 16-15 6-15 6l-2-1z"/><path fill-rule="evenodd" clip-rule="evenodd" fill="#2A2D30" d="M23.1.9C21.7-.6 11.5-.8 5.3 5.3-.9 11.5-.6 21.7.8 23.2s11.7 1.7 17.9-4.5S24.6 2.3 23.1.9zM6.7 6.7C10.2 3.3 15.4 2 19.1 2c.5 0 .9 0 1.2.1l-5.5 5.5-.8-.9c-.4-.4-1-.4-1.4 0-.4.4-.4 1 0 1.4l.8.9-.7.7-.8-.8c-.4-.4-1-.4-1.4 0-.4.4-.4 1 0 1.4l.8.8-.7.7-.9-.8c-.4-.4-1-.4-1.4 0-.4.4-.4 1 0 1.4l.8.8-.7.7-.8-.8c-.4-.4-1-.4-1.4 0-.4.4-.4 1 0 1.4l.8.8-5.1 5.1c-.2-3.1.5-9.5 4.8-13.7zm10.6 10.6C13.8 20.8 8.6 22 4.9 22c-.7 0-1.2 0-1.6-.1l5.2-5.2.5.6c.4.4 1 .4 1.4 0 .4-.4.4-1 0-1.4l-.6-.6.7-.7.6.6c.4.4 1 .4 1.4 0 .4-.4.4-1 0-1.4l-.5-.6.7-.7.6.6c.4.4 1 .4 1.4 0 .4-.4.4-1 0-1.4l-.6-.6.7-.7.6.6c.4.4 1 .4 1.4 0 .4-.4.4-1 0-1.4l-.6-.6 5.7-5.7c.5 2.7-.2 9.6-4.6 14z"/></svg>