<svg xmlns="http://www.w3.org/2000/svg" viewBox="0 0 20 20" class="Icon_icon__w6Pjo" preserveAspectRatio=""><path d="M4 15c0 1.1.9 2 2 2v2c0 .6.4 1 1 1s1-.4 1-1v-2h4v2c0 .6.4 1 1 1s1-.4 1-1v-2c1.1 0 2 .1 2-1V9H4v6zM2 8c-.6 0-1 .5-1 1v5c0 .6.4 1 1 1s1-.4 1-1V9c0-.5-.4-1-1-1zm12.7-6.2c.4-.4.4-1.1 0-1.5-.4-.4-1.1-.4-1.5 0l-1.1 1.1c-.7-.2-1.4-.4-2.1-.4-.7 0-1.4.2-2.1.4L6.8.3c-.4-.4-1.1-.4-1.5 0-.4.4-.4 1.1 0 1.5l.8.8C4.8 3.8 4 5.5 4 7.4V8h12v-.6c0-2-.8-3.7-2.1-4.9l.8-.7zM7.5 7C6.7 7 6 6.3 6 5.5S6.7 4 7.5 4 9 4.7 9 5.5 8.3 7 7.5 7zM14 5.5c0 .8-.7 1.5-1.5 1.5S11 6.3 11 5.5 11.7 4 12.5 4s1.5.7 1.5 1.5zM18 8c-.6 0-1 .4-1 1v5c0 .6.4 1 1 1s1-.4 1-1V9c0-.5-.4-1-1-1z"></path></svg>