<svg xmlns="http://www.w3.org/2000/svg" viewBox="0 0 20 20" class="Icon_icon__w6Pjo" preserveAspectRatio=""><path d="M17.4 14.9c-.2-.1-2.3-1-2.3-3.5 0-2 1.5-3.1 1.9-3.3v-.2C15.9 6.3 14.2 6 13.6 6h-.3c-.8 0-1.5.3-2.1.5-.4.2-.8.3-1 .3-.3 0-.6-.1-1.1-.3-.6-.2-1.2-.5-1.9-.5-1.6 0-3 .9-3.9 2.3-1.5 2.7-.6 6.8 1.1 9.3.9 1.3 1.8 2.4 2.9 2.4h.1c.6 0 1-.2 1.3-.4.4-.2.9-.4 1.6-.4.7 0 1.1.2 1.5.4.4.2.8.4 1.5.3 1.3 0 2.2-1.2 2.9-2.3.8-1.1 1.1-2.2 1.3-2.6 0 0 0-.1-.1-.1zM9.7 5h.2c1 .1 2-.5 2.7-1.4.7-1 1-2.3.9-3.4 0-.1-.1-.2-.2-.2-1 0-2.2.6-2.8 1.5-.6.7-1.1 2-.9 3.3-.1.1 0 .2.1.2z"></path></svg>