<svg xmlns="http://www.w3.org/2000/svg" viewBox="0 0 34 38" class="Icon_icon__w6Pjo" preserveAspectRatio=""><path d="M6.288 15.918a1.011 1.011 0 01-1.239-.714l-.523-1.95a1.01 1.01 0 01.715-1.238l1.953-.522a1.011 1.011 0 01.523 1.95l-.976.262.261.975a1.01 1.01 0 01-.714 1.237zm-3.523-5.33a1.01 1.01 0 00-.715 1.237l6.28 23.41c.144.54.698.86 1.238.715l13.67-3.66a.995.995 0 00.482-.29h2.212a3.03 3.03 0 01-2.17 2.242L10.09 37.9a3.033 3.033 0 01-3.714-2.142L.097 12.348a3.03 3.03 0 012.144-3.71L12 6.024V3a3 3 0 013-3h16a3 3 0 013 3v24a3 3 0 01-3 3H15a3 3 0 01-3-3V8.116zM14 3v24a1 1 0 001 1h16a1 1 0 001-1V3a1 1 0 00-1-1H15a1 1 0 00-1 1zm2 2a1 1 0 011-1h2a1 1 0 110 2h-1v1a1 1 0 11-2 0V5zm11 19h1v-1a1 1 0 012 0v2a1 1 0 01-1 1h-2a1 1 0 010-2zm-.42-9.25a.985.985 0 01-.108.322l-3.5 6.062a1 1 0 11-1.732-1l1.813-3.14c-.018 0-.035.006-.053.006a4 4 0 114-4c0 .631-.16 1.22-.42 1.75zM23 11a2 2 0 100 4 2 2 0 000-4z"></path></svg>