<svg xmlns="http://www.w3.org/2000/svg" viewBox="0 0 24 24"><path fill-rule="evenodd" clip-rule="evenodd" fill="#F79311" d="M12 1c6.1 0 11 4.9 11 11s-4.9 11-11 11S1 18.1 1 12 5.9 1 12 1z"/><path fill-rule="evenodd" clip-rule="evenodd" fill="#2A2D30" d="M12 0C5.4 0 0 5.4 0 12s5.4 12 12 12 12-5.4 12-12S18.6 0 12 0zM4 6c1.1 1.4 1.8 3.1 2 5H2.1c.1-1.9.8-3.6 1.9-5zm1.9 7c-.2 1.9-.9 3.6-2 5-1.1-1.4-1.8-3.1-1.9-5h3.9zm5.1 8.9c-2.2-.2-4.1-1.1-5.6-2.5 1.4-1.8 2.4-4 2.6-6.5h3v9zM11 11H8c-.3-2.4-1.2-4.7-2.6-6.5C6.9 3.2 8.8 2.3 11 2.1V11zm9-5c1.1 1.4 1.8 3.1 1.9 5H18c.2-1.9.9-3.6 2-5zm-7-3.9c2.2.2 4.1 1.1 5.6 2.5-1.4 1.8-2.4 4-2.6 6.5h-3v-9zM13 13h3c.2 2.4 1.1 4.7 2.6 6.5-1.5 1.4-3.5 2.3-5.6 2.5v-9zm7 5c-1.1-1.4-1.8-3.1-2-5h3.9c-.1 1.9-.8 3.6-1.9 5z"/></svg>