<svg xmlns="http://www.w3.org/2000/svg" viewBox="0 0 24 24"><path fill-rule="evenodd" clip-rule="evenodd" fill="#F9F4E1" d="M12 1c6.1 0 11 4.9 11 11s-4.9 11-11 11S1 18.1 1 12 5.9 1 12 1z"/><path fill-rule="evenodd" clip-rule="evenodd" fill="#2A2D30" d="M12 0C5.4 0 0 5.4 0 12s5.4 12 12 12 12-5.4 12-12S18.6 0 12 0zM2 12c0-2.8 1.1-5.3 3-7.1.6.5 1.1 1.1 1.5 1.8L6 7l1 1.7.4-.3c.3.8.5 1.6.6 2.5H7v2h.9c-.1.8-.3 1.5-.5 2.3l-.3-.2-.9 1.9.4.3c-.4.7-1 1.4-1.6 2-1.9-1.9-3-4.4-3-7.2zm10 10c-2 0-3.9-.6-5.4-1.6.6-.6 1.2-1.3 1.6-2.1l1 .7.9-1.9-.9-.7c.4-1.1.7-2.2.8-3.5h1v-2H9.9c-.1-1.1-.4-2.3-.8-3.4l1.2-.7-1-1.8-1.1.7c-.5-.7-1-1.4-1.6-2.1C8.1 2.6 10 2 12 2s3.9.6 5.4 1.6c-.6.6-1.2 1.3-1.6 2.1L14.7 5l-1 1.7 1.2.7c-.5 1.1-.8 2.3-.9 3.5h-1v2h1.1c.1 1.2.4 2.4.8 3.5l-.9.7.9 1.9 1-.7c.5.8 1 1.5 1.6 2.1-1.6 1-3.5 1.6-5.5 1.6zm7-2.9c-.6-.6-1.1-1.3-1.6-2l.4-.3-.9-1.8-.4.3c-.2-.7-.4-1.5-.5-2.2h1v-2h-.9c.1-.9.3-1.7.6-2.5l.4.3L18 7l-.5-.3c.4-.7.9-1.3 1.5-1.8 1.8 1.8 3 4.3 3 7.1s-1.1 5.3-3 7.1z"/></svg>