<svg xmlns="http://www.w3.org/2000/svg" viewBox="0 0 34 40" class="Icon_icon__w6Pjo" preserveAspectRatio=""><path d="M20 3a1 1 0 00-1-1H3a1 1 0 00-1 1v24a1 1 0 001 1h7v2H3a3 3 0 01-3-3V3a3 3 0 013-3h16a3 3 0 013 3v7h9a3 3 0 013 3v24a3 3 0 01-3 3H15a3 3 0 01-3-3V13a3 3 0 013-3h1V8.578A5.01 5.01 0 0113.422 6H8.578A5.01 5.01 0 016 8.578v12.844A5.01 5.01 0 018.578 24H10v2H7a3 3 0 00-3-3V7a3 3 0 003-3h8a3 3 0 003 3v3h2zM4 25a1 1 0 110 2 1 1 0 010-2zM4 3a1 1 0 110 2 1 1 0 010-2zm13 1a1 1 0 112 0 1 1 0 01-2 0zm-3 9v24a1 1 0 001 1h16a1 1 0 001-1V13a1 1 0 00-1-1H15a1 1 0 00-1 1zm2 2a1 1 0 011-1h2a1 1 0 010 2h-1v1a1 1 0 01-2 0v-2zm11 19h1v-1a1 1 0 012 0v2a1 1 0 01-1 1h-2a1 1 0 010-2zm2-10.085a3.92 3.92 0 01-.976 2.59c-.536.609-5.035 4.492-5.035 4.492s-4.18-3.715-4.667-4.146a3.923 3.923 0 01-1.32-2.936 3.913 3.913 0 013.902-3.914c.75 0 1.476.217 2.097.614A3.892 3.892 0 0125.097 20 3.913 3.913 0 0129 23.915zm-2.002 0a1.908 1.908 0 00-1.9-1.91c-.361 0-.714.102-1.02.298L23 22.992l-1.077-.689a1.89 1.89 0 00-1.02-.299c-1.047 0-1.9.858-1.9 1.912 0 .548.236 1.071.646 1.434l3.356 2.981c1.685-1.468 3.244-2.856 3.517-3.152a1.91 1.91 0 00.476-1.263z"></path></svg>