<svg xmlns="http://www.w3.org/2000/svg" viewBox="0 0 24 24"><path fill-rule="evenodd" clip-rule="evenodd" fill="#F04F2F" d="M6.1 19s-2-3.5-2-9 1.8-9 8-9c5 0 5 5 5 5s3 .3 3 4-5 9-5 9v3c0 1-.3 1-2 1h-5c-1.3 0-2-1-2-2v-2z"/><path fill-rule="evenodd" clip-rule="evenodd" fill="#2A2D30" d="M18.1 5s-.4-5-6-5-9 3.2-9 10 2 9 2 9v3c0 1.4.5 2 2 2h7c1.5 0 2-.5 2-2v-3s5-2.8 5-10c0-3.2-3-4-3-4zm-8 17h-3v-2h3v2zm4 0h-2v-2h2v2zm1-4.7l-1 .7H6.9l-.3-.4s-1.5-2-1.5-7.6c0-7.2 4-8 7-8 3.7 0 4 2.8 4 3.1l.1 1.4-1.1 1.9c-.2.3 0 .9.5 1.1.5.3 1 .2 1.2-.1l1.3-2.3c.4.3 1 .8 1 1.8 0 6-3.8 8.3-4 8.4zM12.1 4c-1.5 0-3.3.3-3.8 1.4-.2.3-.2.6-.2.6 0 .6.4 1 1 1 .3 0 .6-.2.8-.5.5-.5 1.2-.5 2.1-.5.6 0 1-.4 1-1s-.4-1-.9-1z"/></svg>