<svg xmlns="http://www.w3.org/2000/svg" viewBox="0 0 24 24"><path fill-rule="evenodd" clip-rule="evenodd" fill="#FFF" d="M18 19c-1.6-1.7-3-2.8-3-6V8.3c1-.8 1-1.7 1-2.8 0-2.5-2-4.4-4.5-4.4S7 3.1 7 5.6c0 1.1 0 2 1 2.8V14c0 1.8-.9 3.1-2 4-1 .9-2.4 3.6-2 4 .5.5.7 1.1 7 1.1h7c.6-.1 1.7-2.4 0-4.1z"/><path fill-rule="evenodd" clip-rule="evenodd" fill="#2A2D30" d="M20 20c0-1.6-4-3-4-6v-3h2V9h-2.3c.8-1 1.3-2.2 1.3-3.5 0-3-2.5-5.5-5.5-5.5S6 2.5 6 5.5C6 6.8 6.5 8 7.3 9H5v2h2v3c0 3-4 4.4-4 6 0 1.6-.4 4 2 4h13c2.4 0 2-2.4 2-4zM11.5 2C13.4 2 15 3.6 15 5.5c0 .6-.1 1.1-.4 1.6l-1 1.9H9.4l-1-1.9c-.2-.5-.4-1-.4-1.6C8 3.6 9.6 2 11.5 2zM9 14v-3h5v3c0 1.7.8 3 1.7 4H7.4c.8-1 1.6-2.3 1.6-4zm9 8H5v-1.8c.1-.1.1-.2.2-.3h12.4c.1.1.2.2.2.3v.5c.2.4.2 1 .2 1.3z"/></svg>