<svg viewBox="0 0 40 35" fill="none" xmlns="http://www.w3.org/2000/svg" class="Icon_icon__w6Pjo" preserveAspectRatio=""><path d="M39.897 9.07397L37.253 17.367L36.603 19.327L34 26V34C34 34.572 33.57 35 33 35H6.99999C6.42999 35 5.99999 34.572 5.99999 34V26L3.39599 19.327L2.74599 17.367L0.102991 9.07397C0.0029911 8.93197 0.00299072 8.78897 0.00299072 8.71397C0.00299072 8.14097 0.415991 7.72597 0.984991 7.72597C3.75999 7.72597 6.46499 8.41697 8.80799 9.72597L8.84799 9.74797L8.94599 9.84597C9.09599 9.92497 9.23999 10.135 9.28899 10.388C9.31604 10.5284 9.31385 10.6729 9.28253 10.8124C9.25122 10.952 9.19146 11.0836 9.10699 11.199L8.72899 11.771C7.99399 13.197 8.54699 14.881 10.033 15.658C10.4431 15.8762 10.9004 15.9909 11.365 15.992C12.429 15.992 13.412 15.369 13.931 14.366C14.299 13.656 14.365 12.856 14.119 12.114C13.8864 11.408 13.3843 10.8225 12.722 10.485H12.707L12.564 10.437C12.09 10.152 11.957 9.56097 12.254 9.06297C14.275 6.01697 16.679 3.37897 19.409 1.20897C19.5766 1.07324 19.7844 0.996614 20 0.990967C20.2156 0.996614 20.4233 1.07324 20.591 1.20897C23.321 3.37897 25.725 6.01697 27.746 9.06297C28.043 9.56097 27.91 10.152 27.436 10.437L27.294 10.485H27.278C26.6157 10.8225 26.1136 11.408 25.881 12.114C25.7593 12.4827 25.7132 12.8722 25.7455 13.2591C25.7778 13.6461 25.8878 14.0225 26.069 14.366C26.588 15.369 27.571 15.992 28.635 15.992C29.0996 15.9909 29.5568 15.8762 29.967 15.658C31.453 14.881 32.007 13.197 31.271 11.771L30.893 11.199C30.8086 11.0837 30.7488 10.9523 30.7175 10.813C30.6862 10.6736 30.684 10.5292 30.711 10.389C30.761 10.135 30.904 9.92497 31.054 9.84597L31.152 9.74797L31.192 9.72497C33.534 8.41697 36.24 7.72597 39.015 7.72597C39.584 7.72597 39.998 8.14097 39.998 8.71397C39.998 8.78897 39.998 8.93197 39.897 9.07397ZM7.99999 33H32V27H7.99999V29H15C15.2652 29 15.5196 29.1053 15.7071 29.2929C15.8946 29.4804 16 29.7348 16 30C16 30.2652 15.8946 30.5195 15.7071 30.7071C15.5196 30.8946 15.2652 31 15 31H7.99999V33ZM35.673 15.908L37.758 9.79497C36.288 9.90797 34.753 10.3 33.184 10.965C33.4864 11.6076 33.6408 12.3098 33.636 13.02C33.636 15.736 31.526 17.918 28.822 17.989C26.12 17.989 23.948 15.867 23.879 13.15C23.879 11.68 24.519 10.295 25.647 9.30397C24.115 7.10397 22.237 5.05797 20.059 3.21397L20 3.26897C19.98 3.25197 19.961 3.23297 19.94 3.21597C17.763 5.05897 15.885 7.10497 14.353 9.30497C15.48 10.295 16.121 11.681 16.121 13.151C16.051 15.868 13.881 17.99 11.178 17.99C8.47499 17.919 6.36399 15.737 6.36399 13.021C6.36399 12.286 6.51999 11.583 6.81599 10.966C5.24599 10.301 3.71199 9.90897 2.24199 9.79597L4.32699 15.909L7.10299 24.074L7.80499 25.001H32.195L32.897 24.074L35.673 15.908Z"></path></svg>