<svg xmlns="http://www.w3.org/2000/svg" viewBox="0 0 40 39" class="Icon_icon__w6Pjo" preserveAspectRatio=""><path d="M5 8a3 3 0 116 0 3 3 0 01-6 0zm4 0a1 1 0 10-2 0 1 1 0 002 0zm30.084 17.141L26.141 38.084a3.05 3.05 0 01-4.314 0L8.884 25.141a3.018 3.018 0 01-.761-1.316L7.948 24H3a3 3 0 01-3-3V3a3 3 0 013-3h18a3 3 0 013 3v2.093a5.076 5.076 0 00-2 .899V3a1 1 0 00-1-1H3a1 1 0 00-1 1v18a1 1 0 001 1h5.166c.145-.427.377-.832.718-1.173L21.827 7.884a3.05 3.05 0 014.314 0l12.943 12.943a3.05 3.05 0 010 4.314zm-1.377-2.863L24.721 9.292a1.02 1.02 0 00-1.443 0L10.292 22.278a1.02 1.02 0 000 1.443l12.986 12.986a1.02 1.02 0 001.443 0l12.986-12.986a1.02 1.02 0 000-1.443zM31 26a3 3 0 110-6 3 3 0 010 6zm0-4a1 1 0 100 2 1 1 0 000-2zm-7 11a3 3 0 110-6 3 3 0 010 6zm0-4a1 1 0 100 2 1 1 0 000-2zm0-10a3 3 0 110-6 3 3 0 010 6zm0-4a1 1 0 100 2 1 1 0 000-2zm-7 11a3 3 0 110-6 3 3 0 010 6zm0-4a1 1 0 100 2 1 1 0 000-2z"></path></svg>