<svg xmlns="http://www.w3.org/2000/svg" viewBox="0 0 24 24"><path fill-rule="evenodd" clip-rule="evenodd" fill="#FFF" d="M12 1c6.1 0 11 4.9 11 11s-4.9 11-11 11S1 18.1 1 12 5.9 1 12 1z"/><path fill-rule="evenodd" clip-rule="evenodd" fill="#F04F2F" d="M14 4.8l3-3 2 2 1 1 3 1-4 4-4-1-1-4z"/><path fill-rule="evenodd" clip-rule="evenodd" fill="#2A2D30" d="M23.5 8.5l-1.7 1.7c.1.6.2 1.2.2 1.8 0 5.5-4.5 10-10 10S2 17.5 2 12 6.5 2 12 2c.7 0 1.4.1 2.1.2L15.7.6C14.5.2 13.3 0 12 0 5.4 0 0 5.4 0 12s5.4 12 12 12 12-5.4 12-12c0-1.2-.2-2.4-.5-3.5zm-9.4.1l-3.1 3 1.4 1.4 3.1-3.1 3.1 1L24 5.5l-4.1-1.4L18.5 0 13 5.5l1.1 3.1zm3.8-5.2l.6 2.1 2.1.6L18 8.7l-2.1-.6-.6-2.1 2.6-2.6zM12 4c-4.4 0-8 3.6-8 8s3.6 8 8 8 8-3.6 8-8l-2 2-.2-.2C17 16.2 14.7 18 12 18c-3.3 0-6-2.7-6-6 0-2.7 1.8-5 4.2-5.7l-.1-.1L12.3 4H12z"/></svg>