<svg xmlns="http://www.w3.org/2000/svg" viewBox="0 0 839 835"><path fill="#b41c1e" d="M835 272c-1.35 14.628-21.39 15.396-23 19-1.61 3.603 4 16 4 16l-16 22c1.046 5.051 13.362 23.021 16 27 9.734 14.68 11.91 36.427 10 55-2.19 21.294-3 50-3 50-15.89 5.852-15 13-15 13h28v43c5.23 9.204 0 24 0 24l-.682 183.968c-.045 12.247 1.72 23.516 1.682 34.032-.113 30.479-2 52-2 52-45.962-24.917-88-15-88-15l1 7h7l2 7c-14.43-.489-16 5-16 5s-23.824-1.539-59-2c-40.132-.526-48-10-48-10-14.107 10.946-25.816 9.187-37 10-11.185.813-17.372 3.149-35 2-17.629-1.149-59.142-.326-75 1-15.859 1.326-32.938 12.82-42 16-9.062 3.18-15-12-15-12-10.923 7.427-25.974-.376-34-3s-15.567-2.182-19 3c-3.434 5.182-15 15-15 15-18.652-13.24-25-34-25-34-9.055-1.332-16 7-16 7-5.866-5.962-33.096-5.086-36-5-2.904.086-5.528-3.284-9-5-3.473-1.716-53.516 3.75-63 4-9.484.249-15.774-2.67-22.164-3.604-5.358-.782-11.178.961-20.836 1.604-9.45.629-8.865-2.9-15-3-6.135-.1-7.793 2.359-17 3-15.604.641-44.664-3.732-54-1-32.516 6.337-75.142-1.187-76-10-.461-4.733 3.789-21.15 5-37 1.044-13.666-.845-26.796-2-33-2.495-13.4-1.626-57.8-2-69-.374-11.2 16-27 16-27s10.239-76.665 4-83c-6.24-6.335-17.366-4.887-19-34-1.176-20.964-3-70-3-70 30.194-1.208 24-41 24-41s-3.145-7.767-12-19-.777-34.093 0-56c.777-21.907-8.143-47.782-14-63-2.307-5.993-1.47-14.588-2-19-.817-6.791-2.257-9.71-3-25-.68-13.996 9.384-46.14 13-80 2.9-27.166-.096-56.767-3-69-6.523-27.48 4-47 4-47 12.783 2.442 31 1 31 1 34.188-3.914 148 1 148 1 .969-1.99 21.91-1.491 25 1 3.09 2.49 4 6 4 6 3.64 3.481 76 2 76 2s24.565-11.655 34-16c9.435-4.345 12-11 12-11s1.182-.247 11 1c9.817 1.247 19.741-3.81 26-1s39 1 39 1c25.283-4.004 54 1 54 1s-6.258 8.067-7 11c-.743 7.092 34 5 34 5 .349 16.088 14.66 20.753 26 17s22-5 22-5-.868-14.989 4-22c8.143-11.65 48.343-3.359 60-4 40.036-.368 98.312 5.032 100 8 1.687 2.967 5 17 5 17 5.534-2.214 11.544-7.829 13-12 2.358-6.757 11.314-8.11 13-5 3.112 5.74 12 5 12 5 48.47.344 51.79.256 58 7 6.209 6.744 19 9 19 9s.399 5.533 2 14c1.6 8.467-1.371 14.06-3 20-1.63 5.94-3.117 14.16-1 21 9.088 28.981 5.35 168.372 4 183zM110 645c3.634 4.821 14.941 7.066 17 12 2.059 4.934 11.315 7.696 28 22 16.685 14.304 11.921 15.785 51 15 39.079-.785 41.167-12.216 52-14 10.833-1.784 27.432-4.903 38-10 10.568-5.097 30-11 30-11-.297-8.668-57.286-53.369-80-77-22.714-23.632-87-84-87-84s-43.718 98.716-50 113c-6.282 14.284-2.634 29.179 1 34zm571-469c-6.873-2.187-58-33-58-33-20.85 9.331-125 35-125 35 3.906 7.468 74.62 64.392 104 83 29.38 18.608 46.718 34.103 51 35 4.282.897 13.423-1.112 13-8-.208-25.175 4.726-41.09 11-63 6.274-21.91 4-49 4-49zm38 336c-7.77-7.185-30.186-20.498-36-26-5.815-5.502-10-7-10-7s-10.02.056-17-6-16.087-14.583-25-21-324-216-324-216-19.108-6.819-22-10c-2.892-3.181-2.117-4.702-6-7s-23.262-6.963-30-18c-4.18-6.944-4-11-4-11s-63.48-38.478-68-43c-4.52-4.522-10.844-10.338-24-8-13.156 2.338-27.604 10.567-38 14s-21 5-21 5 3.817 7.402 5 12c1.183 4.598 102.153 100.56 117 121 7.506 10.333 44.661 45.06 80 81 34.565 35.154 67.346 71.566 73 79 11.433 15.035 13.357 6.691 38 38s51 51 51 51 10.91 4.997 17 17 81 88 81 88 16.86 25.8 31 32c14.14 6.2 90.728 14.303 101 8 4.781-2.934 15.902-21.74 26.948-48.181 6.946-16.626 12.759-40.206 18.052-60.82 4.374-17.034 8.743-30.795 10-48 0 0-16.231-8.814-24-15.999z"/></svg>