<svg xmlns="http://www.w3.org/2000/svg" viewBox="0 0 40 40" class="Icon_icon__w6Pjo" preserveAspectRatio=""><path d="M24.748 39.898a.998.998 0 01-.783-.378l-3.795-4.798a1.189 1.189 0 01-.058-.082 2.672 2.672 0 00-2.035-1.233 2.678 2.678 0 00-2.221.86l-.299.326c-.268.29-.68.396-1.054.272a.994.994 0 01-.676-.85 2.979 2.979 0 00-1.347-2.237 3.008 3.008 0 00-2.599-.34l-4.314 1.536a1 1 0 01-1.07-.264.986.986 0 01-.17-1.084c.014-.032 1.482-3.207 1.986-4.54.354-.936.298-1.948-.153-2.775a2.853 2.853 0 00-1.925-1.435l-.336-.073a.989.989 0 11-.358-1.778 2.975 2.975 0 001.273-2.28 2.978 2.978 0 00-1.004-2.41L.395 13.309a.987.987 0 01-.285-1.045.997.997 0 01.846-.682l4.92-.503A3.003 3.003 0 008.088 9.74a2.975 2.975 0 00.353-2.549l-.103-.324a.989.989 0 01.29-1.044c.298-.26.723-.32 1.078-.155.84.386 1.796.371 2.622-.042a2.984 2.984 0 001.594-2.07l.673-2.847a.997.997 0 111.696-.452l2.397 2.531c.734.782 1.8 1.228 2.928 1.228h.024c1.022-.006 1.957-.387 2.56-1.044l.23-.25a1.002 1.002 0 011.054-.27.992.992 0 01.674.85 2.613 2.613 0 001.29 2.033 2.64 2.64 0 002.41.15l7.348-3.172c.399-.17.863-.068 1.15.26a.987.987 0 01.096 1.168l-4.119 6.668a2.694 2.694 0 00-.188 2.5 2.716 2.716 0 001.94 1.604.99.99 0 11.36 1.778 2.975 2.975 0 00-1.273 2.28 2.978 2.978 0 001.003 2.409l3.415 3.028a.987.987 0 01.29 1.034.996.996 0 01-.828.69c-.031.003-3.18.401-4.634.835-.92.275-2.185 1.102-2.714 2.097-.262.494-.315.973-.16 1.461l.104.323a.986.986 0 01-.291 1.043.999.999 0 01-1.077.156 2.678 2.678 0 00-2.436.09 2.648 2.648 0 00-1.363 2.01l-.746 5.297a.993.993 0 01-.987.854zm-2.982-6.365l2.32 2.933.42-2.978a4.6 4.6 0 012.37-3.484 4.676 4.676 0 012.593-.58c.025-.573.184-1.14.474-1.687.826-1.556 2.602-2.681 3.903-3.07.752-.224 1.853-.432 2.826-.592l-1.822-1.616a4.943 4.943 0 01-1.668-4.002 4.947 4.947 0 01.939-2.634 4.68 4.68 0 01-1.81-2.138 4.642 4.642 0 01.325-4.314l2.462-3.986-4.446 1.918a4.61 4.61 0 01-4.22-.263 4.598 4.598 0 01-1.781-1.886 5.72 5.72 0 01-3 .844h-.035c-1.68 0-3.275-.674-4.382-1.853L16.11 2.959l-.243 1.026a4.944 4.944 0 01-2.644 3.411 5.011 5.011 0 01-2.65.52 4.995 4.995 0 01-4.492 5.136l-2.674.272 1.728 1.532a4.943 4.943 0 011.668 4.003A4.946 4.946 0 015.93 21.4a4.794 4.794 0 011.981 1.964c.727 1.333.825 2.943.268 4.418-.24.636-.672 1.63-1.075 2.538l2.128-.757a5.01 5.01 0 014.34.557 4.965 4.965 0 011.77 2.008 4.672 4.672 0 012.909-.697 4.651 4.651 0 013.515 2.101zm3.177-6.181a.998.998 0 01-.526-.15l-4.403-2.72-4.402 2.711c-.343.21-.777.196-1.107-.039a.989.989 0 01-.387-1.032l1.226-5.164-3.978-3.656a.989.989 0 01.621-1.717l5.122-.284 1.975-5.155a.996.996 0 01.931-.638c.414 0 .785.253.932.638L22.92 15.3l5.122.284c.4.02.747.28.883.654a.987.987 0 01-.262 1.063l-3.977 3.656 1.226 5.175a.99.99 0 01-.97 1.219zm-4.928-5.028c.182 0 .365.05.526.15l2.879 1.778-.807-3.403a.99.99 0 01.294-.955l2.676-2.46-3.418-.19a.996.996 0 01-.876-.635l-1.274-3.327-1.274 3.327a.996.996 0 01-.876.636l-3.419.189 2.678 2.461a.99.99 0 01.294.956l-.807 3.395 2.88-1.773a1 1 0 01.524-.149z"></path></svg>