<svg xmlns="http://www.w3.org/2000/svg" viewBox="0 0 33 40"  class="Icon_icon__w6Pjo" preserveAspectRatio=""><path d="M24.405 39.997c-.428 0-.826-.27-.964-.693a.994.994 0 01.655-1.254c3.702-1.17 6.825-7.335 6.825-10.586 0-4.084-2.28-8.047-7.175-12.471-4.602-4.16-6.7-7.418-6.6-10.255.015-.399.073-.787.176-1.164-3.126 1.844-5.622 4.635-4.956 8.064.485 2.497 1.37 3.581 2.152 4.538.767.938 1.559 1.907 1.427 3.733-.108 1.481-.96 2.616-2.402 3.195-1.894.762-4.69.438-5.983-.69-1.15-1.004-1.769-2.226-1.831-3.517-2.18 2.14-3.732 5.761-3.732 9.166 0 2.801 1.722 5.583 5.264 8.505a.987.987 0 01.126 1.405 1.023 1.023 0 01-1.426.124c-4.03-3.324-5.99-6.606-5.99-10.034 0-5.278 2.993-10.624 6.961-12.433.4-.182.873-.089 1.17.23a.985.985 0 01.136 1.168c-1.05 1.82-.218 3.122.665 3.893.586.511 2.555.865 3.875.336.73-.293 1.094-.767 1.147-1.49.075-1.044-.279-1.477-.984-2.34-.837-1.025-1.984-2.43-2.564-5.414C9.245 6.186 14.818 1.986 19.935.16c.466-.168.987.024 1.229.45a.988.988 0 01-.252 1.267c-1.134.89-1.704 1.85-1.742 2.93-.075 2.15 1.925 5.083 5.946 8.716 5.342 4.828 7.83 9.259 7.83 13.941 0 3.888-3.534 11-8.231 12.485a1.02 1.02 0 01-.31.048zm-2.92-.824a1.02 1.02 0 01-.634-.22.987.987 0 01-.156-1.401c2.56-3.14 1.974-5.153 1.233-7.701-.316-1.089-.66-2.27-.724-3.585-1.258 1.199-1.73 2.543-2.114 3.925-.754 2.717-3.171 4.786-5.622 4.813-1.692.027-2.783-.81-3.517-1.78-.063 1.9.998 3.097 2.213 4.227a.987.987 0 01.04 1.41 1.023 1.023 0 01-1.43.04c-1.367-1.27-4.213-3.916-2.06-8.989a1.02 1.02 0 011.898.082c.864 2.667 1.86 2.996 2.833 3.015 1.528-.017 3.185-1.517 3.692-3.344.586-2.11 1.485-4.516 4.755-6.362a1.027 1.027 0 011.106.064.99.99 0 01.385 1.023c-.415 1.793.026 3.308.492 4.911.757 2.604 1.615 5.555-1.6 9.5-.2.245-.495.372-.79.372z"></path></svg>