<svg xmlns="http://www.w3.org/2000/svg" viewBox="0 0 24 24"><path fill-rule="evenodd" clip-rule="evenodd" fill="#E6C792" d="M1 17s3-1.7 3-3-2.1-3 0-6 3.2-3.9 4-4 1.8-.6 2-1 2.2-2.1 3-2c.8.1 2.2 1.6 3 2s2.7.2 3 1c.3.8.4 1.9 1 2s2.1 0 2 1c-.1 1-.6 1.7 0 2 .6.3 1 2.1 1 2 0-.1.2 2.2-2 4-2.2 1.8-3.9 3.3-5 4s-2.8.6-5 2-3 3-3 3l-7-7z"/><path fill-rule="evenodd" clip-rule="evenodd" fill="#2A2D30" d="M22.5 7.9s-.2-1.3-1.2-2.5-1.9-.9-1.9-.9.1-.8-.9-1.6S16 2 16 2 14.5.2 12.8 0c-1.7-.2-2.5 1-3.7 2.5-1.3 1.5-2.3.6-3.8 2-1.5 1.3-1.5 1.8-2.8 4.4-1.3 2.6.3 5.1.3 5.1L0 17.1l1.2 1.1L5.3 14l-.9-1.3s-.9-1.5-.2-2.9l.7-1.4c.7-1.3.8-1.6 1.7-2.3.3-.3.5-.3 1-.4.2 0 .5-.1.8-.2.7 0 1.7.1 2.6.3 1.4.5.3.3 1.2 1.9.9 1.6 2.5-.2 3.1 0 .6.2-.8 2.9-2.5 2.9-1.7-.1-2.4-.4-2.8-1.9-.4-1.7-.9-1.2-1.3.2s1.5 1.7 1.9 2.5c.4.9.6 3.2.6 3.2s.3-.5.6-1.3 1.6-1.6 1.6-1.6 0 .9.9 1.6c.9.7 1.9.3 1.9.3s.2.8.6 1.6c.2.4.8.7 1.4.9-1.2 1.1-2.3 1.9-2.8 2.2-.2.1-.6.1-.9.1-1.3.1-3.1.3-4.5 1.7-.4.4-1.8 2.1-3 3.4l.6.5h2c.5-.6 1.2-1.4 2-2.1 1.5-1.5 4-.9 5-1.6 1-.7 2.8-2.1 4.4-3.8 1.6-1.7 3.1-3.1 3.1-5.1-.1-1.9-1.6-3.5-1.6-3.5zm-9.4-2.5l-3.1-1c.2-.2.4-.3.6-.6.2-.2.3-.4.5-.6.7-.8 1.1-1.2 1.4-1.2h.1c.6.1 1.5.8 1.9 1.2l.3.3-1.7 1.9zm.9.6l1.5-2.1h.3c.3 0 1.1.2 1.5.5.1 0 .1.1.1.1l.6.6L16.2 7 14 6zm1.6 6.7c-.8-.3-1.5-1.1-1.2-1.6.3-.5.7-.5 1.9-1.9.9-1 2.1-2.5 2.7-3.3l.8.6s.1.1.1.2c.3.3.4.6.6.9-.2.5-.5 1.1-.7 1.6-.9 1.2-3.4 3.8-4.2 3.5zm4.3 1.9l-.3.3c-1.2.1-2.1-1.6-2.1-1.6s.3-.3 1.5-1.3c.7-.6 1.6-1.9 2.1-2.8l.1.1c.2.2 1 1.1 1 2 0 1-1.1 2-2.3 3.3z"/></svg>