<svg xmlns="http://www.w3.org/2000/svg" viewBox="0 0 24 24"><path fill-rule="evenodd" clip-rule="evenodd" fill="#FE8727" d="M12.1 1c6.1 0 11 4.9 11 11s-4.9 11-11 11-11-4.9-11-11S6 1 12.1 1z"/><path fill-rule="evenodd" clip-rule="evenodd" fill="#2A2D30" d="M12 0C5.4 0 0 5.4 0 12s5.4 12 12 12 12-5.4 12-12S18.6 0 12 0zm7.1 16l1.2 1.9c-1 1.5-2.5 2.8-4.2 3.5l-.9-1.4h-4.9l-1.1 1.7c-2.4-.7-4.4-2.3-5.7-4.4L4.9 15l-2.4-4h-.4c.3-2 .9-3 2-5h2.4l1.9-3.3C9.5 2.3 10.7 2 12 2c.9 0 1.7.1 2.5.3L16.6 6H20c1.2 2 1.9 4 2 6h-.4l-2.5 4zM9.5 8L7 12.5 9.5 17h4.9l2.5-4.5L14.5 8h-5z"/></svg>