<svg xmlns="http://www.w3.org/2000/svg" viewBox="0 0 24 24"><path fill-rule="evenodd" clip-rule="evenodd" fill="#FFF" d="M12 1c6.1 0 11 4.9 11 11s-4.9 11-11 11S1 18.1 1 12 5.9 1 12 1z"/><path fill-rule="evenodd" clip-rule="evenodd" fill="#2A2D30" d="M12 0C5.4 0 0 5.4 0 12s5.4 12 12 12 12-5.4 12-12S18.6 0 12 0zm7.1 15.6l1.2 2c-1 1.5-2.5 2.7-4.2 3.5l-.8-1.4h-4.9l-1.1 1.9c-2.4-.7-4.4-2.3-5.7-4.3L5 14.8l-2.5-4.3h-.4c.3-1.7.9-3.2 2-4.6h2.4l1.9-3.2C9.5 2.3 10.7 2 12 2c.9 0 1.7.1 2.5.3l2.1 3.6H20c1.2 1.5 1.9 3.4 2 5.4h-.4l-2.5 4.3zm-9.6-8L7 11.9l2.5 4.3h4.9l2.5-4.3-2.5-4.3H9.5z"/></svg>