<svg xmlns="http://www.w3.org/2000/svg" viewBox="0 0 24 24"><path fill-rule="evenodd" clip-rule="evenodd" fill="#FFD617" d="M11.9 1c6.1 0 11 4.9 11 11s-4.9 11-11 11-11-4.9-11-11 4.9-11 11-11z"/><path fill-rule="evenodd" clip-rule="evenodd" fill="#2A2D30" d="M12 0C5.4 0 0 5.4 0 12s5.4 12 12 12 12-5.4 12-12S18.6 0 12 0zm3.5 4l-1.7 3h-3.6L8.5 4l.9-1.7c.9-.2 1.7-.3 2.6-.3.9 0 1.7.1 2.5.3l1 1.7zM12 22c-.9 0-1.7-.1-2.5-.3l-1-1.7 1.7-3h3.6l1.7 3-.9 1.7c-.9.2-1.7.3-2.6.3zM8.5 12l1.7-3h3.6l1.7 3-1.7 3h-3.6l-1.7-3zM2 12c0-3.3 1.6-6.2 4-8l2.4 4L6 12l2.4 4L6 20c-2.4-1.8-4-4.7-4-8zm16 8l-2.4-4 2.4-4-2.4-4L18 4c2.4 1.8 4 4.7 4 8s-1.6 6.2-4 8z"/></svg>