<svg xmlns="http://www.w3.org/2000/svg" viewBox="0 0 512 512" class="Icon_icon__w6Pjo" preserveAspectRatio=""><circle cx="256" cy="256" r="256" fill="#258e9c"></circle><path d="M255.8 101C170.3 101 101 170.4 101 256s69.3 155 154.8 155c85.7 0 155.2-69.4 155.2-155s-69.4-155-155.2-155zm107.5 93h-45.7c-5-19.4-12.1-38-21.4-55.2 28.5 9.8 52.2 29.6 67.1 55.2zM256 132.6c12.9 18.6 22.9 39.2 29.6 61.4h-59.2c6.7-22.2 16.7-42.8 29.6-61.4zM136 287c-2.5-9.9-4-20.3-4-31s1.6-21.1 4-31h52.4c-1.2 10.2-2.2 20.5-2.2 31s.9 20.8 2.2 31H136zm12.7 31h45.7c5 19.4 12.1 38 21.4 55.2-28.5-9.8-52.2-29.5-67.1-55.2zm45.8-124h-45.7c14.9-25.7 38.6-45.4 67.1-55.2-9.3 17.2-16.5 35.8-21.4 55.2zM256 379.4c-12.9-18.6-22.9-39.2-29.6-61.4h59.2c-6.7 22.2-16.7 42.8-29.6 61.4zm36.3-92.4h-72.5c-1.4-10.2-2.5-20.5-2.5-31s1.1-20.9 2.5-31h72.5c1.4 10.1 2.5 20.5 2.5 31s-1.1 20.8-2.5 31zm3.8 86.2c9.3-17.2 16.4-35.8 21.4-55.2h45.7c-14.8 25.6-38.5 45.4-67.1 55.2zm27.5-86.2c1.2-10.2 2.2-20.5 2.2-31s-.9-20.8-2.2-31H376c2.5 9.9 4 20.3 4 31s-1.6 21.1-4 31h-52.4z" fill="#fff"></path></svg>