<svg xmlns="http://www.w3.org/2000/svg" viewBox="0 0 24 24"><path fill-rule="evenodd" clip-rule="evenodd" fill="#FFF" d="M12 1c6.1 0 11 4.9 11 11s-4.9 11-11 11S1 18.1 1 12 5.9 1 12 1z"/><path fill-rule="evenodd" clip-rule="evenodd" fill="#2A2D30" d="M20.5 3.5c-4.7-4.7-12.3-4.7-17 0-4.7 4.7-4.7 12.3 0 17s12.3 4.7 17 0 4.7-12.3 0-17zm-1.4 1.4c2.3 2.3 3.3 5.5 2.8 8.5l-.8-.8c.5-1.1.4-2.5-.6-3.4-.4-.4-.8-.6-1.3-.8.2-1 0-2-.8-2.8-.8-.8-1.8-1-2.8-.8-.1-.5-.4-.9-.8-1.3-.9-.9-2.3-1.1-3.4-.6l-.8-.8c3-.4 6.2.5 8.5 2.8zm-12.4 11l9.2-9.2c.2-.2.5-.2.7 0l.7.7c.2.2.2.5 0 .7l-1.1 1.1-7.1 7.1L8 17.4c-.2.2-.5.2-.7 0l-.7-.7c-.1-.3-.1-.6.1-.8zM6 13.8c-.2.2-.5.2-.7 0l-.7-.8c-.2-.2-.2-.5 0-.7l6.7-6.7 1.1-1.1c.2-.2.5-.2.7 0l.7.7c.2.3.2.6 0 .8L6 13.8zm4.2 4.2l7.8-7.8c.2-.2.5-.2.7 0l.7.7c.2.2.2.5 0 .7l-7.8 7.8c-.2.2-.5.2-.7 0l-.7-.7c-.2-.2-.2-.5 0-.7zM8.4 2.7l1.5 1.5-2.1 2.1-2.1-2c.8-.7 1.7-1.2 2.7-1.6zm-4.1 3l2.1 2.1-2.2 2.1-1.5-1.6c.4-.9.9-1.8 1.6-2.6zm.6 13.4c-2.3-2.3-3.2-5.5-2.8-8.5l.8.8c-.5 1.1-.3 2.5.6 3.4.4.4.8.6 1.3.8-.2 1 0 2 .8 2.8.8.8 1.8 1 2.8.8.1.5.4.9.8 1.3.9.9 2.3 1.1 3.4.6l.8.8c-3 .4-6.2-.5-8.5-2.8zm10.8 2.2l-1.5-1.5 2.1-2.1 2.1 2.1c-.9.6-1.8 1.1-2.7 1.5zm4-3l-2.1-2.1 2.1-2.1 1.5 1.5c-.3 1-.8 1.9-1.5 2.7z"/></svg>