<svg xmlns="http://www.w3.org/2000/svg" enable-background="new 0 0 24 24" viewBox="0 0 24 24"><path d="m1 4.8 2.7-2.7s8.4 7.9 12 11.1c.7.7-2.8 3.4-3 3.3l-8.8-10.1-2-.7z" fill="#f7a254"/><path d="m23.7 16.3c-.4-1.3-1.3-2.2-2.2-2.4-.7-.1-1.4 0-2 0-.8.1-1.3.2-1.8-.2-.9-.6-8.5-7.7-13.3-12.3-.4-.4-1.1-.4-1.4 0l-2.7 2.7c-.4.4-.4 1 0 1.4l.9.9c.1.1.2.2.4.3l1.7.6 8.5 9.8c0 .1.1.2.1.4.3 1.4 1 4.2 2.8 5.5.8.6 1.9.9 3 .9 1.9 0 3.9-.9 4.9-1.9 1.6-1.8 1.6-4.1 1.1-5.7zm-21.2-11.4 1.2-1.3c.3.3.8.7 1.3 1.2l-.7.7s0 0-.1 0zm3.2 2.1.8-.8c2.6 2.4 6 5.6 8.1 7.6l-1.6 1.5zm15.4 13.6c-.9.9-3.7 1.8-5.2.8-1.1-.8-1.7-3.1-2-4.2l2.2-2.2c.2.2.3.3.4.3 1.1.8 2.3.7 3.2.5.5-.1.9-.1 1.3-.1.1 0 .5.4.7 1.2.3.7.6 2.4-.6 3.7z"/><path d="m19.1 12c-1.9 0-3.5-1.6-3.5-3.5s1.6-3.5 3.5-3.5 3.5 1.6 3.5 3.5-1.5 3.5-3.5 3.5zm0-5c-.8 0-1.5.7-1.5 1.5s.7 1.5 1.5 1.5 1.5-.7 1.5-1.5-.6-1.5-1.5-1.5z"/></svg>