<svg xmlns="http://www.w3.org/2000/svg" viewBox="0 0 24 24"><path fill-rule="evenodd" clip-rule="evenodd" fill="#A9B3C0" d="M12 1c6.1 0 11 4.9 11 11s-4.9 11-11 11S1 18.1 1 12 5.9 1 12 1z"/><path fill-rule="evenodd" clip-rule="evenodd" fill="#505A66" d="M12 23C5.9 23 1 18.5 1 12.9V12c.5.5 4.4 4.5 11 4.5 6.2 0 10.1-4.3 10.8-5.3.1.5.2 1.1.2 1.6C23 18.5 18.1 23 12 23z"/><path fill-rule="evenodd" clip-rule="evenodd" fill="#2A2D30" d="M24 8.5C24 3.8 18.6 0 12 0S0 3.8 0 8.5v7C0 20.2 5.4 24 12 24s12-3.8 12-8.5v-7zm-2 7.2c-.2 3.5-4.6 6.3-10 6.3s-9.8-2.8-10-6.3v-2.5C4.1 15.5 7.8 17 12 17s7.9-1.5 10-3.8v2.5zM12 15C6.5 15 2 12.1 2 8.5S6.5 2 12 2s10 2.9 10 6.5S17.5 15 12 15z"/></svg>