<svg xmlns="http://www.w3.org/2000/svg" fill="none" viewBox="0 0 80 80"><path d="M40.19 80c19.988 0 36.191-16.203 36.191-36.19 0-19.988-16.203-36.191-36.19-36.191C20.203 7.62 4 23.822 4 43.809 4 63.798 20.203 80 40.19 80z" fill="#FF9C00"/><path d="M40.19 76.19c17.884 0 32.381-14.497 32.381-32.38 0-17.884-14.497-32.381-32.38-32.381-17.884 0-32.381 14.497-32.381 32.38 0 17.884 14.497 32.382 32.38 32.382z" fill="#01579B"/><path d="M59.238 55.238c1.747 5.556-4.127 9.61-8.73 9.61-2.518 0-5.634-.96-6.508-3.896a65.76 65.76 0 00-7.619 4.797v2.822h24.6a32.4 32.4 0 008.897-11.847c-1.628-.61-4.948-1.486-10.64-1.486zM64.12 22.04a42.069 42.069 0 00-15.337 8.354c-1.68 5.1-5.703 10.715-12.402 15.32v13.334s5.326-9.732 17.937-12.7a107.397 107.397 0 0118.25-2.64A32.202 32.202 0 0064.12 22.04z" fill="#0277BD"/><path d="M60.989 19.034a32.486 32.486 0 00-5.884-3.948c-2.12.98-4.774 2.33-7.295 3.962 1.198 1.499 1.822 3.504 1.876 5.79a45.616 45.616 0 0111.303-5.804z" fill="#0091EA"/><path d="M40.19 72.381c15.78 0 28.572-12.792 28.572-28.571 0-15.78-12.792-28.572-28.572-28.572S11.62 28.03 11.62 43.81s12.791 28.57 28.57 28.57z" fill="#0277BD"/><path d="M50.775 17.288a49.816 49.816 0 00-2.965 1.76c1.198 1.499 1.822 3.504 1.876 5.79a46.278 46.278 0 017.245-4.148 28.446 28.446 0 00-6.156-3.402z" fill="#00B0FF"/><path d="M68.762 43.81c0-7.981-3.278-15.189-8.554-20.372-5.476 2.248-9.436 5.23-11.427 6.956-1.678 5.1-5.7 10.715-12.4 15.32v13.334s5.326-9.732 17.937-12.7a108.38 108.38 0 0114.434-2.35c0-.063.01-.124.01-.189z" fill="#0091EA"/><path d="M69.663 64.762h-12.33v3.81h9.2a36.162 36.162 0 003.13-3.81zm-54.234 5.39a36.397 36.397 0 003.81 3.13V14.337a36.394 36.394 0 00-3.81 3.13v52.685z" fill="#B3831D"/><path d="M15.429 64.653a32.643 32.643 0 003.81 3.82V19.144a32.64 32.64 0 00-3.81 3.819v41.69z" fill="#01579B"/><path d="M13.524 0H36.38v68.571h38.095L64.952 80H13.524l5.714-7.619V7.619L13.524 0z" fill="#FFC107"/><path d="M40.19 64.762V11.429c-1.29 0-2.558.097-3.809.243v56.9h24.653a32.63 32.63 0 003.82-3.81H40.19z" fill="#01579B"/><path d="M40.19 42.657a32.551 32.551 0 01-3.809 3.057v13.334s1.211-2.189 3.81-4.802V42.657z" fill="#0277BD"/><path d="M36.38 68.571V0h-3.809v72.381h38.73l3.175-3.81H36.381z" fill="#FF9C00"/><path d="M59.238 55.238c1.747 5.556-4.127 9.61-8.73 9.61-2.518 0-5.634-.96-6.508-3.896a65.76 65.76 0 00-7.619 4.797v2.822h18.023a28.647 28.647 0 0011.714-12.813c-1.75-.297-4.013-.52-6.88-.52z" fill="#0091EA"/><path d="M63.712 66c.374-.392.698-.829 1.05-1.238H51.638c-.38.051-.76.086-1.13.086-.398 0-.81-.035-1.226-.086h-9.091V63.17a69.448 69.448 0 00-3.81 2.579v2.822h24.6a33.372 33.372 0 002.701-2.539l.03-.032z" fill="#0277BD"/></svg>