<svg xmlns="http://www.w3.org/2000/svg" width="20" height="14"><defs><linearGradient id="a" x1="-.02" x2="19.98" y1="7.01" y2="6.99" gradientUnits="userSpaceOnUse"><stop offset="0" stop-color="#0f65c0"/><stop offset=".01" stop-color="#0f65c0"/><stop offset="1" stop-color="#30a4f5"/></linearGradient></defs><path fill="#1181d1" d="M19.718 7.702l-6.04 6.016a.997.997 0 01-1.407 0 .99.99 0 010-1.404L17.606 7 12.27 1.685a.99.99 0 010-1.403.998.998 0 011.408 0l6.039 6.016a.99.99 0 010 1.404zm-6 0l-6.04 6.016a.997.997 0 01-1.407 0 .99.99 0 010-1.404L11.606 7 6.271 1.685a.99.99 0 010-1.403.998.998 0 011.408 0l6.039 6.016a.99.99 0 010 1.404zm-6 0l-6.04 6.016a.997.997 0 01-1.407 0 .99.99 0 010-1.404L5.606 7 .27 1.685a.99.99 0 010-1.403.998.998 0 011.408 0l6.039 6.016a.99.99 0 010 1.404z"/><path fill="url(#a)" d="M19.718 7.702l-6.04 6.016a.997.997 0 01-1.407 0 .99.99 0 010-1.404L17.606 7 12.27 1.685a.99.99 0 010-1.403.998.998 0 011.408 0l6.039 6.016a.99.99 0 010 1.404zm-6 0l-6.04 6.016a.997.997 0 01-1.407 0 .99.99 0 010-1.404L11.606 7 6.271 1.685a.99.99 0 010-1.403.998.998 0 011.408 0l6.039 6.016a.99.99 0 010 1.404zm-6 0l-6.04 6.016a.997.997 0 01-1.407 0 .99.99 0 010-1.404L5.606 7 .27 1.685a.99.99 0 010-1.403.998.998 0 011.408 0l6.039 6.016a.99.99 0 010 1.404z"/></svg>