<svg xmlns="http://www.w3.org/2000/svg" viewBox="0 0 40 41" class="Icon_icon__w6Pjo" preserveAspectRatio=""><path d="M20.375 40.902l-3.183-2.418-3.763 1.312-2.173-3.375-3.982-.068-.9-3.924-3.718-1.442.479-4-3.007-2.642 1.803-3.593-1.932-3.522 2.906-2.753-.625-3.98 3.663-1.58.758-3.955 3.974-.217 2.049-3.455 3.808 1.171 3.092-2.537 3.184 2.42 3.763-1.314 2.173 3.376 3.98.067.903 3.925 3.717 1.442-.479 4 3.006 2.642-1.802 3.593 1.932 3.522-2.906 2.753.625 3.98-3.663 1.58-.758 3.955-3.974.217-2.049 3.455-3.809-1.171zm-2.832-4.68l2.786 2.116 2.705-2.22 3.331 1.026 1.793-3.022 3.477-.19.663-3.461 3.204-1.383-.547-3.48 2.543-2.409-1.69-3.082 1.576-3.144-2.63-2.31.42-3.5-3.252-1.262-.79-3.433-3.482-.06-1.902-2.953-3.291 1.15-2.786-2.117-2.706 2.22-3.33-1.025-1.793 3.022-3.478.19-.662 3.46-3.204 1.384.547 3.48-2.544 2.409 1.69 3.082-1.575 3.144 2.63 2.31-.42 3.5 3.253 1.261.789 3.433 3.482.06 1.902 2.953zm3.39-15.13H18.56v2.526h3.494v2.022h-5.491V14.522h5.491v2.022H18.56v2.526h2.371zm-11.36 4.674H7.576V14.522h2.449l3.168 7.181v-7.307h1.997V25.64h-2.448l-3.168-7.18zm22.467-.126h-2.437l-1.932-3.62-1.93 3.62h-2.438V14.396H25.3v7.812l2.371-4.444 2.371 4.444v-7.812h1.998zm-11.67 6.823c-1.98 0-3.894-.413-5.688-1.227l.817-1.845a11.872 11.872 0 009.74 0l.818 1.845a13.684 13.684 0 01-5.687 1.227zm4.87-21.692a11.882 11.882 0 00-9.74 0l-.818-1.845a13.86 13.86 0 0111.375 0z"></path></svg>