<svg xmlns="http://www.w3.org/2000/svg" enable-background="new 0 0 24 24" viewBox="0 0 24 24"><path d="m1.7 20.4 3.5-3.5 13.1-15.1c.5-.5 1.2-.8 1.9-.8s1.4.3 2 .8c1.1 1.1 1.1 2.8 0 3.9l-15 13-3.6 3.5z" fill="#1e98e2"/><circle cx="18.3" cy="18.3" fill="#fff" r="4.8"/><path d="m.3 20.4 4.2-4.2 13-15.1c.8-.7 1.7-1.1 2.7-1.1s2 .4 2.7 1.1c1.5 1.5 1.5 3.9 0 5.3l-15.1 13.1-4.2 4.2zm3.3.5 2.1-2.1-.5-.5-2.1 2.1zm3.6-3.5 14.3-12.4c.7-.7.7-1.8 0-2.5-.4-.3-.8-.5-1.3-.5s-.9.2-1.2.5l-12.4 14.3z"/><path d="m18.3 24c-3.2 0-5.7-2.6-5.7-5.7s2.6-5.7 5.7-5.7 5.7 2.6 5.7 5.7-2.6 5.7-5.7 5.7zm-1.1-2.2c.4.1.7.2 1.1.2s.7-.1 1.1-.2c0-.6-.5-1.1-1.1-1.1s-1.1.5-1.1 1.1zm-1.8-5.9c-.6.7-.9 1.5-.9 2.4s.3 1.7.9 2.4c.5-1.2 1.6-1.9 2.9-1.9s2.4.8 2.9 1.9c.6-.7.9-1.5.9-2.4s-.3-1.7-.9-2.4c-.5 1.2-1.6 1.9-2.9 1.9s-2.4-.8-2.9-1.9zm1.8-1.2c0 .6.5 1.1 1.1 1.1s1.1-.5 1.1-1.1c-.4-.1-.7-.2-1.1-.2s-.8.1-1.1.2z"/></svg>