<svg viewBox="0 0 40 40" fill="none" xmlns="http://www.w3.org/2000/svg" class="Icon_icon__w6Pjo" preserveAspectRatio=""><rect width="40" height="40" rx="20" fill="url(#paint0_linear_1810_4448__EX6mndiK)"></rect><path fill-rule="evenodd" clip-rule="evenodd" d="M27.924 18.615L15.228 11.261C14.554 10.871 13.75 10.871 13.076 11.261C12.402 11.651 12 12.35 12 13.131V27.838C12 28.618 12.402 29.317 13.076 29.707C13.413 29.902 13.782 30 14.152 30C14.521 30 14.891 29.902 15.228 29.707L27.924 22.354C28.598 21.964 29 21.265 29 20.484C29 19.704 28.598 19.005 27.924 18.615ZM26.896 20.567L14.199 27.921C14.184 27.93 14.152 27.949 14.104 27.921C14.056 27.893 14.056 27.856 14.056 27.838V13.131C14.056 13.113 14.056 13.075 14.104 13.048C14.123 13.037 14.139 13.033 14.153 13.033C14.174 13.033 14.19 13.042 14.2 13.048L26.896 20.401C26.911 20.41 26.944 20.429 26.944 20.484C26.944 20.54 26.911 20.558 26.896 20.567Z" fill="white"></path><defs><linearGradient id="paint0_linear_1810_4448__EX6mndiK" x1="20" y1="0" x2="20" y2="40" gradientUnits="userSpaceOnUse"><stop stop-color="#FB5E01"></stop><stop offset="1" stop-color="#FB4F01"></stop></linearGradient></defs></svg>