<svg xmlns="http://www.w3.org/2000/svg" viewBox="0 0 39 40" class="Icon_icon__w6Pjo" preserveAspectRatio=""><path d="M16 5l-2.153.58a.994.994 0 00-.82 1.15l4.035 22.469c.097.54.62.9 1.17.805L24.027 29H21a3 3 0 01-3-3V3a3 3 0 013-3h15a3 3 0 013 3v23a3 3 0 01-3 3h-1.478c-.304.18-.646.31-1.018.374l-.774.134c-.33.397-.767.715-1.293.905l-.224.08a3.001 3.001 0 01-1.359 1.66l-13.138 7.532c-1.45.832-3.297.354-4.124-1.068L1.116 18.883c-.827-1.422-.32-3.249 1.13-4.08l3.382-1.939-.188-.51c-.567-1.544.249-3.255 1.822-3.823l3.792-1.367-.016-.09c-.29-1.619.81-3.162 2.458-3.448L16 3zm1.191 30.549c-1.573.567-3.309-.225-3.876-1.768L6.323 14.754l-3.078 1.765a.994.994 0 00-.377 1.36l11.476 19.734c.275.474.89.633 1.374.356l8.88-5.09zm1.392-3.592c-1.648.286-3.22-.795-3.51-2.414L11.41 9.146l-3.463 1.249a.994.994 0 00-.607 1.274l7.875 21.427a1.01 1.01 0 001.292.59l7.305-2.634zM20 3v23a1 1 0 001 1h15a1 1 0 001-1V3a1 1 0 00-1-1H21a1 1 0 00-1 1zm2 2a1 1 0 011-1h2a1 1 0 110 2h-1v1a1 1 0 01-2 0V5zm10 18h1v-1a1 1 0 112 0v2a1 1 0 01-1 1h-2a1 1 0 110-2zM29.84 9.515l3.738 4.072a1.58 1.58 0 01-.1 2.235l-4.085 3.751a1.582 1.582 0 01-2.236-.09L23.42 15.41a1.582 1.582 0 01.1-2.235l4.086-3.752a1.582 1.582 0 012.235.091zm-4.756 4.84l3.27 3.56 3.562-3.27-3.27-3.56z"></path></svg>