<svg xmlns="http://www.w3.org/2000/svg" viewBox="0 0 20 20" class="Icon_icon__w6Pjo" preserveAspectRatio=""><path d="M18 11v7c0 1.1-.9 2-2 2H4c-1.1 0-2-.9-2-2v-7c-1.1 0-2-.9-2-2V7c0-1.1.9-2 2-2h2.3C4.1 4.5 4 4 4 3.5 4 1.6 5.6 0 7.5 0c1 0 1.9.4 2.5 1.1.6-.7 1.5-1.1 2.5-1.1C14.4 0 16 1.6 16 3.5c0 .5-.1 1-.3 1.5H18c1.1 0 2 .9 2 2v2c0 1.1-.9 2-2 2zm-2 7v-7h-5v7zM4 18h5v-7H4zM7.5 2C6.7 2 6 2.7 6 3.5S6.7 5 7.5 5H9V3.5C9 2.7 8.3 2 7.5 2zm5 0c-.8 0-1.5.7-1.5 1.5V5h1.5c.8 0 1.5-.7 1.5-1.5S13.3 2 12.5 2zM18 7H2v2h16z"></path></svg>