<svg xmlns="http://www.w3.org/2000/svg" viewBox="0 0 24 24"><path fill-rule="evenodd" clip-rule="evenodd" fill="#FFF" d="M1.2 21.9s-1.1-9.6 4-15c6.5-6.8 17-6 17-6s3.6 8.3-4 16-15 6-15 6l-2-1z"/><path fill-rule="evenodd" clip-rule="evenodd" fill="#2A2D30" d="M13.2 8.2c.4.4 1 .4 1.4 0 .4-.4.4-1 0-1.4l-1.4-1.4c-.4-.4-1-.4-1.4 0-.4.4-.4 1 0 1.4l1.4 1.4zm-2.1 2.2c.4.4 1 .4 1.4 0 .4-.4.4-1 0-1.4l-1.4-1.4c-.4-.4-1-.4-1.4 0-.4.4-.4 1 0 1.4l1.4 1.4zm12-9.5C21.7-.6 11.5-.8 5.3 5.3-.9 11.5-.6 21.7.8 23.2s11.7 1.7 17.9-4.5S24.6 2.3 23.1.9zM6.7 6.7c1.9-1.9 4.3-3.1 6.8-3.9l4.4 4.4c-.4 2.3-1.3 5.1-3.4 7.2-2 2-4.7 3-7.2 3.4l-4.5-4.5c.7-2.2 1.9-4.6 3.9-6.6zM4.9 22c-1.4 0-2.3-.2-2.7-.3-.3-.9-.5-3.3 0-6l6 6c-1.1.2-2.3.3-3.3.3zm12.4-4.7c-1.9 1.9-4.3 3.1-6.7 3.8L9 19.5c2.4-.6 5-1.7 6.9-3.6 2-2 3.1-4.6 3.6-7l1.7 1.7c-.8 2.3-2 4.8-3.9 6.7zm4.4-9l-6-6c1.2-.2 2.3-.3 3.4-.3 1.5 0 2.3.2 2.7.3.3.9.4 3.3-.1 6zM8.9 12.5c.4.4 1 .4 1.4 0 .4-.4.4-1 0-1.4L8.9 9.6c-.4-.4-1-.4-1.4 0-.4.4-.4 1 0 1.4l1.4 1.5zm-.7 2.2c.4-.4.4-1 0-1.4l-1.4-1.4c-.4-.4-1-.4-1.4 0-.4.4-.4 1 0 1.4l1.4 1.4c.3.4 1 .4 1.4 0z"/></svg>