<svg viewBox="0 0 16 12" xmlns="http://www.w3.org/2000/svg" class="Icon_icon__w6Pjo" preserveAspectRatio=""><path d="M7 6V3C7 1.35 5.65 0 4 0H2H0V9V12H2V9H3.55L5.01 12H7.23L5.55 8.55C6.42 8.03 7 7.08 7 6ZM2 2H4C4.55 2 5 2.45 5 3V6C5 6.55 4.55 7 4 7H2V2Z" fill="white"></path><path d="M15.18 0.0199126C14.71 -0.0600874 14.24 0.189913 14.06 0.639913L12 6.02991L9.93 0.639913C9.76 0.189913 9.29 -0.0600874 8.82 0.0199126C8.34 0.0999126 8 0.519913 8 0.999913V11.9999H10V6.39991L11.07 9.17991C11.22 9.56991 11.59 9.81991 12 9.81991C12.41 9.81991 12.79 9.56991 12.93 9.17991L14 6.39991V11.9999H16V0.999913C16 0.519913 15.66 0.0999126 15.18 0.0199126Z" fill="white"></path></svg>