<svg xmlns="http://www.w3.org/2000/svg" width="40" height="40" fill="none"><g filter="url(#filter0_d_21765_30082)" fill-rule="evenodd" clip-rule="evenodd" fill="#C650FE"><path d="M24.46 33.03l-4.77-2.51-4.77 2.51.91-5.31-3.86-3.76 5.34-.78 2.38-4.83 2.39 4.83 5.33.78-3.86 3.76.91 5.31zm-7.45-7.44l1.34 1.31-.31 1.84 1.65-.87 1.66.87-.32-1.84 1.35-1.31-1.86-.27-.83-1.68-.83 1.68-1.85.27z"/><path d="M6.8 7.03V4.67a4.7 4.7 0 014.69-4.69h1.17v2.35h-1.17a2.34 2.34 0 00-2.34 2.34v2.36h9.37V0h2.34v7.03h9.38V4.67a2.34 2.34 0 00-2.34-2.34h-1.18V-.02h1.18a4.69 4.69 0 014.68 4.69v2.36h2.8l-3.13 9.38h-2.01v21.25h2.34V40H6.8v-2.34h2.35V16.41H7.13L4 7.03h2.8zm23.76 7.03h-.527a3.53 3.53 0 00-3.313-2.34H12.66a3.52 3.52 0 00-3.306 2.34H8.81L7.25 9.38h24.88l-1.57 4.68zm-2.66 1.18v22.42H11.49V15.24a1.17 1.17 0 011.17-1.17h14.06a1.17 1.17 0 011.18 1.17z"/></g><defs><filter id="filter0_d_21765_30082" x="-4" y="-4.02" width="47.38" height="56.02" filterUnits="userSpaceOnUse" color-interpolation-filters="sRGB"><feFlood flood-opacity="0" result="BackgroundImageFix"/><feColorMatrix in="SourceAlpha" values="0 0 0 0 0 0 0 0 0 0 0 0 0 0 0 0 0 0 127 0" result="hardAlpha"/><feOffset dy="4"/><feGaussianBlur stdDeviation="4"/><feComposite in2="hardAlpha" operator="out"/><feColorMatrix values="0 0 0 0 0.776471 0 0 0 0 0.313726 0 0 0 0 0.996078 0 0 0 0.25 0"/><feBlend in2="BackgroundImageFix" result="effect1_dropShadow_21765_30082"/><feBlend in="SourceGraphic" in2="effect1_dropShadow_21765_30082" result="shape"/></filter></defs></svg>