<svg xmlns="http://www.w3.org/2000/svg"  viewBox="0 0 40 40" class="Icon_icon__w6Pjo" preserveAspectRatio=""><path d="M20 0c11.046 0 20 8.954 20 20s-8.954 20-20 20S0 31.046 0 20 8.954 0 20 0zM2 20c0 9.941 8.059 18 18 18s18-8.059 18-18S29.941 2 20 2 2 10.059 2 20zM20 4c8.837 0 16 7.163 16 16s-7.163 16-16 16S4 28.837 4 20c0-4.565 1.912-8.684 4.979-11.599l1.033 1.79a14.015 14.015 0 00-1.607 1.96l3.477 2.008A9.992 9.992 0 0119 10.049V6.035a13.953 13.953 0 00-2.991.542l-1.025-1.775A15.985 15.985 0 0120 4zm-1 29.965V29.95a9.936 9.936 0 01-3.11-.832l-2.008 3.477A13.916 13.916 0 0019 33.965zm2 0a13.916 13.916 0 005.118-1.369L24.11 29.12a9.936 9.936 0 01-3.11.832zm6.849-2.37a14.11 14.11 0 003.746-3.746l-3.478-2.008c-.63.876-1.4 1.645-2.276 2.276zm4.747-5.477A13.916 13.916 0 0033.965 21H29.95a9.936 9.936 0 01-.832 3.11zM33.965 19a13.916 13.916 0 00-1.369-5.118L29.12 15.89a9.92 9.92 0 01.832 3.11zm-2.37-6.849a14.078 14.078 0 00-3.746-3.746l-2.008 3.478c.876.63 1.645 1.4 2.277 2.276zm-5.477-4.747A13.916 13.916 0 0021 6.035v4.014a9.936 9.936 0 013.11.832zM7.404 13.882A13.916 13.916 0 006.035 19h4.014a9.936 9.936 0 01.832-3.11zM6.035 21a13.916 13.916 0 001.369 5.118l3.477-2.008a9.935 9.935 0 01-.832-3.11zm2.37 6.849a14.11 14.11 0 003.746 3.746l2.008-3.478a10.058 10.058 0 01-2.276-2.276zM12 20a8 8 0 1016 0 8 8 0 00-16 0zm7-4a1 1 0 110-2h2a1 1 0 010 2v3h3a1 1 0 112 0v2a1 1 0 01-2 0h-3v3a1 1 0 010 2h-2a1 1 0 110-2v-3h-3a1 1 0 01-2 0v-2a1 1 0 112 0h3zM12.5 6a1.5 1.5 0 110 3 1.5 1.5 0 010-3z"></path></svg>