<svg xmlns="http://www.w3.org/2000/svg" viewBox="0 0 40 40" class="Icon_icon__w6Pjo" preserveAspectRatio=""><path d="M19.997 40c-1.328 0-2.502-.594-3.256-1.602-1.054.69-2.359.849-3.609.396-1.248-.453-2.147-1.411-2.51-2.614-1.227.288-2.508-.01-3.526-.86-1.018-.85-1.534-2.057-1.462-3.311-1.25-.147-2.354-.863-3.018-2.009-.664-1.146-.736-2.456-.237-3.61C1.253 25.825.462 24.776.23 23.473.001 22.169.383 20.914 1.248 20 .384 19.085 0 17.83.23 16.526c.231-1.303 1.021-2.352 2.148-2.917-.499-1.153-.428-2.463.237-3.61.664-1.145 1.766-1.862 3.018-2.009-.072-1.254.444-2.46 1.462-3.311 1.018-.85 2.3-1.147 3.527-.86.362-1.203 1.261-2.16 2.51-2.613 1.248-.452 2.554-.295 3.608.395C17.494.594 18.668 0 19.996 0c1.329 0 2.503.594 3.256 1.6 1.054-.689 2.362-.846 3.61-.394 1.247.453 2.146 1.41 2.509 2.613 1.227-.287 2.508.008 3.527.86 1.017.85 1.534 2.057 1.461 3.311 1.253.147 2.355.864 3.02 2.009.664 1.147.735 2.457.236 3.611 1.127.565 1.917 1.614 2.147 2.916.231 1.304-.152 2.559-1.016 3.474.865.915 1.247 2.17 1.016 3.473-.23 1.303-1.021 2.352-2.147 2.917.499 1.154.427 2.464-.237 3.61-.664 1.146-1.767 1.862-3.019 2.009.073 1.255-.444 2.46-1.461 3.311-1.018.85-2.3 1.148-3.526.86-.363 1.203-1.262 2.16-2.51 2.614-1.248.453-2.556.294-3.61-.394-.753 1.006-1.927 1.6-3.255 1.6zm-2.97-4.21a1.005 1.005 0 01.932.63l.108.272c.384.964 1.248 1.308 1.93 1.308.681 0 1.546-.344 1.93-1.307l.108-.271a1 1 0 01.758-.616.994.994 0 01.925.32l.196.22c.69.772 1.618.8 2.26.568.641-.232 1.336-.848 1.366-1.884l.009-.296a1.004 1.004 0 011.48-.85l.26.14c.914.494 1.797.2 2.319-.236s.963-1.253.636-2.236l-.093-.277a.998.998 0 01.183-.958.996.996 0 01.913-.347l.291.042c1.026.151 1.762-.423 2.102-1.012.34-.589.475-1.507-.17-2.32l-.182-.227a.997.997 0 01-.157-.963c.119-.326.399-.568.74-.638l.289-.06c1.018-.209 1.507-.998 1.626-1.667.118-.668-.07-1.577-.956-2.12l-.249-.152a1 1 0 01-.002-1.703l.25-.155c.886-.544 1.075-1.453.957-2.12-.119-.67-.608-1.459-1.626-1.668l-.286-.059a.997.997 0 01-.586-1.6l.183-.23c.644-.812.51-1.73.17-2.319-.341-.589-1.075-1.16-2.1-1.012l-.29.043a1.013 1.013 0 01-.916-.346.996.996 0 01-.184-.959l.093-.279c.327-.982-.114-1.798-.636-2.235-.522-.437-1.407-.728-2.32-.236l-.259.14a1.005 1.005 0 01-1.48-.85l-.01-.293c-.029-1.037-.724-1.655-1.364-1.886-.64-.232-1.57-.205-2.262.568l-.197.22a.997.997 0 01-.924.32 1.001 1.001 0 01-.757-.617l-.108-.271C21.543 2.343 20.678 2 19.997 2c-.682 0-1.546.343-1.93 1.306l-.109.273a1 1 0 01-.757.614.997.997 0 01-.924-.318l-.196-.219c-.692-.775-1.623-.804-2.262-.57-.64.231-1.335.849-1.365 1.884l-.009.293a1 1 0 01-.5.838 1.013 1.013 0 01-.98.013l-.259-.14c-.913-.49-1.797-.2-2.32.237-.522.437-.963 1.253-.636 2.235l.093.282c.11.329.04.691-.185.957a1.011 1.011 0 01-.915.345l-.291-.043C5.427 9.84 4.694 10.41 4.354 11c-.34.589-.476 1.507.17 2.32l.183.23a.997.997 0 01-.587 1.6l-.289.058c-1.016.21-1.505.998-1.623 1.667-.119.668.07 1.577.955 2.12l.252.156a.997.997 0 01-.003 1.703l-.25.153c-.884.542-1.073 1.451-.954 2.119.118.669.607 1.458 1.625 1.667l.29.06a.997.997 0 01.583 1.602l-.183.229c-.645.81-.51 1.728-.169 2.317.34.588 1.073 1.161 2.099 1.012l.294-.042c.345-.056.69.08.913.347a.997.997 0 01.183.957l-.093.278c-.327.983.114 1.8.636 2.236.522.438 1.407.728 2.32.236l.26-.14a1.01 1.01 0 01.978.015 1 1 0 01.501.837l.009.294c.03 1.036.725 1.652 1.365 1.884.64.233 1.57.204 2.261-.568l.196-.22c.192-.216.466-.336.75-.336z"></path><path fill="#ffba00" d="M20 9l3.296 5.971 6.703 1.286-4.666 4.977L26.18 28 20 25.104 13.82 28l.847-6.766-4.666-4.977 6.703-1.286L20 9.001m3.707 15.68l-.508-4.268 2.796-3.14-4.017-.811-1.976-3.77-1.977 3.77-4.015.811 2.795 3.14-.508 4.269 3.705-1.828z"></path></svg>