<svg xmlns="http://www.w3.org/2000/svg" width="20" height="20" viewBox="0 0 20 20" fill="none">
<g clip-path="url(#clip0_19642_20879)">
<path d="M19.1899 0.820068H0.819946V14.6001H19.1899V0.820068Z" fill="#FFF3E6"/>
<path d="M13.04 11.1501C13.7382 10.5329 14.232 9.71779 14.4558 8.81318C14.6795 7.90857 14.6226 6.95728 14.2926 6.08579C13.9627 5.21429 13.3752 4.46388 12.6085 3.93431C11.8417 3.40473 10.9319 3.12109 10 3.12109C9.06816 3.12109 8.15836 3.40473 7.39159 3.93431C6.62482 4.46388 6.0374 5.21429 5.70743 6.08579C5.37745 6.95728 5.32056 7.90857 5.54431 8.81318C5.76806 9.71779 6.26185 10.5329 6.96003 11.1501H13.04Z" fill="#FF9F17"/>
<path d="M20 0H0V15.41H5.74V19.74H7.37V18.28H8.03V19.74H9.67V18.28H10.33V19.74H11.96V18.28H12.64V19.74H14.27V15.41H20.01L20 0ZM12.85 13.74H11.96V11.96H13.46L12.85 13.74ZM9.05 8.15C9.68111 8.075 10.3189 8.075 10.95 8.15C11.0164 8.9051 11.2413 9.63771 11.61 10.3H8.38C8.74905 9.64793 8.9773 8.92573 9.05 8.18V8.15ZM6.85 9.74C6.6777 9.47884 6.5399 9.1965 6.44 8.9C6.73896 8.76116 7.04621 8.64093 7.36 8.54C7.26138 8.96671 7.08877 9.37285 6.85 9.74ZM12.64 8.55C12.9507 8.65431 13.2546 8.77788 13.55 8.92C13.4514 9.20895 13.317 9.48442 13.15 9.74C12.9106 9.38045 12.7378 8.98075 12.64 8.56V8.55ZM10.33 11.95V13.74H9.67V11.96L10.33 11.95ZM12.64 6.84C12.7404 6.4153 12.9165 6.01218 13.16 5.65C13.4706 6.11856 13.669 6.65236 13.74 7.21C13.381 7.06507 13.0136 6.94152 12.64 6.84V6.84ZM11.03 6.54C10.3451 6.47 9.65488 6.47 8.97 6.54C8.79573 5.81642 8.4759 5.13591 8.03 4.54C8.61963 4.16772 9.30268 3.97013 10 3.97013C10.6973 3.97013 11.3804 4.16772 11.97 4.54C11.5248 5.13635 11.2051 5.81669 11.03 6.54V6.54ZM6.84 5.64C7.08208 6.01019 7.25803 6.4196 7.36 6.85C6.99048 6.95039 6.62662 7.07056 6.27 7.21C6.34439 6.65164 6.53885 6.11603 6.84 5.64V5.64ZM8.03 11.96V13.74H7.11L6.53 11.93L8.03 11.96ZM7.37 16.64V15.41H8.03V16.64H7.37ZM9.67 16.64V15.41H10.33V16.64H9.67ZM11.96 16.64V15.41H12.66V16.64H11.96ZM18.37 13.74H14.58L15.18 11.93H16.31V10.33H14.74C15.2012 9.50667 15.439 8.57704 15.4297 7.6334C15.4205 6.68976 15.1646 5.76494 14.6875 4.95077C14.2103 4.1366 13.5285 3.46141 12.7097 2.99222C11.891 2.52304 10.9637 2.2762 10.02 2.2762C9.07631 2.2762 8.14904 2.52304 7.33026 2.99222C6.51147 3.46141 5.82965 4.1366 5.3525 4.95077C4.87535 5.76494 4.61947 6.68976 4.61026 7.6334C4.60105 8.57704 4.83883 9.50667 5.3 10.33H3.7V11.96H4.84L5.44 13.77H1.63V1.63H18.37V13.74Z" fill="#2A2D30"/>
</g>
<defs>
<clipPath id="clip0_19642_20879">
<rect width="20" height="20" fill="white"/>
</clipPath>
</defs>
</svg>