<svg xmlns="http://www.w3.org/2000/svg" width="20" height="20" viewBox="0 0 20 20" fill="none">
<g clip-path="url(#clip0_25824_27217)">
<path d="M16.0754 18L13.0603 15.8032H7.03015L4.01507 18H1V3.46453C1 3.07611 1.15883 2.7036 1.44155 2.42895C1.72426 2.1543 2.10771 2 2.50754 2H17.4925C17.8923 2 18.2757 2.1543 18.5585 2.42895C18.8412 2.7036 19 3.07611 19 3.46453V18H16.0754Z" fill="white"/>
<path d="M17.6927 0.999901H2.33069C1.71463 0.999901 1.12379 1.24464 0.688167 1.68027C0.252542 2.11589 0.0078125 2.70672 0.0078125 3.32278V18.7003C0.0078125 18.9056 0.089389 19.1025 0.234597 19.2478C0.379805 19.393 0.576751 19.4746 0.782106 19.4746H3.87928C4.04578 19.4748 4.20721 19.4173 4.33611 19.3119L7.20873 17.1672H12.8688L15.7337 19.3197C15.8677 19.4202 16.0308 19.4746 16.1983 19.4746H19.2955C19.5008 19.4746 19.6978 19.393 19.843 19.2478C19.9882 19.1025 20.0698 18.9056 20.0698 18.7003V3.3073C20.0678 2.99895 20.0044 2.69407 19.8834 2.41046C19.7624 2.12684 19.5861 1.87016 19.3648 1.65539C19.1436 1.44061 18.8818 1.27203 18.5947 1.1595C18.3076 1.04696 18.0009 0.9927 17.6927 0.999901ZM6.14795 15.9902L4.59937 17.1439V13.2725H6.14795V15.9902ZM6.14795 11.7626H4.59937V9.43969H6.14795V11.7626ZM9.24513 15.634H7.69654V13.3112H9.24513V15.634ZM12.3423 15.634H10.7937V13.3112H12.3423V15.634ZM15.4395 17.1826L13.8909 16.0289V13.3421H15.4395V17.1826ZM15.4395 11.8013H13.8909V9.47842H15.4395V11.8013ZM18.5366 17.9569H16.9881V4.8404C16.9881 4.63505 16.9065 4.4381 16.7613 4.29289C16.6161 4.14768 16.4191 4.06611 16.2138 4.06611H13.8909V5.6147H15.4395V7.93759H12.3423V11.8091H7.69654V7.93759H4.59937V5.6147H6.0473V4.06611H3.87928C3.67392 4.06611 3.47698 4.14768 3.33177 4.29289C3.18656 4.4381 3.10499 4.63505 3.10499 4.8404V17.9182H1.5564V3.3073C1.5564 3.10195 1.63798 2.905 1.78318 2.7598C1.92839 2.61459 2.12534 2.53301 2.33069 2.53301H17.7159C17.9213 2.53301 18.1182 2.61459 18.2634 2.7598C18.4086 2.905 18.4902 3.10195 18.4902 3.3073L18.5366 17.9569Z" fill="#2A2D30"/>
<path d="M9.26054 4.07397H7.74292V5.61482H9.26054V10.7716H10.8014V5.61482H12.3113V4.07397H10.8014H9.26054Z" fill="#F04F2F"/>
</g>
<defs>
<clipPath id="clip0_25824_27217">
<rect width="20" height="20" fill="white"/>
</clipPath>
</defs>
</svg>