<svg xmlns="http://www.w3.org/2000/svg" viewBox="0 0 24 24"><path fill-rule="evenodd" clip-rule="evenodd" fill="#FF9F17" d="M15 1c4.4 0 8 3.6 8 8s-3.6 8-8 8-8-3.6-8-8 3.6-8 8-8z"/><path fill-rule="evenodd" clip-rule="evenodd" fill="#FFF" d="M9 7c4.4 0 8 3.6 8 8s-3.6 8-8 8-8-3.6-8-8 3.6-8 8-8z"/><path fill-rule="evenodd" clip-rule="evenodd" fill="#2A2D30" d="M17.6 17.6A8.94 8.94 0 019 24c-5 0-9-4-9-9 0-4.1 2.7-7.5 6.4-8.6C7.5 2.7 10.9 0 15 0c5 0 9 4 9 9 0 4.1-2.7 7.5-6.4 8.6zM2 15c0 3.9 3.1 7 7 7s7-3.1 7-7-3.1-7-7-7-7 3.1-7 7zM15 2c-2.8 0-5.2 1.6-6.3 4h1.1c1-1.8 3-3 5.2-3 .6 0 1 .4 1 1s-.4 1-1 1c-1.3 0-2.4.6-3.1 1.5C15.5 7.7 18 11 18 15v.3c2.4-1.1 4-3.5 4-6.3 0-3.9-3.1-7-7-7zm-5 8c0 .6-.4 1-1 1-2.2 0-4 1.8-4 4 0 .6-.4 1-1 1s-1-.4-1-1c0-3.3 2.7-6 6-6 .6 0 1 .4 1 1z"/></svg>