<svg xmlns="http://www.w3.org/2000/svg" viewBox="0 0 24 24"><path fill-rule="evenodd" clip-rule="evenodd" fill="#BDE24B" d="M12 1c6.1 0 11 4.9 11 11s-4.9 11-11 11S1 18.1 1 12 5.9 1 12 1z"/><path fill-rule="evenodd" clip-rule="evenodd" fill="#2A2D30" d="M12 0C5.4 0 0 5.4 0 12s5.4 12 12 12 12-5.4 12-12S18.6 0 12 0zM2 12c0-2.8 1.1-5.3 3-7.1C6.8 6.7 8 9.2 8 12s-1.2 5.3-3 7.1c-1.9-1.8-3-4.3-3-7.1zm4.6 8.4C8.7 18.2 10 15.3 10 12c0-3.3-1.3-6.2-3.4-8.4C8.1 2.6 10 2 12 2s3.9.6 5.4 1.6C15.3 5.8 14 8.7 14 12c0 3.3 1.3 6.2 3.4 8.4-1.5 1-3.4 1.6-5.4 1.6s-3.9-.6-5.4-1.6zM19 19.1c-1.9-1.8-3-4.3-3-7.1s1.2-5.3 3-7.1c1.8 1.8 3 4.3 3 7.1s-1.1 5.3-3 7.1z"/></svg>