<svg width="16" height="16" viewBox="0 0 16 16" xmlns="http://www.w3.org/2000/svg" class="Icon_icon__w6Pjo" preserveAspectRatio=""><path fill-rule="evenodd" clip-rule="evenodd" d="M9 11.9C10.1292 11.6691 11.144 11.0554 11.8729 10.1625C12.6017 9.2697 12.9999 8.15255 13 7V0H3V7C3.00014 8.15255 3.3983 9.2697 4.12714 10.1625C4.85599 11.0554 5.87081 11.6691 7 11.9V14H5V16H11V14H9V11.9ZM5 2H11V7C11 7.79565 10.6839 8.55871 10.1213 9.12132C9.55871 9.68393 8.79565 10 8 10C7.20435 10 6.44129 9.68393 5.87868 9.12132C5.31607 8.55871 5 7.79565 5 7V2Z" fill="white"></path><path d="M14 2H16V7H14V2Z" fill="white"></path><path d="M2 2H0V7H2V2Z" fill="white"></path></svg>