<svg width="15" height="18" viewBox="0 0 15 18" xmlns="http://www.w3.org/2000/svg" class="Icon_icon__w6Pjo" preserveAspectRatio=""><path d="M13.1652 4.50042C12.1272 2.84729 10.7971 1.43628 9.63281 0.274011C9.52665 0.168037 9.39662 0.0890834 9.25362 0.0437802C9.11062 -0.00152293 8.95885 -0.0118529 8.81103 0.013658C8.66322 0.0391689 8.52368 0.0997758 8.40414 0.190389C8.28461 0.281002 8.18856 0.398975 8.12406 0.534401L5.86906 5.26987L3.64781 3.78909C3.54523 3.7207 3.43016 3.67321 3.30921 3.64935C3.18825 3.62548 3.06377 3.62571 2.9429 3.65002C2.82203 3.67433 2.70714 3.72225 2.60481 3.79102C2.50248 3.85979 2.41472 3.94807 2.34656 4.05081C0.789531 6.39823 0 8.53456 0 10.4006C2.96402e-08 12.3897 0.790176 14.2974 2.1967 15.7039C3.60322 17.1104 5.51087 17.9006 7.5 17.9006C9.48912 17.9006 11.3968 17.1104 12.8033 15.7039C14.2098 14.2974 15 12.3897 15 10.4006C15 8.39651 14.3998 6.46651 13.1652 4.50042ZM7.5 16.0256C6.00867 16.0239 4.5789 15.4307 3.52437 14.3762C2.46984 13.3217 1.87667 11.8919 1.875 10.4006C1.875 9.10706 2.39008 7.59026 3.40781 5.8826L5.72992 7.43057C5.84179 7.50516 5.96839 7.55481 6.10114 7.57615C6.23389 7.5975 6.36967 7.59004 6.49928 7.55429C6.62889 7.51853 6.7493 7.45532 6.85233 7.36893C6.95536 7.28255 7.0386 7.17501 7.0964 7.05362L9.23781 2.55675C11.3548 4.81175 13.125 7.33378 13.125 10.4006C13.1233 11.8919 12.5302 13.3217 11.4756 14.3762C10.4211 15.4307 8.99133 16.0239 7.5 16.0256Z" fill="white"></path></svg>