<svg viewBox="0 0 40 40" fill="none" xmlns="http://www.w3.org/2000/svg" class="Icon_icon__w6Pjo" preserveAspectRatio=""><path d="M3.50422 0C1.57205 0 0 1.57195 0 3.50401V28.006C0 29.9382 1.57205 31.5102 3.50422 31.5102H13.3767L10.8788 37.8367H6.44898C5.87414 37.8367 5.40816 38.3028 5.40816 38.8776C5.40816 39.4523 5.87414 39.9184 6.44898 39.9184H11.6531H28.3082H33.5102C34.0849 39.9184 34.551 39.4523 34.551 38.8776C34.551 38.3028 34.0849 37.8367 33.5102 37.8367H29.0806L26.5825 31.5102H36.4958C38.428 31.5102 40 29.9382 40 28.006V3.50401C40 1.57195 38.428 0 36.4958 0H3.50422ZM3.50422 2.08163H36.4958C37.2801 2.08163 37.9184 2.71965 37.9184 3.50401V22.1429H35.8367V5.20408C35.8367 4.62924 35.3707 4.16327 34.7959 4.16327H5.20408C4.62924 4.16327 4.16327 4.62924 4.16327 5.20408V22.1429H2.08163V3.50401C2.08163 2.71965 2.71986 2.08163 3.50422 2.08163ZM6.2449 6.2449H33.7551V22.1429H13.6122C13.0374 22.1429 12.5714 22.6089 12.5714 23.1837C12.5714 23.7584 13.0374 24.2245 13.6122 24.2245H37.9184V28.006C37.9184 28.7903 37.2801 29.4286 36.4958 29.4286H25.1837H14.7755H3.50422C2.71986 29.4286 2.08163 28.7903 2.08163 28.006V24.2245H9.36735C9.94219 24.2245 10.4082 23.7584 10.4082 23.1837C10.4082 22.6089 9.94219 22.1429 9.36735 22.1429H6.2449V6.2449ZM19.9312 25.2655C19.631 25.2678 19.3438 25.3886 19.1323 25.6017C18.9208 25.8148 18.8022 26.1029 18.8022 26.4031C18.8022 26.7033 18.9208 26.9914 19.1323 27.2045C19.3438 27.4176 19.631 27.5384 19.9312 27.5407C20.2314 27.5384 20.5186 27.4176 20.7301 27.2045C20.9416 26.9914 21.0603 26.7033 21.0603 26.4031C21.0603 26.1029 20.9416 25.8148 20.7301 25.6017C20.5186 25.3886 20.2314 25.2678 19.9312 25.2655ZM15.5498 31.5102H24.4094L26.9073 37.8367H13.0519L15.5498 31.5102Z"></path></svg>