<svg viewBox="0 0 41 40" xmlns="http://www.w3.org/2000/svg"  class="Icon_icon__w6Pjo" preserveAspectRatio=""><path d="M1 40c-.55 0-1-.45-1-1v-1.58c0-6.68 6.42-11.11 14.31-11.11h.01v-2.46c-.14-.1-.28-.2-.42-.31h-2.45c-1.26 0-2.29-1-2.29-2.22v-.87H6.75c-.55 0-1-.45-1-1v-4.78c0-.55.45-1 1-1h2.18c-.52-3.46-.01-6.14 1.53-7.97 1.57-1.87 3.69-2.29 4.72-2.38C17.04 1.11 19.25 0 21.77 0c.97 0 1.99.17 3.02.51 4.04 1.34 7.9 5.28 7.93 6.5.01.27-.1.53-.28.72-.68.71-1.18 2.21-1.23 3.72.41.41.64.96.64 1.53v.68h2.42c.55 0 1 .45 1 1v4.78c0 .55-.45 1-1 1h-2.42v.87c0 1.23-1.02 2.22-2.28 2.22h-2.24c-.19.14-.38.28-.57.41v2.36C34.61 26.34 41 30.76 41 37.42V39c0 .55-.45 1-1 1H1zm38-2v-.58c0-5.57-5.53-9.11-12.32-9.11h-.67l-.31.19a10.22 10.22 0 01-5.17 1.41c-1.84 0-3.64-.5-5.21-1.44l-.27-.16h-.73C7.52 28.31 2 31.84 2 37.42V38h6.7v-1.97c0-.55.45-1 1-1s1 .45 1 1V38h19.76v-1.97c0-.55.45-1 1-1s1 .45 1 1V38H39zM16.34 26.75a8.139 8.139 0 008.34.02l.06-.04v-1.7c-1.34.56-2.76.85-4.15.85-1.43 0-2.9-.32-4.28-.92v1.77l.03.02zm1.32-3.39c.96.35 1.95.53 2.94.53.96 0 1.92-.17 2.85-.49-.64-.24-1.15-.75-1.36-1.41l-.15-.45c-.03-.1-.15-.17-.28-.17h-2.31c-.13 0-.24.07-.28.17l-.15.45c-.2.63-.66 1.12-1.26 1.37zm4-4c1 0 1.88.63 2.18 1.56l.15.45c.03.1.15.17.28.17h5.29c.15 0 .29-.1.29-.22v-8.34c0-.12-.13-.22-.29-.22h-18.1c-.15 0-.29.1-.29.22v8.34c0 .12.13.22.29.22h5.3c.13 0 .25-.07.28-.17l.15-.45c.3-.93 1.18-1.56 2.18-1.56h2.29zm11.59-.91v-2.78h-1.41v2.78h1.41zm-24.08 0v-2.78H7.75v2.78h1.42zm18.4-7.69c-1.11-.67-2.38-1.05-3.62-1.05-.38 0-.76.03-1.14.1-1.04.19-1.99.28-2.83.28-1.54 0-2.77-.32-3.64-.95a3.45 3.45 0 01-.65-.61c-.74.39-1.93 1.12-2.94 2.22h14.82v.01zM21.77 2c-2.01 0-3.79.98-5.3 2.91-.18.23-.47.37-.78.38-.11 0-2.31.03-3.7 1.7-.63.75-1.02 1.75-1.18 2.96 2-2.51 4.82-3.59 4.96-3.65a1.03 1.03 0 01.86.08c.26.15.44.42.48.72.01 0 .38 1 2.88 1 .72 0 1.55-.08 2.46-.25.49-.09 1-.13 1.5-.13 1.95 0 3.9.68 5.46 1.89.22-1.02.6-1.95 1.09-2.66-.94-1.18-4.16-4.27-7.62-4.85-.37-.07-.75-.1-1.11-.1z"></path></svg>