<svg xmlns="http://www.w3.org/2000/svg" viewBox="0 0 24 24"><path fill-rule="evenodd" clip-rule="evenodd" fill="#FFD617" d="M12 1c6.1 0 11 4.9 11 11s-4.9 11-11 11S1 18.1 1 12 5.9 1 12 1z"/><path fill="#00AEEF" d="M11.6 23c-1.7 0-3.3-.4-4.8-1.1-1.2-.6-2.2-1.4-3.1-2.3l-1.1-1.2 1.1-1.6 1.6.6c1.7.7 3.3 1 4.9 1 2.4 0 4.1-.8 5.1-1.5l1.2-.8.8 1.2c.5.7.8 1.5 1.1 2.3l.4 1-.9.6c-.8.6-1.7 1-2.6 1.3-1.3.3-2.5.5-3.7.5z"/><path fill="#2A2D30" d="M12 0c-1.3 0-2.6.2-3.9.6-1.2.4-2.4 1-3.4 1.8C.6 5.6-1 11 .6 15.9c1 3 3.2 5.5 6.1 6.9 1.7.8 3.4 1.2 5.3 1.2 1.3 0 2.6-.2 3.9-.6 1.2-.4 2.4-1 3.4-1.8 4.1-3.1 5.8-8.5 4.1-13.4C21.7 3.3 17.1 0 12 0zm1.1 2.6c.2-.1.3-.3.5-.4l.1-.1h.2c.8.2 1.6.4 2.3.8l.5.3-.5.4c-3.9 3.3-4.7 6.6-4.8 8.3v.2l-.2.1c-.4.2-.9.3-1.4.3-.6 0-1.2-.1-1.8-.3l-.3-.1v-.3c.2-1.2.6-5.4 5.4-9.2zM2.8 8.1C3.5 6.5 4.6 5.1 6 4c.9-.7 1.8-1.2 2.8-1.5.3-.1.6-.2 1-.3l1.3-.3-1 1c-2.8 2.8-3.7 5.7-3.9 7.7l-.1.6-.5-.4C4.5 10 3.5 9.1 2.9 8.5l-.2-.1.1-.3zm-.4 6.8v-.1c-.4-1.3-.5-2.5-.4-3.7l.1-.8.6.5c1.5 1.3 4.3 3.4 7.3 3.4.8 0 1.6-.2 2.4-.5l.2-.1.2.1c.9.5 1.7 1.1 2.4 1.8l.4.3-.6.4c-.9.5-2.3 1.2-4.4 1.2h-.2c-2.4 0-5.1-.8-7.9-2.5h-.1zm15.2 5.4c-.8.5-1.6.9-2.4 1.2-1 .3-2.1.5-3.2.5-1.5 0-3-.3-4.4-1-1.1-.5-2.1-1.3-2.9-2.1l-1.2-1.2 1.6.6c1.8.7 3.6 1.1 5.3 1.1 2.7 0 4.6-.9 5.8-1.7l.3-.2.2.3c.4.7.8 1.4 1 2.1l.1.3-.2.1zm3.7-4.6c-.4.9-.9 1.8-1.5 2.6l-.4.5-.3-.6c-.8-1.7-2.4-4.2-5.5-6l-.2-.1v-.2c.1-.7.3-1.8 1-3.1l.2-.3.3.1c1.6.6 4.5 2.4 6.4 6.8l.1.1-.1.2zm0-4c-1.8-2.5-3.8-3.8-5.2-4.5l-.5-.2.3-.4c.6-.7 1.4-1.4 2.2-2.1l.3-.2.2.2c1.3 1.1 2.2 2.6 2.8 4.2.3.9.5 1.8.5 2.7l.1 1.4-.7-1.1z"/></svg>