<svg xmlns="http://www.w3.org/2000/svg" xmlns:xlink="http://www.w3.org/1999/xlink"><symbol id="icon-3x3" viewBox="0 0 24 24" xml:space="preserve" xmlns="http://www.w3.org/2000/svg"><style>.aabasket_3x3_st0{fill:#f79311}.aabasket_3x3_st1{fill:#2a2d30}</style><path class="aabasket_3x3_st0" d="M12 1c6.1 0 11 4.9 11 11s-4.9 11-11 11S1 18.1 1 12 5.9 1 12 1z"/><path class="aabasket_3x3_st1" d="M12 0C5.4 0 0 5.4 0 12s5.4 12 12 12 12-5.4 12-12S18.6 0 12 0zM4 6c1.1 1.4 1.8 3.1 2 5H2.1c.1-1.9.8-3.6 1.9-5zm1.9 7c-.2 1.9-.9 3.6-2 5-1.1-1.4-1.8-3.1-1.9-5h3.9zm5.1 8.9c-2.2-.2-4.1-1.1-5.6-2.5 1.4-1.8 2.4-4 2.6-6.5h3v9zM11 11H8c-.3-2.4-1.2-4.7-2.6-6.5C6.9 3.2 8.8 2.3 11 2.1V11zm9-5c1.1 1.4 1.8 3.1 1.9 5H18c.2-1.9.9-3.6 2-5zm-7-3.9c2.2.2 4.1 1.1 5.6 2.5-1.4 1.8-2.4 4-2.6 6.5h-3v-9zM13 13h3c.2 2.4 1.1 4.7 2.6 6.5-1.5 1.4-3.5 2.3-5.6 2.5v-9zm7 5c-1.1-1.4-1.8-3.1-2-5h3.9c-.1 1.9-.8 3.6-1.9 5z"/><path class="aabasket_3x3_st1" d="M1.8 5.8h20.4v12.4H1.8z"/><path d="M8.1 10.9c0 .5-.4.9-.9 1 .5.1.9.5.9 1v1.6c0 1.3-.7 2-2 2H4.4c-1.3 0-2-.7-2-2V14c0-.2.1-.3.3-.3H4c.2 0 .3.1.3.3v.6H6c.2 0 .3-.1.3-.3v-1c0-.4-.2-.6-.6-.6H4c-.2 0-.3-.1-.3-.3v-1.3s.1-.1.3-.1h1.7c.4 0 .6-.2.6-.5v-1c0-.2-.1-.3-.3-.3H4.4v.6c0 .2-.1.3-.3.3H2.8c-.2 0-.3-.1-.3-.3v-.7c0-1.2.7-1.8 2-1.8h1.6c1.3 0 2 .7 2 2v1.6zm13.4 0c0 .5-.4.9-.9 1 .5.1.9.5.9 1v1.6c0 1.3-.7 2-2 2h-1.6c-1.3 0-2-.7-2-2V14c0-.2.1-.3.3-.3h1.3c.2 0 .3.1.3.3v.6h1.6c.2 0 .3-.1.3-.3v-1c0-.4-.2-.6-.6-.6h-1.7c-.2 0-.3-.1-.3-.3v-1.3c0-.2.1-.3.3-.3h1.7c.4 0 .6-.2.6-.5v-1c0-.2-.1-.3-.3-.3h-1.6v.6c0 .2-.1.3-.3.3h-1.3c-.2 0-.3-.1-.3-.3v-.5c0-1.2.7-1.8 2-1.8h1.6c1.3 0 2 .7 2 2v1.6z" fill="#fff"/><path class="aabasket_3x3_st0" d="M15.2 16.2c.1.2 0 .3-.2.3h-1.4c-.2 0-.3-.1-.3-.2L12 13.9l-1.3 2.4c-.1.1-.2.2-.3.2H8.8c-.2 0-.3-.1-.2-.3l2.2-4.4-2.2-4.2c-.1-.2 0-.3.2-.3h1.4c.2 0 .3.1.3.2l1.3 2.3 1.3-2.3c.1-.1.2-.2.3-.2h1.4c.2 0 .3.1.2.3l-2 4.2 2.2 4.4z"/></symbol><symbol viewBox="0 0 24 24" id="icon-af-footbal" xmlns="http://www.w3.org/2000/svg"><path fill-rule="evenodd" clip-rule="evenodd" fill="#FFD617" d="M1.2 21.9s-1.1-9.6 4-15c6.5-6.8 17-6 17-6s3.6 8.3-4 16-15 6-15 6l-2-1z"/><path fill-rule="evenodd" clip-rule="evenodd" fill="#2A2D30" d="M23.1.9C21.7-.6 11.5-.8 5.3 5.3-.9 11.5-.6 21.7.8 23.2s11.7 1.7 17.9-4.5S24.6 2.3 23.1.9zM6.7 6.7C10.2 3.3 15.4 2 19.1 2c.5 0 .9 0 1.2.1l-5.5 5.5-.8-.9c-.4-.4-1-.4-1.4 0-.4.4-.4 1 0 1.4l.8.9-.7.7-.8-.8c-.4-.4-1-.4-1.4 0-.4.4-.4 1 0 1.4l.8.8-.7.7-.9-.8c-.4-.4-1-.4-1.4 0-.4.4-.4 1 0 1.4l.8.8-.7.7-.8-.8c-.4-.4-1-.4-1.4 0-.4.4-.4 1 0 1.4l.8.8-5.1 5.1c-.2-3.1.5-9.5 4.8-13.7zm10.6 10.6C13.8 20.8 8.6 22 4.9 22c-.7 0-1.2 0-1.6-.1l5.2-5.2.5.6c.4.4 1 .4 1.4 0 .4-.4.4-1 0-1.4l-.6-.6.7-.7.6.6c.4.4 1 .4 1.4 0 .4-.4.4-1 0-1.4l-.5-.6.7-.7.6.6c.4.4 1 .4 1.4 0 .4-.4.4-1 0-1.4l-.6-.6.7-.7.6.6c.4.4 1 .4 1.4 0 .4-.4.4-1 0-1.4l-.6-.6 5.7-5.7c.5 2.7-.2 9.6-4.6 14z"/></symbol><symbol viewBox="0 0 24 24" id="icon-american-football" xmlns="http://www.w3.org/2000/svg"><path fill-rule="evenodd" clip-rule="evenodd" fill="#CA7160" d="M1.1 21.9s-1.2-9.6 4-15.1C11.6 0 22.2.8 22.2.8s3.6 8.3-4 16.1-15.1 6-15.1 6l-2-1z"/><path fill-rule="evenodd" clip-rule="evenodd" fill="#2A2D30" d="M13.2 8.2c.4.4 1 .4 1.4 0 .4-.4.4-1 0-1.4l-1.4-1.4c-.4-.4-1-.4-1.4 0-.4.4-.4 1 0 1.4l1.4 1.4zm-2.1 2.1c.4.4 1 .4 1.4 0 .4-.4.4-1 0-1.4l-1.4-1.4C10.7 7 10 7 9.6 7.4c-.4.4-.4 1 0 1.4l1.5 1.5zm-2.9 4.4c.4-.4.4-1 0-1.4l-1.4-1.4c-.4-.4-1-.4-1.4 0-.4.4-.4 1 0 1.4l1.4 1.4c.3.4 1 .4 1.4 0zM23.1.8C21.7-.6 11.5-.9 5.3 5.3S-.6 21.7.8 23.2s11.7 1.7 17.9-4.5S24.6 2.3 23.1.8zM6.7 6.7c1.9-1.9 4.3-3.1 6.8-3.9l4.4 4.4c-.4 2.3-1.3 5.1-3.4 7.2-2 2-4.7 3-7.2 3.4l-4.5-4.5c.7-2.3 1.9-4.7 3.9-6.6zM4.9 22c-1.4 0-2.3-.2-2.7-.3-.3-.9-.5-3.3 0-6l6 6c-1.1.2-2.3.3-3.3.3zm12.4-4.7c-1.9 1.9-4.3 3.1-6.7 3.8L9 19.5c2.4-.6 5-1.7 6.9-3.6 2-2 3.1-4.6 3.6-7l1.7 1.7c-.8 2.3-2 4.7-3.9 6.7zm4.4-9-6-6c1.2-.2 2.3-.3 3.4-.3 1.5 0 2.3.2 2.7.3.3.9.4 3.2-.1 6zM8.9 12.5c.4.4 1 .4 1.4 0 .4-.4.4-1 0-1.4L8.9 9.6c-.4-.4-1-.4-1.4 0-.4.4-.4 1 0 1.4l1.4 1.5z"/></symbol><symbol viewBox="0 0 20 20" class="adIcon_icon__w6Pjo" id="icon-android" xmlns="http://www.w3.org/2000/svg"><path d="M4 15c0 1.1.9 2 2 2v2c0 .6.4 1 1 1s1-.4 1-1v-2h4v2c0 .6.4 1 1 1s1-.4 1-1v-2c1.1 0 2 .1 2-1V9H4v6zM2 8c-.6 0-1 .5-1 1v5c0 .6.4 1 1 1s1-.4 1-1V9c0-.5-.4-1-1-1zm12.7-6.2c.4-.4.4-1.1 0-1.5-.4-.4-1.1-.4-1.5 0l-1.1 1.1c-.7-.2-1.4-.4-2.1-.4-.7 0-1.4.2-2.1.4L6.8.3c-.4-.4-1.1-.4-1.5 0-.4.4-.4 1.1 0 1.5l.8.8C4.8 3.8 4 5.5 4 7.4V8h12v-.6c0-2-.8-3.7-2.1-4.9l.8-.7zM7.5 7C6.7 7 6 6.3 6 5.5S6.7 4 7.5 4 9 4.7 9 5.5 8.3 7 7.5 7zM14 5.5c0 .8-.7 1.5-1.5 1.5S11 6.3 11 5.5 11.7 4 12.5 4s1.5.7 1.5 1.5zM18 8c-.6 0-1 .4-1 1v5c0 .6.4 1 1 1s1-.4 1-1V9c0-.5-.4-1-1-1z"/></symbol><symbol viewBox="0 0 20 20" class="aeIcon_icon__w6Pjo" id="icon-apple" xmlns="http://www.w3.org/2000/svg"><path d="M17.4 14.9c-.2-.1-2.3-1-2.3-3.5 0-2 1.5-3.1 1.9-3.3v-.2C15.9 6.3 14.2 6 13.6 6h-.3c-.8 0-1.5.3-2.1.5-.4.2-.8.3-1 .3-.3 0-.6-.1-1.1-.3-.6-.2-1.2-.5-1.9-.5-1.6 0-3 .9-3.9 2.3-1.5 2.7-.6 6.8 1.1 9.3.9 1.3 1.8 2.4 2.9 2.4h.1c.6 0 1-.2 1.3-.4.4-.2.9-.4 1.6-.4.7 0 1.1.2 1.5.4.4.2.8.4 1.5.3 1.3 0 2.2-1.2 2.9-2.3.8-1.1 1.1-2.2 1.3-2.6 0 0 0-.1-.1-.1zM9.7 5h.2c1 .1 2-.5 2.7-1.4.7-1 1-2.3.9-3.4 0-.1-.1-.2-.2-.2-1 0-2.2.6-2.8 1.5-.6.7-1.1 2-.9 3.3-.1.1 0 .2.1.2z"/></symbol><symbol viewBox="0 0 34 38" class="afIcon_icon__w6Pjo" id="icon-bakkara" xmlns="http://www.w3.org/2000/svg"><path d="M6.288 15.918a1.011 1.011 0 0 1-1.239-.714l-.523-1.95a1.01 1.01 0 0 1 .715-1.238l1.953-.522a1.011 1.011 0 0 1 .523 1.95l-.976.262.261.975a1.01 1.01 0 0 1-.714 1.237zm-3.523-5.33a1.01 1.01 0 0 0-.715 1.237l6.28 23.41c.144.54.698.86 1.238.715l13.67-3.66a.995.995 0 0 0 .482-.29h2.212a3.03 3.03 0 0 1-2.17 2.242L10.09 37.9a3.033 3.033 0 0 1-3.714-2.142L.097 12.348a3.03 3.03 0 0 1 2.144-3.71L12 6.024V3a3 3 0 0 1 3-3h16a3 3 0 0 1 3 3v24a3 3 0 0 1-3 3H15a3 3 0 0 1-3-3V8.116zM14 3v24a1 1 0 0 0 1 1h16a1 1 0 0 0 1-1V3a1 1 0 0 0-1-1H15a1 1 0 0 0-1 1zm2 2a1 1 0 0 1 1-1h2a1 1 0 1 1 0 2h-1v1a1 1 0 1 1-2 0V5zm11 19h1v-1a1 1 0 0 1 2 0v2a1 1 0 0 1-1 1h-2a1 1 0 0 1 0-2zm-.42-9.25a.985.985 0 0 1-.108.322l-3.5 6.062a1 1 0 1 1-1.732-1l1.813-3.14c-.018 0-.035.006-.053.006a4 4 0 1 1 4-4c0 .631-.16 1.22-.42 1.75zM23 11a2 2 0 1 0 0 4 2 2 0 0 0 0-4z"/></symbol><symbol viewBox="0 0 24 24" id="icon-bascket" xmlns="http://www.w3.org/2000/svg"><path fill-rule="evenodd" clip-rule="evenodd" fill="#F79311" d="M12 1c6.1 0 11 4.9 11 11s-4.9 11-11 11S1 18.1 1 12 5.9 1 12 1z"/><path fill-rule="evenodd" clip-rule="evenodd" fill="#2A2D30" d="M12 0C5.4 0 0 5.4 0 12s5.4 12 12 12 12-5.4 12-12S18.6 0 12 0zM4 6c1.1 1.4 1.8 3.1 2 5H2.1c.1-1.9.8-3.6 1.9-5zm1.9 7c-.2 1.9-.9 3.6-2 5-1.1-1.4-1.8-3.1-1.9-5h3.9zm5.1 8.9c-2.2-.2-4.1-1.1-5.6-2.5 1.4-1.8 2.4-4 2.6-6.5h3v9zM11 11H8c-.3-2.4-1.2-4.7-2.6-6.5C6.9 3.2 8.8 2.3 11 2.1V11zm9-5c1.1 1.4 1.8 3.1 1.9 5H18c.2-1.9.9-3.6 2-5zm-7-3.9c2.2.2 4.1 1.1 5.6 2.5-1.4 1.8-2.4 4-2.6 6.5h-3v-9zM13 13h3c.2 2.4 1.1 4.7 2.6 6.5-1.5 1.4-3.5 2.3-5.6 2.5v-9zm7 5c-1.1-1.4-1.8-3.1-2-5h3.9c-.1 1.9-.8 3.6-1.9 5z"/></symbol><symbol viewBox="0 0 24 24" id="icon-baseball" xmlns="http://www.w3.org/2000/svg"><path fill-rule="evenodd" clip-rule="evenodd" fill="#F9F4E1" d="M12 1c6.1 0 11 4.9 11 11s-4.9 11-11 11S1 18.1 1 12 5.9 1 12 1z"/><path fill-rule="evenodd" clip-rule="evenodd" fill="#2A2D30" d="M12 0C5.4 0 0 5.4 0 12s5.4 12 12 12 12-5.4 12-12S18.6 0 12 0zM2 12c0-2.8 1.1-5.3 3-7.1.6.5 1.1 1.1 1.5 1.8L6 7l1 1.7.4-.3c.3.8.5 1.6.6 2.5H7v2h.9c-.1.8-.3 1.5-.5 2.3l-.3-.2-.9 1.9.4.3c-.4.7-1 1.4-1.6 2-1.9-1.9-3-4.4-3-7.2zm10 10c-2 0-3.9-.6-5.4-1.6.6-.6 1.2-1.3 1.6-2.1l1 .7.9-1.9-.9-.7c.4-1.1.7-2.2.8-3.5h1v-2H9.9c-.1-1.1-.4-2.3-.8-3.4l1.2-.7-1-1.8-1.1.7c-.5-.7-1-1.4-1.6-2.1C8.1 2.6 10 2 12 2s3.9.6 5.4 1.6c-.6.6-1.2 1.3-1.6 2.1L14.7 5l-1 1.7 1.2.7c-.5 1.1-.8 2.3-.9 3.5h-1v2h1.1c.1 1.2.4 2.4.8 3.5l-.9.7.9 1.9 1-.7c.5.8 1 1.5 1.6 2.1-1.6 1-3.5 1.6-5.5 1.6zm7-2.9c-.6-.6-1.1-1.3-1.6-2l.4-.3-.9-1.8-.4.3c-.2-.7-.4-1.5-.5-2.2h1v-2h-.9c.1-.9.3-1.7.6-2.5l.4.3L18 7l-.5-.3c.4-.7.9-1.3 1.5-1.8 1.8 1.8 3 4.3 3 7.1s-1.1 5.3-3 7.1z"/></symbol><symbol viewBox="0 0 24 24" id="icon-biliadrd" xmlns="http://www.w3.org/2000/svg"><path fill-rule="evenodd" clip-rule="evenodd" fill="#FFF" d="M11.9 1.2c6 0 10.9 4.9 10.9 10.9S17.9 23 11.9 23 1 18.1 1 12.1C1 6 5.9 1.2 11.9 1.2z"/><path fill-rule="evenodd" clip-rule="evenodd" fill="#2A2D30" d="M12 0C5.4 0 0 5.4 0 12s5.4 12 12 12 12-5.4 12-12S18.6 0 12 0zm0 22C6.5 22 2 17.5 2 12S6.5 2 12 2s10 4.5 10 10-4.5 10-10 10zm0-18c-4.4 0-8 3.6-8 8 0 .6.4 1 1 1s1-.4 1-1c0-3.3 2.7-6 6-6 .6 0 1-.4 1-1s-.4-1-1-1z"/></symbol><symbol viewBox="0 0 34 40" class="ajIcon_icon__w6Pjo" id="icon-black" xmlns="http://www.w3.org/2000/svg"><path d="M20 3a1 1 0 0 0-1-1H3a1 1 0 0 0-1 1v24a1 1 0 0 0 1 1h7v2H3a3 3 0 0 1-3-3V3a3 3 0 0 1 3-3h16a3 3 0 0 1 3 3v7h9a3 3 0 0 1 3 3v24a3 3 0 0 1-3 3H15a3 3 0 0 1-3-3V13a3 3 0 0 1 3-3h1V8.578A5.01 5.01 0 0 1 13.422 6H8.578A5.01 5.01 0 0 1 6 8.578v12.844A5.01 5.01 0 0 1 8.578 24H10v2H7a3 3 0 0 0-3-3V7a3 3 0 0 0 3-3h8a3 3 0 0 0 3 3v3h2zM4 25a1 1 0 1 1 0 2 1 1 0 0 1 0-2zM4 3a1 1 0 1 1 0 2 1 1 0 0 1 0-2zm13 1a1 1 0 1 1 2 0 1 1 0 0 1-2 0zm-3 9v24a1 1 0 0 0 1 1h16a1 1 0 0 0 1-1V13a1 1 0 0 0-1-1H15a1 1 0 0 0-1 1zm2 2a1 1 0 0 1 1-1h2a1 1 0 0 1 0 2h-1v1a1 1 0 0 1-2 0v-2zm11 19h1v-1a1 1 0 0 1 2 0v2a1 1 0 0 1-1 1h-2a1 1 0 0 1 0-2zm2-10.085a3.92 3.92 0 0 1-.976 2.59c-.536.609-5.035 4.492-5.035 4.492s-4.18-3.715-4.667-4.146a3.923 3.923 0 0 1-1.32-2.936 3.913 3.913 0 0 1 3.902-3.914c.75 0 1.476.217 2.097.614A3.892 3.892 0 0 1 25.097 20 3.913 3.913 0 0 1 29 23.915zm-2.002 0a1.908 1.908 0 0 0-1.9-1.91c-.361 0-.714.102-1.02.298L23 22.992l-1.077-.689a1.89 1.89 0 0 0-1.02-.299c-1.047 0-1.9.858-1.9 1.912 0 .548.236 1.071.646 1.434l3.356 2.981c1.685-1.468 3.244-2.856 3.517-3.152a1.91 1.91 0 0 0 .476-1.263z"/></symbol><symbol viewBox="0 0 24 24" id="icon-box" xmlns="http://www.w3.org/2000/svg"><path fill-rule="evenodd" clip-rule="evenodd" fill="#F04F2F" d="M6.1 19s-2-3.5-2-9 1.8-9 8-9c5 0 5 5 5 5s3 .3 3 4-5 9-5 9v3c0 1-.3 1-2 1h-5c-1.3 0-2-1-2-2v-2z"/><path fill-rule="evenodd" clip-rule="evenodd" fill="#2A2D30" d="M18.1 5s-.4-5-6-5-9 3.2-9 10 2 9 2 9v3c0 1.4.5 2 2 2h7c1.5 0 2-.5 2-2v-3s5-2.8 5-10c0-3.2-3-4-3-4zm-8 17h-3v-2h3v2zm4 0h-2v-2h2v2zm1-4.7-1 .7H6.9l-.3-.4s-1.5-2-1.5-7.6c0-7.2 4-8 7-8 3.7 0 4 2.8 4 3.1l.1 1.4-1.1 1.9c-.2.3 0 .9.5 1.1.5.3 1 .2 1.2-.1l1.3-2.3c.4.3 1 .8 1 1.8 0 6-3.8 8.3-4 8.4zM12.1 4c-1.5 0-3.3.3-3.8 1.4-.2.3-.2.6-.2.6 0 .6.4 1 1 1 .3 0 .6-.2.8-.5.5-.5 1.2-.5 2.1-.5.6 0 1-.4 1-1s-.4-1-.9-1z"/></symbol><symbol fill="none" viewBox="0 0 24 24" stroke-width="1.5" stroke="currentColor" id="icon-burger-icon" xmlns="http://www.w3.org/2000/svg"><path stroke-linecap="round" stroke-linejoin="round" d="M3.75 6.75h16.5M3.75 12h16.5m-16.5 5.25h16.5"/></symbol><symbol viewBox="0 0 12 8" id="icon-check" xmlns="http://www.w3.org/2000/svg"><path fill="#043e7d" d="M.204 3.63 1.68 2.152l2.95 2.953L9.796-.06l1.475 1.476-6.64 6.64z"/></symbol><symbol viewBox="0 0 24 24" id="icon-chess" xmlns="http://www.w3.org/2000/svg"><path fill-rule="evenodd" clip-rule="evenodd" fill="#FFF" d="M18 19c-1.6-1.7-3-2.8-3-6V8.3c1-.8 1-1.7 1-2.8 0-2.5-2-4.4-4.5-4.4S7 3.1 7 5.6c0 1.1 0 2 1 2.8V14c0 1.8-.9 3.1-2 4-1 .9-2.4 3.6-2 4 .5.5.7 1.1 7 1.1h7c.6-.1 1.7-2.4 0-4.1z"/><path fill-rule="evenodd" clip-rule="evenodd" fill="#2A2D30" d="M20 20c0-1.6-4-3-4-6v-3h2V9h-2.3c.8-1 1.3-2.2 1.3-3.5 0-3-2.5-5.5-5.5-5.5S6 2.5 6 5.5C6 6.8 6.5 8 7.3 9H5v2h2v3c0 3-4 4.4-4 6 0 1.6-.4 4 2 4h13c2.4 0 2-2.4 2-4zM11.5 2C13.4 2 15 3.6 15 5.5c0 .6-.1 1.1-.4 1.6l-1 1.9H9.4l-1-1.9c-.2-.5-.4-1-.4-1.6C8 3.6 9.6 2 11.5 2zM9 14v-3h5v3c0 1.7.8 3 1.7 4H7.4c.8-1 1.6-2.3 1.6-4zm9 8H5v-1.8c.1-.1.1-.2.2-.3h12.4c.1.1.2.2.2.3v.5c.2.4.2 1 .2 1.3z"/></symbol><symbol viewBox="0 0 54 54" id="icon-circle" xmlns="http://www.w3.org/2000/svg"><defs><filter id="aoa" width="76" height="80" x="-11" y="-15" filterUnits="userSpaceOnUse"><feOffset dy="4" in="SourceGraphic" result="FeOffset1050Out"/><feGaussianBlur in="FeOffset1050Out" result="FeGaussianBlur1051Out" stdDeviation="2.56 2.56"/></filter><mask id="aob" width="2.08" height="2.08" x="-1.04" y="-1.04"><path fill="#fff" d="M5.4 1.4h43.2v43.2H5.4z"/><path d="M27 3c11.046 0 20 8.954 20 20s-8.954 20-20 20S7 34.046 7 23 15.954 3 27 3zm-1 37.973V40a1 1 0 1 1 2 0v.973a17.897 17.897 0 0 0 7.122-1.905l-.488-.846a1 1 0 0 1 1.732-1l.487.844a18.098 18.098 0 0 0 5.213-5.213l-.844-.487a1 1 0 0 1 1-1.732l.846.488A17.897 17.897 0 0 0 44.973 24H44a1 1 0 0 1 0-2h.973a17.897 17.897 0 0 0-1.905-7.122l-.846.488a1 1 0 1 1-1-1.732l.844-.487a18.097 18.097 0 0 0-5.213-5.213l-.487.844a1 1 0 0 1-1.732-1l.488-.846A17.897 17.897 0 0 0 28 5.027V6a1 1 0 1 1-2 0v-.973a17.9 17.9 0 0 0-7.122 1.905l.488.846a1 1 0 1 1-1.732 1l-.487-.844a18.097 18.097 0 0 0-5.213 5.213l.844.487a1 1 0 1 1-1 1.732l-.846-.488A17.897 17.897 0 0 0 9.027 22H10a1 1 0 1 1 0 2h-.973a17.9 17.9 0 0 0 1.905 7.122l.846-.488a1 1 0 1 1 1 1.732l-.844.487a18.098 18.098 0 0 0 5.213 5.213l.487-.844a1 1 0 0 1 1.732 1l-.488.846A17.897 17.897 0 0 0 26 40.973zM27 9c7.732 0 14 6.268 14 14s-6.268 14-14 14-14-6.268-14-14S19.268 9 27 9zM15 23c0 6.628 5.373 12 12 12s12-5.372 12-12c0-6.627-5.373-12-12-12s-12 5.373-12 12zm5.66 3.966L30.966 16.66a.972.972 0 0 1 1.374 1.374L22.034 28.34a.972.972 0 0 1-1.374-1.374zm-1.374-5.497 6.183-6.183a.972.972 0 0 1 1.375 1.374l-6.184 6.184a.972.972 0 0 1-1.374-1.375zm6.87 6.871 6.184-6.184a.972.972 0 1 1 1.374 1.375l-6.183 6.183a.972.972 0 0 1-1.375-1.374z"/></mask></defs><g filter="url(#aoa)"><path fill="none" stroke="#1d68b7" stroke-opacity=".3" stroke-width="3.2" d="M27 3c11.046 0 20 8.954 20 20s-8.954 20-20 20S7 34.046 7 23 15.954 3 27 3zm-1 37.973V40a1 1 0 1 1 2 0v.973a17.897 17.897 0 0 0 7.122-1.905l-.488-.846a1 1 0 0 1 1.732-1l.487.844a18.098 18.098 0 0 0 5.213-5.213l-.844-.487a1 1 0 0 1 1-1.732l.846.488A17.897 17.897 0 0 0 44.973 24H44a1 1 0 0 1 0-2h.973a17.897 17.897 0 0 0-1.905-7.122l-.846.488a1 1 0 1 1-1-1.732l.844-.487a18.097 18.097 0 0 0-5.213-5.213l-.487.844a1 1 0 0 1-1.732-1l.488-.846A17.897 17.897 0 0 0 28 5.027V6a1 1 0 1 1-2 0v-.973a17.9 17.9 0 0 0-7.122 1.905l.488.846a1 1 0 1 1-1.732 1l-.487-.844a18.097 18.097 0 0 0-5.213 5.213l.844.487a1 1 0 1 1-1 1.732l-.846-.488A17.897 17.897 0 0 0 9.027 22H10a1 1 0 1 1 0 2h-.973a17.9 17.9 0 0 0 1.905 7.122l.846-.488a1 1 0 1 1 1 1.732l-.844.487a18.098 18.098 0 0 0 5.213 5.213l.487-.844a1 1 0 0 1 1.732 1l-.488.846A17.897 17.897 0 0 0 26 40.973zM27 9c7.732 0 14 6.268 14 14s-6.268 14-14 14-14-6.268-14-14S19.268 9 27 9zM15 23c0 6.628 5.373 12 12 12s12-5.372 12-12c0-6.627-5.373-12-12-12s-12 5.373-12 12zm5.66 3.966L30.966 16.66a.972.972 0 0 1 1.374 1.374L22.034 28.34a.972.972 0 0 1-1.374-1.374zm-1.374-5.497 6.183-6.183a.972.972 0 0 1 1.375 1.374l-6.184 6.184a.972.972 0 0 1-1.374-1.375zm6.87 6.871 6.184-6.184a.972.972 0 1 1 1.374 1.375l-6.183 6.183a.972.972 0 0 1-1.375-1.374z" mask="url(#aob)"/><path fill="#1d68b7" fill-opacity=".3" d="M27 3c11.046 0 20 8.954 20 20s-8.954 20-20 20S7 34.046 7 23 15.954 3 27 3zm-1 37.973V40a1 1 0 1 1 2 0v.973a17.897 17.897 0 0 0 7.122-1.905l-.488-.846a1 1 0 0 1 1.732-1l.487.844a18.098 18.098 0 0 0 5.213-5.213l-.844-.487a1 1 0 0 1 1-1.732l.846.488A17.897 17.897 0 0 0 44.973 24H44a1 1 0 0 1 0-2h.973a17.897 17.897 0 0 0-1.905-7.122l-.846.488a1 1 0 1 1-1-1.732l.844-.487a18.097 18.097 0 0 0-5.213-5.213l-.487.844a1 1 0 0 1-1.732-1l.488-.846A17.897 17.897 0 0 0 28 5.027V6a1 1 0 1 1-2 0v-.973a17.9 17.9 0 0 0-7.122 1.905l.488.846a1 1 0 1 1-1.732 1l-.487-.844a18.097 18.097 0 0 0-5.213 5.213l.844.487a1 1 0 1 1-1 1.732l-.846-.488A17.897 17.897 0 0 0 9.027 22H10a1 1 0 1 1 0 2h-.973a17.9 17.9 0 0 0 1.905 7.122l.846-.488a1 1 0 1 1 1 1.732l-.844.487a18.098 18.098 0 0 0 5.213 5.213l.487-.844a1 1 0 0 1 1.732 1l-.488.846A17.897 17.897 0 0 0 26 40.973zM27 9c7.732 0 14 6.268 14 14s-6.268 14-14 14-14-6.268-14-14S19.268 9 27 9zM15 23c0 6.628 5.373 12 12 12s12-5.372 12-12c0-6.627-5.373-12-12-12s-12 5.373-12 12zm5.66 3.966L30.966 16.66a.972.972 0 0 1 1.374 1.374L22.034 28.34a.972.972 0 0 1-1.374-1.374zm-1.374-5.497 6.183-6.183a.972.972 0 0 1 1.375 1.374l-6.184 6.184a.972.972 0 0 1-1.374-1.375zm6.87 6.871 6.184-6.184a.972.972 0 1 1 1.374 1.375l-6.183 6.183a.972.972 0 0 1-1.375-1.374z"/></g><path fill="#57a9ff" d="M27 3c11.046 0 20 8.954 20 20s-8.954 20-20 20S7 34.046 7 23 15.954 3 27 3zm-1 37.973V40a1 1 0 1 1 2 0v.973a17.897 17.897 0 0 0 7.122-1.905l-.488-.846a1 1 0 0 1 1.732-1l.487.844a18.098 18.098 0 0 0 5.213-5.213l-.844-.487a1 1 0 0 1 1-1.732l.846.488A17.897 17.897 0 0 0 44.973 24H44a1 1 0 0 1 0-2h.973a17.897 17.897 0 0 0-1.905-7.122l-.846.488a1 1 0 1 1-1-1.732l.844-.487a18.097 18.097 0 0 0-5.213-5.213l-.487.844a1 1 0 0 1-1.732-1l.488-.846A17.897 17.897 0 0 0 28 5.027V6a1 1 0 1 1-2 0v-.973a17.9 17.9 0 0 0-7.122 1.905l.488.846a1 1 0 1 1-1.732 1l-.487-.844a18.097 18.097 0 0 0-5.213 5.213l.844.487a1 1 0 1 1-1 1.732l-.846-.488A17.897 17.897 0 0 0 9.027 22H10a1 1 0 1 1 0 2h-.973a17.9 17.9 0 0 0 1.905 7.122l.846-.488a1 1 0 1 1 1 1.732l-.844.487a18.098 18.098 0 0 0 5.213 5.213l.487-.844a1 1 0 0 1 1.732 1l-.488.846A17.897 17.897 0 0 0 26 40.973zM27 9c7.732 0 14 6.268 14 14s-6.268 14-14 14-14-6.268-14-14S19.268 9 27 9zM15 23c0 6.628 5.373 12 12 12s12-5.372 12-12c0-6.627-5.373-12-12-12s-12 5.373-12 12zm5.66 3.966L30.966 16.66a.972.972 0 0 1 1.374 1.374L22.034 28.34a.972.972 0 0 1-1.374-1.374zm-1.374-5.497 6.183-6.183a.972.972 0 0 1 1.375 1.374l-6.184 6.184a.972.972 0 0 1-1.374-1.375zm6.87 6.871 6.184-6.184a.972.972 0 1 1 1.374 1.375l-6.183 6.183a.972.972 0 0 1-1.375-1.374z"/></symbol><symbol viewBox="0 0 18 21" class="apIcon_icon__w6Pjo" id="icon-clock" xmlns="http://www.w3.org/2000/svg"><path d="M16.59 4.381a1.362 1.362 0 0 1 0 1.926l-.348.348a9 9 0 1 1-1.93-1.921l.353-.353a1.362 1.362 0 0 1 1.926 0zM2 12a7 7 0 1 0 14 0 7 7 0 0 0-14 0zM8 0h2a1 1 0 0 1 0 2H8a1 1 0 0 1 0-2zm1 8a1 1 0 0 1 1 1v2h2a1 1 0 1 1 0 2H9a1 1 0 0 1-1-1V9a1 1 0 0 1 1-1z"/></symbol><symbol viewBox="0 0 20 20" class="aqIcon_icon__w6Pjo" id="icon-cross" xmlns="http://www.w3.org/2000/svg"><path d="M17.071 2.929c3.905 3.905 3.905 10.237 0 14.142-3.905 3.905-10.237 3.905-14.142 0-3.905-3.905-3.905-10.237 0-14.142 3.905-3.905 10.237-3.905 14.142 0zm-4.243 2.828L10 8.586 7.172 5.757a1 1 0 0 0-1.415 1.415L8.586 10l-2.829 2.828a1 1 0 0 0 1.415 1.415L10 11.414l2.828 2.829a1 1 0 1 0 1.415-1.415L11.414 10l2.829-2.828a1 1 0 1 0-1.415-1.415z"/></symbol><symbol viewBox="0 0 40 35" fill="none" class="asIcon_icon__w6Pjo" id="icon-crown" xmlns="http://www.w3.org/2000/svg"><path d="m39.897 9.074-2.644 8.293-.65 1.96L34 26v8c0 .572-.43 1-1 1H7c-.57 0-1-.428-1-1v-8l-2.604-6.673-.65-1.96L.103 9.074a.59.59 0 0 1-.1-.36c0-.573.413-.988.982-.988 2.775 0 5.48.691 7.823 2l.04.022.098.098c.15.079.294.289.343.542a1.04 1.04 0 0 1-.182.811l-.378.572c-.735 1.426-.182 3.11 1.304 3.887.41.218.867.333 1.332.334 1.064 0 2.047-.623 2.566-1.626.368-.71.434-1.51.188-2.252a2.818 2.818 0 0 0-1.397-1.629h-.015l-.143-.048c-.474-.285-.607-.876-.31-1.374 2.021-3.046 4.425-5.684 7.155-7.854A.98.98 0 0 1 20 .991a.98.98 0 0 1 .591.218c2.73 2.17 5.134 4.808 7.155 7.854.297.498.164 1.089-.31 1.374l-.142.048h-.016a2.818 2.818 0 0 0-1.397 1.629 2.887 2.887 0 0 0 .188 2.252c.519 1.003 1.502 1.626 2.566 1.626a2.85 2.85 0 0 0 1.332-.334c1.486-.777 2.04-2.461 1.304-3.887l-.378-.572a1.04 1.04 0 0 1-.182-.81c.05-.254.193-.464.343-.543l.098-.098.04-.023c2.342-1.308 5.048-1.999 7.823-1.999.569 0 .983.415.983.988 0 .075 0 .218-.101.36ZM8 33h24v-6H8v2h7a1 1 0 1 1 0 2H8v2Zm27.673-17.092 2.085-6.113c-1.47.113-3.005.505-4.574 1.17a4.75 4.75 0 0 1 .452 2.055c0 2.716-2.11 4.898-4.814 4.969-2.702 0-4.874-2.122-4.943-4.839 0-1.47.64-2.855 1.768-3.846-1.532-2.2-3.41-4.246-5.588-6.09L20 3.269c-.02-.017-.039-.036-.06-.053-2.177 1.843-4.055 3.889-5.587 6.089 1.127.99 1.768 2.376 1.768 3.846-.07 2.717-2.24 4.839-4.943 4.839-2.703-.071-4.814-2.253-4.814-4.969 0-.735.156-1.438.452-2.055-1.57-.665-3.104-1.057-4.574-1.17l2.085 6.113 2.776 8.165.702.927h24.39l.702-.927 2.776-8.166Z"/></symbol><symbol class="arIcon_icon__w6Pjo" viewBox="0 0 16 15" id="icon-crown-lable" xmlns="http://www.w3.org/2000/svg"><path fill-rule="evenodd" clip-rule="evenodd" d="M4 6.5 0 3v12h16V3l-4 3.5L8 0 4 6.5Zm.5 3L2 7.5V13h12V7.5l-2.5 2L8 4 4.5 9.5Z" fill="#fff"/></symbol><symbol viewBox="0 0 48 48" id="icon-cs" xmlns="http://www.w3.org/2000/svg"><path d="M43 10.077c-.506-.001-1.216-.054-1.717.024-.746.132-1.506-.086-2.258-.109-.011-.184.129-.513.122-.696-.141-.018-.281-.028-.417-.06-.127-.457-.078-.939-.093-1.408a27.859 27.859 0 0 1-.289-.006c-.023.534-.021 1.068-.027 1.602-.185-.151-.314-.444-.583-.423L30.392 9c-.388.042-.691-.223-1.004-.41a9.955 9.955 0 0 0-.117-.732c-.22.303-.24.691-.321 1.048-.584.116-1.161.443-1.756.495-.052-.344-.107-.687-.145-1.034.315-.152.669-.254.93-.502.307-.898-.048-1.832-.251-2.71A9.668 9.668 0 0 0 25.677 4h-1.042c-.716.234-1.429.617-1.836 1.291-.63.989-.717 2.259-.321 3.357l-.224.156c-.682-.54-1.625-.273-2.278.18-.948.719-1.454 1.895-1.664 3.055-.217.983-.12 1.992-.004 2.98-.392.097-.794.116-1.193.146-.167.007-.378.074-.396.273-.12.782-.031 1.586-.192 2.363a6.372 6.372 0 0 0-.154 1.514c.437.099.877.194 1.316.287-.3.138-.645.236-.859.509-.188 1.261.26 2.504.22 3.769-.22.192-.495.365-.567.673-.135.363.08.732.027 1.103-.051.404.04.806.169 1.184.121.317.02.657-.028.98-.142.836-.305 1.674-.34 2.523-.028.448.127.91-.016 1.345-.466 1.068-1.249 1.959-1.663 3.054-.183.504-.09 1.08-.353 1.558-.281.538-.669 1.069-.634 1.714-.031.437.317.829.17 1.266a103.23 103.23 0 0 1-.679 2.669c-.164.589-.195 1.234-.012 1.822.245.129.521.172.789.23h1.031c.333-.031.663-.087.996-.134.096-.462-.017-.913-.173-1.343-.194-1.084-.021-2.236.52-3.192.187-.248.527-.344.66-.64.199-.423.294-.886.476-1.316.256-.612.606-1.187.766-1.838.089-.356-.013-.721.019-1.081.097-.399.276-.79.57-1.078.394-.369.548-.934.979-1.269.294-.22.308-.614.37-.951.058-.446.203-.873.364-1.29.229-.577.387-1.21.828-1.665.28-.293.42-.683.522-1.071.175.339.315.715.596.981.315.158.774.073.965.434.549.836.59 1.312 1.141 2.148.263.519.897.392 1.366.406.27.371.571.478.481.928-.017.507-.445.898-.385 1.417.047 1.056.125 2.121.399 3.144.096.477.344.915.352 1.411.012.574-.097 1.514-.212 2.081-.28.759-.471 1.553-.507 2.366.662.39 1.426-.006 2.118.225.759.251 1.555.341 2.35.326.489-.009.979-.057 1.46-.132.003-.277.093-.578-.033-.837-.4-.473-1.069-.475-1.555-.802-.393-.354-.714-.786-1.042-1.201-.277-.326.094-.777.083-1.188.004-.624.001-1.267.231-1.855.17-.468.113-.974.021-1.451-.124-.587.086-1.166.14-1.747a67.67 67.67 0 0 0 .184-2.38c.036-.453-.119-.885-.229-1.316-.065-.406-.451-.635-.564-1.02-.662-1.826-1.268-3.329-2.572-4.785-.501-.499-.754-1.333-.45-2.004.282.077.562.162.848.234.305-.411.603-.865.652-1.393.05-.544.065-1.091.113-1.635.022-.593.15-1.204-.003-1.786-.1-.398-.493-.57-.797-.772.073-.277.147-.552.212-.831 1.003.489 1.933 1.198 3.056 1.372.301.046.623.19.922.052.412-.198.73-.544 1.09-.822.652-.513.562-1.449.789-2.181.222-.086.448-.165.673-.249-.148-.649-.406-1.305-.318-1.982.27-.369.611-.59.892-.951.201-.274.549-.345.866-.337.955-.005 1.911.012 2.867.001.031-.139-.082.139-.048 0 .994.057 1.989-.159 2.985-.035.621.107 1.455.063 2.079.017-.033-.184-.049-.724-.057-.907zm-12.297 3.497c-.189-.338-.472-.656-.528-1.046.03-.041.092-.12.122-.16.406-.043.815-.016 1.222.004-.263.406-.541.804-.816 1.202zm-.059-1.308c.27-.138.357-.423.392-.71.217-.011.435-.018.655-.023l.023.631c-.352.079-.713.078-1.07.102z"/></symbol><symbol viewBox="0 0 40 39" class="auIcon_icon__w6Pjo" id="icon-cubes" xmlns="http://www.w3.org/2000/svg"><path d="M5 8a3 3 0 1 1 6 0 3 3 0 0 1-6 0zm4 0a1 1 0 1 0-2 0 1 1 0 0 0 2 0zm30.084 17.141L26.141 38.084a3.05 3.05 0 0 1-4.314 0L8.884 25.141a3.018 3.018 0 0 1-.761-1.316L7.948 24H3a3 3 0 0 1-3-3V3a3 3 0 0 1 3-3h18a3 3 0 0 1 3 3v2.093a5.076 5.076 0 0 0-2 .899V3a1 1 0 0 0-1-1H3a1 1 0 0 0-1 1v18a1 1 0 0 0 1 1h5.166c.145-.427.377-.832.718-1.173L21.827 7.884a3.05 3.05 0 0 1 4.314 0l12.943 12.943a3.05 3.05 0 0 1 0 4.314zm-1.377-2.863L24.721 9.292a1.02 1.02 0 0 0-1.443 0L10.292 22.278a1.02 1.02 0 0 0 0 1.443l12.986 12.986a1.02 1.02 0 0 0 1.443 0l12.986-12.986a1.02 1.02 0 0 0 0-1.443zM31 26a3 3 0 1 1 0-6 3 3 0 0 1 0 6zm0-4a1 1 0 1 0 0 2 1 1 0 0 0 0-2zm-7 11a3 3 0 1 1 0-6 3 3 0 0 1 0 6zm0-4a1 1 0 1 0 0 2 1 1 0 0 0 0-2zm0-10a3 3 0 1 1 0-6 3 3 0 0 1 0 6zm0-4a1 1 0 1 0 0 2 1 1 0 0 0 0-2zm-7 11a3 3 0 1 1 0-6 3 3 0 0 1 0 6zm0-4a1 1 0 1 0 0 2 1 1 0 0 0 0-2z"/></symbol><symbol viewBox="0 0 24 24" id="icon-darts" xmlns="http://www.w3.org/2000/svg"><path fill-rule="evenodd" clip-rule="evenodd" fill="#FFF" d="M12 1c6.1 0 11 4.9 11 11s-4.9 11-11 11S1 18.1 1 12 5.9 1 12 1z"/><path fill-rule="evenodd" clip-rule="evenodd" fill="#F04F2F" d="m14 4.8 3-3 2 2 1 1 3 1-4 4-4-1-1-4z"/><path fill-rule="evenodd" clip-rule="evenodd" fill="#2A2D30" d="m23.5 8.5-1.7 1.7c.1.6.2 1.2.2 1.8 0 5.5-4.5 10-10 10S2 17.5 2 12 6.5 2 12 2c.7 0 1.4.1 2.1.2L15.7.6C14.5.2 13.3 0 12 0 5.4 0 0 5.4 0 12s5.4 12 12 12 12-5.4 12-12c0-1.2-.2-2.4-.5-3.5zm-9.4.1-3.1 3 1.4 1.4 3.1-3.1 3.1 1L24 5.5l-4.1-1.4L18.5 0 13 5.5l1.1 3.1zm3.8-5.2.6 2.1 2.1.6L18 8.7l-2.1-.6-.6-2.1 2.6-2.6zM12 4c-4.4 0-8 3.6-8 8s3.6 8 8 8 8-3.6 8-8l-2 2-.2-.2C17 16.2 14.7 18 12 18c-3.3 0-6-2.7-6-6 0-2.7 1.8-5 4.2-5.7l-.1-.1L12.3 4H12z"/></symbol><symbol viewBox="0 0 839 835" id="icon-dota" xmlns="http://www.w3.org/2000/svg"><path fill="#b41c1e" d="M835 272c-1.35 14.628-21.39 15.396-23 19-1.61 3.603 4 16 4 16l-16 22c1.046 5.051 13.362 23.021 16 27 9.734 14.68 11.91 36.427 10 55-2.19 21.294-3 50-3 50-15.89 5.852-15 13-15 13h28v43c5.23 9.204 0 24 0 24l-.682 183.968c-.045 12.247 1.72 23.516 1.682 34.032-.113 30.479-2 52-2 52-45.962-24.917-88-15-88-15l1 7h7l2 7c-14.43-.489-16 5-16 5s-23.824-1.539-59-2c-40.132-.526-48-10-48-10-14.107 10.946-25.816 9.187-37 10-11.185.813-17.372 3.149-35 2-17.629-1.149-59.142-.326-75 1-15.859 1.326-32.938 12.82-42 16-9.062 3.18-15-12-15-12-10.923 7.427-25.974-.376-34-3s-15.567-2.182-19 3c-3.434 5.182-15 15-15 15-18.652-13.24-25-34-25-34-9.055-1.332-16 7-16 7-5.866-5.962-33.096-5.086-36-5-2.904.086-5.528-3.284-9-5-3.473-1.716-53.516 3.75-63 4-9.484.249-15.774-2.67-22.164-3.604-5.358-.782-11.178.961-20.836 1.604-9.45.629-8.865-2.9-15-3-6.135-.1-7.793 2.359-17 3-15.604.641-44.664-3.732-54-1-32.516 6.337-75.142-1.187-76-10-.461-4.733 3.789-21.15 5-37 1.044-13.666-.845-26.796-2-33-2.495-13.4-1.626-57.8-2-69-.374-11.2 16-27 16-27s10.239-76.665 4-83c-6.24-6.335-17.366-4.887-19-34-1.176-20.964-3-70-3-70 30.194-1.208 24-41 24-41s-3.145-7.767-12-19-.777-34.093 0-56c.777-21.907-8.143-47.782-14-63-2.307-5.993-1.47-14.588-2-19-.817-6.791-2.257-9.71-3-25-.68-13.996 9.384-46.14 13-80 2.9-27.166-.096-56.767-3-69-6.523-27.48 4-47 4-47 12.783 2.442 31 1 31 1 34.188-3.914 148 1 148 1 .969-1.99 21.91-1.491 25 1 3.09 2.49 4 6 4 6 3.64 3.481 76 2 76 2s24.565-11.655 34-16c9.435-4.345 12-11 12-11s1.182-.247 11 1c9.817 1.247 19.741-3.81 26-1s39 1 39 1c25.283-4.004 54 1 54 1s-6.258 8.067-7 11c-.743 7.092 34 5 34 5 .349 16.088 14.66 20.753 26 17s22-5 22-5-.868-14.989 4-22c8.143-11.65 48.343-3.359 60-4 40.036-.368 98.312 5.032 100 8 1.687 2.967 5 17 5 17 5.534-2.214 11.544-7.829 13-12 2.358-6.757 11.314-8.11 13-5 3.112 5.74 12 5 12 5 48.47.344 51.79.256 58 7 6.209 6.744 19 9 19 9s.399 5.533 2 14c1.6 8.467-1.371 14.06-3 20-1.63 5.94-3.117 14.16-1 21 9.088 28.981 5.35 168.372 4 183zM110 645c3.634 4.821 14.941 7.066 17 12 2.059 4.934 11.315 7.696 28 22 16.685 14.304 11.921 15.785 51 15 39.079-.785 41.167-12.216 52-14 10.833-1.784 27.432-4.903 38-10 10.568-5.097 30-11 30-11-.297-8.668-57.286-53.369-80-77-22.714-23.632-87-84-87-84s-43.718 98.716-50 113c-6.282 14.284-2.634 29.179 1 34zm571-469c-6.873-2.187-58-33-58-33-20.85 9.331-125 35-125 35 3.906 7.468 74.62 64.392 104 83 29.38 18.608 46.718 34.103 51 35 4.282.897 13.423-1.112 13-8-.208-25.175 4.726-41.09 11-63 6.274-21.91 4-49 4-49zm38 336c-7.77-7.185-30.186-20.498-36-26-5.815-5.502-10-7-10-7s-10.02.056-17-6-16.087-14.583-25-21-324-216-324-216-19.108-6.819-22-10c-2.892-3.181-2.117-4.702-6-7s-23.262-6.963-30-18c-4.18-6.944-4-11-4-11s-63.48-38.478-68-43c-4.52-4.522-10.844-10.338-24-8-13.156 2.338-27.604 10.567-38 14s-21 5-21 5 3.817 7.402 5 12c1.183 4.598 102.153 100.56 117 121 7.506 10.333 44.661 45.06 80 81 34.565 35.154 67.346 71.566 73 79 11.433 15.035 13.357 6.691 38 38s51 51 51 51 10.91 4.997 17 17 81 88 81 88 16.86 25.8 31 32c14.14 6.2 90.728 14.303 101 8 4.781-2.934 15.902-21.74 26.948-48.181 6.946-16.626 12.759-40.206 18.052-60.82 4.374-17.034 8.743-30.795 10-48 0 0-16.231-8.814-24-15.999z"/></symbol><symbol viewBox="0 0 33 40" class="axIcon_icon__w6Pjo" id="icon-fire" xmlns="http://www.w3.org/2000/svg"><path d="M24.405 39.997c-.428 0-.826-.27-.964-.693a.994.994 0 0 1 .655-1.254c3.702-1.17 6.825-7.335 6.825-10.586 0-4.084-2.28-8.047-7.175-12.471-4.602-4.16-6.7-7.418-6.6-10.255.015-.399.073-.787.176-1.164-3.126 1.844-5.622 4.635-4.956 8.064.485 2.497 1.37 3.581 2.152 4.538.767.938 1.559 1.907 1.427 3.733-.108 1.481-.96 2.616-2.402 3.195-1.894.762-4.69.438-5.983-.69-1.15-1.004-1.769-2.226-1.831-3.517-2.18 2.14-3.732 5.761-3.732 9.166 0 2.801 1.722 5.583 5.264 8.505a.987.987 0 0 1 .126 1.405 1.023 1.023 0 0 1-1.426.124c-4.03-3.324-5.99-6.606-5.99-10.034 0-5.278 2.993-10.624 6.961-12.433.4-.182.873-.089 1.17.23a.985.985 0 0 1 .136 1.168c-1.05 1.82-.218 3.122.665 3.893.586.511 2.555.865 3.875.336.73-.293 1.094-.767 1.147-1.49.075-1.044-.279-1.477-.984-2.34-.837-1.025-1.984-2.43-2.564-5.414C9.245 6.186 14.818 1.986 19.935.16c.466-.168.987.024 1.229.45a.988.988 0 0 1-.252 1.267c-1.134.89-1.704 1.85-1.742 2.93-.075 2.15 1.925 5.083 5.946 8.716 5.342 4.828 7.83 9.259 7.83 13.941 0 3.888-3.534 11-8.231 12.485a1.02 1.02 0 0 1-.31.048zm-2.92-.824a1.02 1.02 0 0 1-.634-.22.987.987 0 0 1-.156-1.401c2.56-3.14 1.974-5.153 1.233-7.701-.316-1.089-.66-2.27-.724-3.585-1.258 1.199-1.73 2.543-2.114 3.925-.754 2.717-3.171 4.786-5.622 4.813-1.692.027-2.783-.81-3.517-1.78-.063 1.9.998 3.097 2.213 4.227a.987.987 0 0 1 .04 1.41 1.023 1.023 0 0 1-1.43.04c-1.367-1.27-4.213-3.916-2.06-8.989a1.02 1.02 0 0 1 1.898.082c.864 2.667 1.86 2.996 2.833 3.015 1.528-.017 3.185-1.517 3.692-3.344.586-2.11 1.485-4.516 4.755-6.362a1.027 1.027 0 0 1 1.106.064.99.99 0 0 1 .385 1.023c-.415 1.793.026 3.308.492 4.911.757 2.604 1.615 5.555-1.6 9.5-.2.245-.495.372-.79.372z"/></symbol><symbol viewBox="0 0 24 24" id="icon-fist" xmlns="http://www.w3.org/2000/svg"><path fill-rule="evenodd" clip-rule="evenodd" fill="#E6C792" d="M1 17s3-1.7 3-3-2.1-3 0-6 3.2-3.9 4-4 1.8-.6 2-1 2.2-2.1 3-2c.8.1 2.2 1.6 3 2s2.7.2 3 1c.3.8.4 1.9 1 2s2.1 0 2 1c-.1 1-.6 1.7 0 2 .6.3 1 2.1 1 2 0-.1.2 2.2-2 4-2.2 1.8-3.9 3.3-5 4s-2.8.6-5 2-3 3-3 3l-7-7z"/><path fill-rule="evenodd" clip-rule="evenodd" fill="#2A2D30" d="M22.5 7.9s-.2-1.3-1.2-2.5-1.9-.9-1.9-.9.1-.8-.9-1.6S16 2 16 2 14.5.2 12.8 0c-1.7-.2-2.5 1-3.7 2.5-1.3 1.5-2.3.6-3.8 2-1.5 1.3-1.5 1.8-2.8 4.4-1.3 2.6.3 5.1.3 5.1L0 17.1l1.2 1.1L5.3 14l-.9-1.3s-.9-1.5-.2-2.9l.7-1.4c.7-1.3.8-1.6 1.7-2.3.3-.3.5-.3 1-.4.2 0 .5-.1.8-.2.7 0 1.7.1 2.6.3 1.4.5.3.3 1.2 1.9.9 1.6 2.5-.2 3.1 0 .6.2-.8 2.9-2.5 2.9-1.7-.1-2.4-.4-2.8-1.9-.4-1.7-.9-1.2-1.3.2s1.5 1.7 1.9 2.5c.4.9.6 3.2.6 3.2s.3-.5.6-1.3 1.6-1.6 1.6-1.6 0 .9.9 1.6c.9.7 1.9.3 1.9.3s.2.8.6 1.6c.2.4.8.7 1.4.9-1.2 1.1-2.3 1.9-2.8 2.2-.2.1-.6.1-.9.1-1.3.1-3.1.3-4.5 1.7-.4.4-1.8 2.1-3 3.4l.6.5h2c.5-.6 1.2-1.4 2-2.1 1.5-1.5 4-.9 5-1.6 1-.7 2.8-2.1 4.4-3.8 1.6-1.7 3.1-3.1 3.1-5.1-.1-1.9-1.6-3.5-1.6-3.5zm-9.4-2.5-3.1-1c.2-.2.4-.3.6-.6.2-.2.3-.4.5-.6.7-.8 1.1-1.2 1.4-1.2h.1c.6.1 1.5.8 1.9 1.2l.3.3-1.7 1.9zm.9.6 1.5-2.1h.3c.3 0 1.1.2 1.5.5.1 0 .1.1.1.1l.6.6L16.2 7 14 6zm1.6 6.7c-.8-.3-1.5-1.1-1.2-1.6.3-.5.7-.5 1.9-1.9.9-1 2.1-2.5 2.7-3.3l.8.6s.1.1.1.2c.3.3.4.6.6.9-.2.5-.5 1.1-.7 1.6-.9 1.2-3.4 3.8-4.2 3.5zm4.3 1.9-.3.3c-1.2.1-2.1-1.6-2.1-1.6s.3-.3 1.5-1.3c.7-.6 1.6-1.9 2.1-2.8l.1.1c.2.2 1 1.1 1 2 0 1-1.1 2-2.3 3.3z"/></symbol><symbol viewBox="0 0 24 24" id="icon-football" xmlns="http://www.w3.org/2000/svg"><path fill-rule="evenodd" clip-rule="evenodd" fill="#FFF" d="M12 1c6.1 0 11 4.9 11 11s-4.9 11-11 11S1 18.1 1 12 5.9 1 12 1z"/><path fill-rule="evenodd" clip-rule="evenodd" fill="#2A2D30" d="M12 0C5.4 0 0 5.4 0 12s5.4 12 12 12 12-5.4 12-12S18.6 0 12 0zm7.1 15.6 1.2 2c-1 1.5-2.5 2.7-4.2 3.5l-.8-1.4h-4.9l-1.1 1.9c-2.4-.7-4.4-2.3-5.7-4.3L5 14.8l-2.5-4.3h-.4c.3-1.7.9-3.2 2-4.6h2.4l1.9-3.2C9.5 2.3 10.7 2 12 2c.9 0 1.7.1 2.5.3l2.1 3.6H20c1.2 1.5 1.9 3.4 2 5.4h-.4l-2.5 4.3zm-9.6-8L7 11.9l2.5 4.3h4.9l2.5-4.3-2.5-4.3H9.5z"/></symbol><symbol viewBox="0 0 24 24" id="icon-foothall" xmlns="http://www.w3.org/2000/svg"><path fill-rule="evenodd" clip-rule="evenodd" fill="#FE8727" d="M12.1 1c6.1 0 11 4.9 11 11s-4.9 11-11 11-11-4.9-11-11S6 1 12.1 1z"/><path fill-rule="evenodd" clip-rule="evenodd" fill="#2A2D30" d="M12 0C5.4 0 0 5.4 0 12s5.4 12 12 12 12-5.4 12-12S18.6 0 12 0zm7.1 16 1.2 1.9c-1 1.5-2.5 2.8-4.2 3.5l-.9-1.4h-4.9l-1.1 1.7c-2.4-.7-4.4-2.3-5.7-4.4L4.9 15l-2.4-4h-.4c.3-2 .9-3 2-5h2.4l1.9-3.3C9.5 2.3 10.7 2 12 2c.9 0 1.7.1 2.5.3L16.6 6H20c1.2 2 1.9 4 2 6h-.4l-2.5 4zM9.5 8 7 12.5 9.5 17h4.9l2.5-4.5L14.5 8h-5z"/></symbol><symbol viewBox="0 0 24 24" id="icon-formula-1" xmlns="http://www.w3.org/2000/svg"><path fill-rule="evenodd" clip-rule="evenodd" fill="#FFF" d="M4.1 3h17v11h-17V3z"/><path fill-rule="evenodd" clip-rule="evenodd" fill="#2A2D30" d="M22 15V2H5V0H3v22H1v2h6v-2H5v-7h17zM5 10h3V7H5V4h3v3h3V4h3v3h3V4h3v3h-3v3h3v3h-3v-3h-3v3h-3v-3H8v3H5v-3zm9 0V7h-3v3h3z"/></symbol><symbol viewBox="0 0 24 24" id="icon-gand" xmlns="http://www.w3.org/2000/svg"><path fill-rule="evenodd" clip-rule="evenodd" fill="#FFD617" d="M11.9 1c6.1 0 11 4.9 11 11s-4.9 11-11 11-11-4.9-11-11 4.9-11 11-11z"/><path fill-rule="evenodd" clip-rule="evenodd" fill="#2A2D30" d="M12 0C5.4 0 0 5.4 0 12s5.4 12 12 12 12-5.4 12-12S18.6 0 12 0zm3.5 4-1.7 3h-3.6L8.5 4l.9-1.7c.9-.2 1.7-.3 2.6-.3.9 0 1.7.1 2.5.3l1 1.7zM12 22c-.9 0-1.7-.1-2.5-.3l-1-1.7 1.7-3h3.6l1.7 3-.9 1.7c-.9.2-1.7.3-2.6.3zM8.5 12l1.7-3h3.6l1.7 3-1.7 3h-3.6l-1.7-3zM2 12c0-3.3 1.6-6.2 4-8l2.4 4L6 12l2.4 4L6 20c-2.4-1.8-4-4.7-4-8zm16 8-2.4-4 2.4-4-2.4-4L18 4c2.4 1.8 4 4.7 4 8s-1.6 6.2-4 8z"/></symbol><symbol viewBox="0 0 20 20" class="bdIcon_icon__w6Pjo" id="icon-geer" xmlns="http://www.w3.org/2000/svg"><path d="M10 6c-2.2 0-4 1.8-4 4s1.8 4 4 4 4-1.8 4-4-1.8-4-4-4zm0 6c-1.1 0-2-.9-2-2s.9-2 2-2 2 .9 2 2-.9 2-2 2zm9.5-3.9-1.3-.6c0-.2-.1-.3-.2-.5l.7-1.2c.2-.3.2-.6 0-.9-.4-.7-.8-1.3-1.3-1.8-.2-.2-.6-.4-.9-.3l-1.3.3c-.1-.1-.3-.2-.4-.3l-.1-1.4c0-.3-.2-.6-.5-.7-.7-.3-1.4-.5-2.1-.7-.3-.1-.7 0-.9.3l-.9 1.1h-.5l-1-1C8.6.1 8.3 0 8 .1c-.8.1-1.5.4-2.2.7-.3.1-.5.4-.5.7l-.1 1.4c-.1.1-.3.2-.4.3l-1.3-.3c-.3-.1-.7 0-.9.3-.5.5-1 1.1-1.3 1.8-.2.3-.2.6 0 .9L2 7.1c-.1.2-.1.3-.2.5l-1.3.5c-.3.2-.5.5-.5.9v2c0 .4.2.7.5.8l1.3.6c0 .2.1.3.2.5l-.7 1.2c-.2.3-.2.6 0 .9.4.7.8 1.3 1.3 1.8.2.2.6.4.9.3l1.3-.3c.1.1.3.2.4.3l.1 1.4c0 .3.2.6.5.7.7.3 1.4.5 2.1.7.3.1.7 0 .9-.3l.9-1.1h.4l.9 1.1c.2.2.4.3.7.3h.2c.7-.2 1.4-.4 2.1-.7.3-.1.5-.4.5-.7l.1-1.4c.1-.1.3-.2.4-.3l1.3.3c.3.1.7 0 .9-.3.5-.6.9-1.2 1.3-1.8.2-.3.2-.6 0-.9l-.5-1.2c.1-.2.1-.3.2-.5l1.3-.6c.3-.1.5-.5.5-.8V9c0-.4-.2-.7-.5-.9zM18 10.3l-1.5.7-.3.9c0 .1-.1.3-.1.4l-.3.9.8 1.4c-.1.2-.2.3-.3.5l-1.6-.4-.7.5c-.1.1-.2.2-.3.2l-.8.6-.2 1.7c-.2.1-.3.1-.5.2l-1.1-1.3H8.9l-1.1 1.3c-.2-.1-.4-.1-.5-.2L7.1 16l-.8-.5c-.1-.1-.2-.1-.3-.2l-.7-.6-1.6.3c-.1-.2-.2-.3-.3-.5l.8-1.4-.3-.9c0-.1-.1-.3-.1-.4l-.3-.8-1.5-.7v-.6L3.5 9l.3-.9c0-.1.1-.3.1-.4l.3-.9-.9-1.4c.1-.1.2-.3.4-.4l1.6.4.7-.6c.1-.1.2-.2.3-.2l.8-.6.2-1.7c.2-.1.3-.1.5-.2l1.1 1.3h2.3l1.1-1.3c.2.1.4.1.5.2l.1 1.7.8.5c.1.1.2.2.3.2l.7.6 1.6-.3c.1.2.2.3.3.5l-.8 1.4.3.9c0 .1.1.3.1.4l.3.8 1.5.7v.6z"/></symbol><symbol viewBox="0 0 512 512" class="beIcon_icon__w6Pjo" id="icon-global" xmlns="http://www.w3.org/2000/svg"><circle cx="256" cy="256" r="256" fill="#258e9c"/><path d="M255.8 101C170.3 101 101 170.4 101 256s69.3 155 154.8 155c85.7 0 155.2-69.4 155.2-155s-69.4-155-155.2-155zm107.5 93h-45.7c-5-19.4-12.1-38-21.4-55.2 28.5 9.8 52.2 29.6 67.1 55.2zM256 132.6c12.9 18.6 22.9 39.2 29.6 61.4h-59.2c6.7-22.2 16.7-42.8 29.6-61.4zM136 287c-2.5-9.9-4-20.3-4-31s1.6-21.1 4-31h52.4c-1.2 10.2-2.2 20.5-2.2 31s.9 20.8 2.2 31H136zm12.7 31h45.7c5 19.4 12.1 38 21.4 55.2-28.5-9.8-52.2-29.5-67.1-55.2zm45.8-124h-45.7c14.9-25.7 38.6-45.4 67.1-55.2-9.3 17.2-16.5 35.8-21.4 55.2zM256 379.4c-12.9-18.6-22.9-39.2-29.6-61.4h59.2c-6.7 22.2-16.7 42.8-29.6 61.4zm36.3-92.4h-72.5c-1.4-10.2-2.5-20.5-2.5-31s1.1-20.9 2.5-31h72.5c1.4 10.1 2.5 20.5 2.5 31s-1.1 20.8-2.5 31zm3.8 86.2c9.3-17.2 16.4-35.8 21.4-55.2h45.7c-14.8 25.6-38.5 45.4-67.1 55.2zm27.5-86.2c1.2-10.2 2.2-20.5 2.2-31s-.9-20.8-2.2-31H376c2.5 9.9 4 20.3 4 31s-1.6 21.1-4 31h-52.4z" fill="#fff"/></symbol><symbol viewBox="0 0 20 20" class="bfIcon_icon__w6Pjo" id="icon-guard" xmlns="http://www.w3.org/2000/svg"><path d="m13.7 5.9-5 4.1-2-1.5-1.5 1.3 3.4 3.8 6.1-6.2-1-1.5zM10 0 0 4.2S.7 20 10 20 20 4.2 20 4.2L10 0zm0 18C4.1 18 2.5 9 2.1 5.5L10 2.2l7.9 3.3C17.5 9 15.9 18 10 18z"/></symbol><symbol viewBox="0 0 24 24" id="icon-helsk-football" xmlns="http://www.w3.org/2000/svg"><path fill-rule="evenodd" clip-rule="evenodd" fill="#FFF" d="M12 1c6.1 0 11 4.9 11 11s-4.9 11-11 11S1 18.1 1 12 5.9 1 12 1z"/><path fill-rule="evenodd" clip-rule="evenodd" fill="#2A2D30" d="M20.5 3.5c-4.7-4.7-12.3-4.7-17 0-4.7 4.7-4.7 12.3 0 17s12.3 4.7 17 0 4.7-12.3 0-17zm-1.4 1.4c2.3 2.3 3.3 5.5 2.8 8.5l-.8-.8c.5-1.1.4-2.5-.6-3.4-.4-.4-.8-.6-1.3-.8.2-1 0-2-.8-2.8-.8-.8-1.8-1-2.8-.8-.1-.5-.4-.9-.8-1.3-.9-.9-2.3-1.1-3.4-.6l-.8-.8c3-.4 6.2.5 8.5 2.8zm-12.4 11 9.2-9.2c.2-.2.5-.2.7 0l.7.7c.2.2.2.5 0 .7l-1.1 1.1-7.1 7.1L8 17.4c-.2.2-.5.2-.7 0l-.7-.7c-.1-.3-.1-.6.1-.8zM6 13.8c-.2.2-.5.2-.7 0l-.7-.8c-.2-.2-.2-.5 0-.7l6.7-6.7 1.1-1.1c.2-.2.5-.2.7 0l.7.7c.2.3.2.6 0 .8L6 13.8zm4.2 4.2 7.8-7.8c.2-.2.5-.2.7 0l.7.7c.2.2.2.5 0 .7l-7.8 7.8c-.2.2-.5.2-.7 0l-.7-.7c-.2-.2-.2-.5 0-.7zM8.4 2.7l1.5 1.5-2.1 2.1-2.1-2c.8-.7 1.7-1.2 2.7-1.6zm-4.1 3 2.1 2.1-2.2 2.1-1.5-1.6c.4-.9.9-1.8 1.6-2.6zm.6 13.4c-2.3-2.3-3.2-5.5-2.8-8.5l.8.8c-.5 1.1-.3 2.5.6 3.4.4.4.8.6 1.3.8-.2 1 0 2 .8 2.8.8.8 1.8 1 2.8.8.1.5.4.9.8 1.3.9.9 2.3 1.1 3.4.6l.8.8c-3 .4-6.2-.5-8.5-2.8zm10.8 2.2-1.5-1.5 2.1-2.1 2.1 2.1c-.9.6-1.8 1.1-2.7 1.5zm4-3-2.1-2.1 2.1-2.1 1.5 1.5c-.3 1-.8 1.9-1.5 2.7z"/></symbol><symbol viewBox="0 0 24 24" id="icon-herling" xmlns="http://www.w3.org/2000/svg"><path d="m1 4.8 2.7-2.7s8.4 7.9 12 11.1c.7.7-2.8 3.4-3 3.3L3.9 6.4l-2-.7z" fill="#f7a254"/><path d="M23.7 16.3c-.4-1.3-1.3-2.2-2.2-2.4-.7-.1-1.4 0-2 0-.8.1-1.3.2-1.8-.2-.9-.6-8.5-7.7-13.3-12.3C4 1 3.3 1 3 1.4L.3 4.1c-.4.4-.4 1 0 1.4l.9.9c.1.1.2.2.4.3l1.7.6 8.5 9.8c0 .1.1.2.1.4.3 1.4 1 4.2 2.8 5.5.8.6 1.9.9 3 .9 1.9 0 3.9-.9 4.9-1.9 1.6-1.8 1.6-4.1 1.1-5.7zM2.5 4.9l1.2-1.3c.3.3.8.7 1.3 1.2l-.7.7h-.1zM5.7 7l.8-.8c2.6 2.4 6 5.6 8.1 7.6L13 15.3zm15.4 13.6c-.9.9-3.7 1.8-5.2.8-1.1-.8-1.7-3.1-2-4.2l2.2-2.2c.2.2.3.3.4.3 1.1.8 2.3.7 3.2.5.5-.1.9-.1 1.3-.1.1 0 .5.4.7 1.2.3.7.6 2.4-.6 3.7z"/><path d="M19.1 12c-1.9 0-3.5-1.6-3.5-3.5S17.2 5 19.1 5s3.5 1.6 3.5 3.5-1.5 3.5-3.5 3.5zm0-5c-.8 0-1.5.7-1.5 1.5s.7 1.5 1.5 1.5 1.5-.7 1.5-1.5S20 7 19.1 7z"/></symbol><symbol viewBox="0 0 24 24" id="icon-hockey" xmlns="http://www.w3.org/2000/svg"><path fill-rule="evenodd" clip-rule="evenodd" fill="#A9B3C0" d="M12 1c6.1 0 11 4.9 11 11s-4.9 11-11 11S1 18.1 1 12 5.9 1 12 1z"/><path fill-rule="evenodd" clip-rule="evenodd" fill="#505A66" d="M12 23C5.9 23 1 18.5 1 12.9V12c.5.5 4.4 4.5 11 4.5 6.2 0 10.1-4.3 10.8-5.3.1.5.2 1.1.2 1.6C23 18.5 18.1 23 12 23z"/><path fill-rule="evenodd" clip-rule="evenodd" fill="#2A2D30" d="M24 8.5C24 3.8 18.6 0 12 0S0 3.8 0 8.5v7C0 20.2 5.4 24 12 24s12-3.8 12-8.5v-7zm-2 7.2c-.2 3.5-4.6 6.3-10 6.3s-9.8-2.8-10-6.3v-2.5C4.1 15.5 7.8 17 12 17s7.9-1.5 10-3.8v2.5zM12 15C6.5 15 2 12.1 2 8.5S6.5 2 12 2s10 2.9 10 6.5S17.5 15 12 15z"/></symbol><symbol viewBox="0 0 20 17" class="bjIcon_icon__w6Pjo" id="icon-house" xmlns="http://www.w3.org/2000/svg"><path d="M19.697 10.704a1.01 1.01 0 0 1-1.428 0L17 9.434V15a2 2 0 0 1-2 2H5a2 2 0 0 1-2-2V9.403l-1.3 1.3A1.01 1.01 0 1 1 .27 9.276l9-9.005a1.01 1.01 0 0 1 1.428 0L15 4.575V2a1 1 0 0 1 2 0v4.576l2.697 2.699a1.01 1.01 0 0 1 0 1.429zm-9.713-8.29L5 7.403V15h2v-4a2 2 0 0 1 2-2h2a2 2 0 0 1 2 2v4h2V7.433zM11 11H9v4h2z"/></symbol><symbol viewBox="0 0 24 24" style="enable-background:new 0 0 24 24" xml:space="preserve" id="icon-kricket" xmlns="http://www.w3.org/2000/svg"><path fill="#E8B71A" d="M20.2 23c-.2 0-.3-.1-.4-.2-.1-.1-.2-.2-.2-.4s.1-.3.2-.4l.7-.7-.7-.7-4.5-4.5c-.4-.4-.9-.5-1.5-.5-.7 0-1.4.2-2.1.3-.4.1-.9.2-1.1.2h-.3L1.1 6.9l5.8-5.8 9.2 9.2c0 .1-.1.3-.1.5-.4 1.6-.9 3.5.2 4.6l5.2 5.2.7-.7c.1-.1.3-.2.4-.2s.3.1.4.2c.1.1.2.2.2.4s-.1.3-.2.4l-2.2 2.2c-.2 0-.3.1-.5.1z"/><path d="m6.9 2.5 8.1 8.1c-.3 1.2-.7 2.8-.3 4.1-.3-.1-.5-.1-.8-.1-.8 0-1.6.2-2.3.4-.2.1-.6.1-.8.2L2.5 6.9l4.4-4.4m0-2.5c-.2 0-.4.1-.6.2L.2 6.3c-.3.3-.3.8 0 1.1l9.7 9.7h.6c.7 0 2.2-.6 3.2-.6.3 0 .6.1.8.2l4.5 4.5c-.6.6-.6 1.6 0 2.2.3.3.7.5 1.1.5s.8-.2 1.1-.5l2.2-2.2c.6-.6.6-1.6 0-2.2-.3-.3-.7-.5-1.1-.5-.4 0-.8.2-1.1.5l-4.5-4.5c-.9-.9.1-3.4.4-4.6L7.4.2C7.3.1 7.1 0 6.9 0z"/><circle fill="#E5421C" cx="6.5" cy="17.5" r="5.5"/><path d="M6.5 13C9 13 11 15 11 17.5S9 22 6.5 22 2 20 2 17.5 4 13 6.5 13m0-2C2.9 11 0 13.9 0 17.5S2.9 24 6.5 24s6.5-2.9 6.5-6.5S10.1 11 6.5 11z"/><path fill="#E5421C" d="M11.7 15.5c-1.2 1.6-3.1 2.6-5.2 2.6-2.2 0-4.2-1.1-5.3-2.8"/><path d="M6.5 19.1c-2.5 0-4.8-1.2-6.2-3.2L2 14.7c1 1.5 2.7 2.4 4.5 2.4 1.7 0 3.3-.8 4.4-2.2l1.6 1.2c-1.4 1.9-3.6 3-6 3z"/></symbol><symbol fill="none" viewBox="0 0 80 80" id="icon-lol" xmlns="http://www.w3.org/2000/svg"><path d="M40.19 80c19.988 0 36.191-16.203 36.191-36.19 0-19.988-16.203-36.191-36.19-36.191C20.203 7.62 4 23.822 4 43.809 4 63.798 20.203 80 40.19 80z" fill="#FF9C00"/><path d="M40.19 76.19c17.884 0 32.381-14.497 32.381-32.38 0-17.884-14.497-32.381-32.38-32.381-17.884 0-32.381 14.497-32.381 32.38 0 17.884 14.497 32.382 32.38 32.382z" fill="#01579B"/><path d="M59.238 55.238c1.747 5.556-4.127 9.61-8.73 9.61-2.518 0-5.634-.96-6.508-3.896a65.76 65.76 0 0 0-7.619 4.797v2.822h24.6a32.4 32.4 0 0 0 8.897-11.847c-1.628-.61-4.948-1.486-10.64-1.486zM64.12 22.04a42.069 42.069 0 0 0-15.337 8.354c-1.68 5.1-5.703 10.715-12.402 15.32v13.334s5.326-9.732 17.937-12.7a107.397 107.397 0 0 1 18.25-2.64A32.202 32.202 0 0 0 64.12 22.04z" fill="#0277BD"/><path d="M60.989 19.034a32.486 32.486 0 0 0-5.884-3.948c-2.12.98-4.774 2.33-7.295 3.962 1.198 1.499 1.822 3.504 1.876 5.79a45.616 45.616 0 0 1 11.303-5.804z" fill="#0091EA"/><path d="M40.19 72.381c15.78 0 28.572-12.792 28.572-28.571 0-15.78-12.792-28.572-28.572-28.572S11.62 28.03 11.62 43.81s12.791 28.57 28.57 28.57z" fill="#0277BD"/><path d="M50.775 17.288a49.816 49.816 0 0 0-2.965 1.76c1.198 1.499 1.822 3.504 1.876 5.79a46.278 46.278 0 0 1 7.245-4.148 28.446 28.446 0 0 0-6.156-3.402z" fill="#00B0FF"/><path d="M68.762 43.81c0-7.981-3.278-15.189-8.554-20.372-5.476 2.248-9.436 5.23-11.427 6.956-1.678 5.1-5.7 10.715-12.4 15.32v13.334s5.326-9.732 17.937-12.7a108.38 108.38 0 0 1 14.434-2.35c0-.063.01-.124.01-.189z" fill="#0091EA"/><path d="M69.663 64.762h-12.33v3.81h9.2a36.162 36.162 0 0 0 3.13-3.81zm-54.234 5.39a36.397 36.397 0 0 0 3.81 3.13V14.337a36.394 36.394 0 0 0-3.81 3.13v52.685z" fill="#B3831D"/><path d="M15.429 64.653a32.643 32.643 0 0 0 3.81 3.82V19.144a32.64 32.64 0 0 0-3.81 3.819v41.69z" fill="#01579B"/><path d="M13.524 0H36.38v68.571h38.095L64.952 80H13.524l5.714-7.619V7.619L13.524 0z" fill="#FFC107"/><path d="M40.19 64.762V11.429c-1.29 0-2.558.097-3.809.243v56.9h24.653a32.63 32.63 0 0 0 3.82-3.81H40.19z" fill="#01579B"/><path d="M40.19 42.657a32.551 32.551 0 0 1-3.809 3.057v13.334s1.211-2.189 3.81-4.802V42.657z" fill="#0277BD"/><path d="M36.38 68.571V0h-3.809v72.381h38.73l3.175-3.81H36.381z" fill="#FF9C00"/><path d="M59.238 55.238c1.747 5.556-4.127 9.61-8.73 9.61-2.518 0-5.634-.96-6.508-3.896a65.76 65.76 0 0 0-7.619 4.797v2.822h18.023a28.647 28.647 0 0 0 11.714-12.813c-1.75-.297-4.013-.52-6.88-.52z" fill="#0091EA"/><path d="M63.712 66c.374-.392.698-.829 1.05-1.238H51.638c-.38.051-.76.086-1.13.086-.398 0-.81-.035-1.226-.086h-9.091V63.17a69.448 69.448 0 0 0-3.81 2.579v2.822h24.6a33.372 33.372 0 0 0 2.701-2.539l.03-.032z" fill="#0277BD"/></symbol><symbol viewBox="0 0 40 41" class="bnIcon_icon__w6Pjo" id="icon-new" xmlns="http://www.w3.org/2000/svg"><path d="m20.375 40.902-3.183-2.418-3.763 1.312-2.173-3.375-3.982-.068-.9-3.924-3.718-1.442.479-4-3.007-2.642 1.803-3.593-1.932-3.522 2.906-2.753-.625-3.98 3.663-1.58.758-3.955 3.974-.217 2.049-3.455 3.808 1.171 3.092-2.537 3.184 2.42 3.763-1.314 2.173 3.376 3.98.067.903 3.925 3.717 1.442-.479 4 3.006 2.642-1.802 3.593 1.932 3.522-2.906 2.753.625 3.98-3.663 1.58-.758 3.955-3.974.217-2.049 3.455-3.809-1.171zm-2.832-4.68 2.786 2.116 2.705-2.22 3.331 1.026 1.793-3.022 3.477-.19.663-3.461 3.204-1.383-.547-3.48 2.543-2.409-1.69-3.082 1.576-3.144-2.63-2.31.42-3.5-3.252-1.262-.79-3.433-3.482-.06-1.902-2.953-3.291 1.15-2.786-2.117-2.706 2.22-3.33-1.025-1.793 3.022-3.478.19-.662 3.46-3.204 1.384.547 3.48-2.544 2.409 1.69 3.082-1.575 3.144 2.63 2.31-.42 3.5 3.253 1.261.789 3.433 3.482.06 1.902 2.953zm3.39-15.13H18.56v2.526h3.494v2.022h-5.491V14.522h5.491v2.022H18.56v2.526h2.371zm-11.36 4.674H7.576V14.522h2.449l3.168 7.181v-7.307h1.997V25.64h-2.448l-3.168-7.18zm22.467-.126h-2.437l-1.932-3.62-1.93 3.62h-2.438V14.396H25.3v7.812l2.371-4.444 2.371 4.444v-7.812h1.998zm-11.67 6.823c-1.98 0-3.894-.413-5.688-1.227l.817-1.845a11.872 11.872 0 0 0 9.74 0l.818 1.845a13.684 13.684 0 0 1-5.687 1.227zm4.87-21.692a11.882 11.882 0 0 0-9.74 0l-.818-1.845a13.86 13.86 0 0 1 11.375 0z"/></symbol><symbol class="bmIcon_icon__w6Pjo" viewBox="0 0 18 8" id="icon-new-lable" xmlns="http://www.w3.org/2000/svg"><path d="M3.531 3.5 1.511 0H0v7.25h1.51V3.5l2.082 3.75h1.45V0h-1.51v3.5ZM6.25 7.25h3.833V5.74h-2.02V4.398h2.02V2.876h-2.02V1.523h2.02V0H6.25v7.25ZM16 0v5.438h-.864V1.196h-1.51V5.45h-.824V0h-1.51v6.042c0 .664.543 1.208 1.208 1.208h3.802c.665 0 1.208-.544 1.208-1.208V0H16Z" fill="#fff"/></symbol><symbol viewBox="0 0 24 24" id="icon-pessapallo" xmlns="http://www.w3.org/2000/svg"><path d="m1.7 20.4 3.5-3.5L18.3 1.8c.5-.5 1.2-.8 1.9-.8s1.4.3 2 .8c1.1 1.1 1.1 2.8 0 3.9l-15 13-3.6 3.5z" fill="#1e98e2"/><circle cx="18.3" cy="18.3" fill="#fff" r="4.8"/><path d="m.3 20.4 4.2-4.2 13-15.1C18.3.4 19.2 0 20.2 0s2 .4 2.7 1.1c1.5 1.5 1.5 3.9 0 5.3L7.8 19.5l-4.2 4.2zm3.3.5 2.1-2.1-.5-.5-2.1 2.1zm3.6-3.5L21.5 5c.7-.7.7-1.8 0-2.5-.4-.3-.8-.5-1.3-.5s-.9.2-1.2.5L6.6 16.8z"/><path d="M18.3 24c-3.2 0-5.7-2.6-5.7-5.7s2.6-5.7 5.7-5.7 5.7 2.6 5.7 5.7-2.6 5.7-5.7 5.7zm-1.1-2.2c.4.1.7.2 1.1.2s.7-.1 1.1-.2c0-.6-.5-1.1-1.1-1.1s-1.1.5-1.1 1.1zm-1.8-5.9c-.6.7-.9 1.5-.9 2.4s.3 1.7.9 2.4c.5-1.2 1.6-1.9 2.9-1.9s2.4.8 2.9 1.9c.6-.7.9-1.5.9-2.4s-.3-1.7-.9-2.4c-.5 1.2-1.6 1.9-2.9 1.9s-2.4-.8-2.9-1.9zm1.8-1.2c0 .6.5 1.1 1.1 1.1s1.1-.5 1.1-1.1c-.4-.1-.7-.2-1.1-.2s-.8.1-1.1.2z"/></symbol><symbol viewBox="0 0 40 40" fill="none" class="bpIcon_icon__w6Pjo" id="icon-play" xmlns="http://www.w3.org/2000/svg"><rect width="40" height="40" rx="20" fill="url(#bpa)"/><path fill-rule="evenodd" clip-rule="evenodd" d="m27.924 18.615-12.696-7.354a2.125 2.125 0 0 0-2.152 0A2.137 2.137 0 0 0 12 13.131v14.707c0 .78.402 1.479 1.076 1.869.337.195.706.293 1.076.293.369 0 .739-.098 1.076-.293l12.696-7.353A2.137 2.137 0 0 0 29 20.484c0-.78-.402-1.479-1.076-1.869Zm-1.028 1.952-12.697 7.354c-.015.009-.047.028-.095 0s-.048-.065-.048-.083V13.131c0-.018 0-.056.048-.083a.097.097 0 0 1 .049-.015.09.09 0 0 1 .047.015l12.696 7.353c.015.009.048.028.048.083 0 .056-.033.074-.048.083Z" fill="#fff"/><defs><linearGradient id="bpa" x1="20" y1="0" x2="20" y2="40" gradientUnits="userSpaceOnUse"><stop stop-color="#FB5E01"/><stop offset="1" stop-color="#FB4F01"/></linearGradient></defs></symbol><symbol viewBox="0 0 39 40" class="bqIcon_icon__w6Pjo" id="icon-poker" xmlns="http://www.w3.org/2000/svg"><path d="m16 5-2.153.58a.994.994 0 0 0-.82 1.15l4.035 22.469c.097.54.62.9 1.17.805L24.027 29H21a3 3 0 0 1-3-3V3a3 3 0 0 1 3-3h15a3 3 0 0 1 3 3v23a3 3 0 0 1-3 3h-1.478c-.304.18-.646.31-1.018.374l-.774.134c-.33.397-.767.715-1.293.905l-.224.08a3.001 3.001 0 0 1-1.359 1.66l-13.138 7.532c-1.45.832-3.297.354-4.124-1.068L1.116 18.883c-.827-1.422-.32-3.249 1.13-4.08l3.382-1.939-.188-.51c-.567-1.544.249-3.255 1.822-3.823l3.792-1.367-.016-.09c-.29-1.619.81-3.162 2.458-3.448L16 3zm1.191 30.549c-1.573.567-3.309-.225-3.876-1.768L6.323 14.754l-3.078 1.765a.994.994 0 0 0-.377 1.36l11.476 19.734c.275.474.89.633 1.374.356l8.88-5.09zm1.392-3.592c-1.648.286-3.22-.795-3.51-2.414L11.41 9.146l-3.463 1.249a.994.994 0 0 0-.607 1.274l7.875 21.427a1.01 1.01 0 0 0 1.292.59l7.305-2.634zM20 3v23a1 1 0 0 0 1 1h15a1 1 0 0 0 1-1V3a1 1 0 0 0-1-1H21a1 1 0 0 0-1 1zm2 2a1 1 0 0 1 1-1h2a1 1 0 1 1 0 2h-1v1a1 1 0 0 1-2 0V5zm10 18h1v-1a1 1 0 1 1 2 0v2a1 1 0 0 1-1 1h-2a1 1 0 1 1 0-2zM29.84 9.515l3.738 4.072a1.58 1.58 0 0 1-.1 2.235l-4.085 3.751a1.582 1.582 0 0 1-2.236-.09L23.42 15.41a1.582 1.582 0 0 1 .1-2.235l4.086-3.752a1.582 1.582 0 0 1 2.235.091zm-4.756 4.84 3.27 3.56 3.562-3.27-3.27-3.56z"/></symbol><symbol viewBox="0 0 20 20" class="brIcon_icon__w6Pjo" id="icon-present" xmlns="http://www.w3.org/2000/svg"><path d="M18 11v7c0 1.1-.9 2-2 2H4c-1.1 0-2-.9-2-2v-7c-1.1 0-2-.9-2-2V7c0-1.1.9-2 2-2h2.3C4.1 4.5 4 4 4 3.5 4 1.6 5.6 0 7.5 0c1 0 1.9.4 2.5 1.1.6-.7 1.5-1.1 2.5-1.1C14.4 0 16 1.6 16 3.5c0 .5-.1 1-.3 1.5H18c1.1 0 2 .9 2 2v2c0 1.1-.9 2-2 2zm-2 7v-7h-5v7zM4 18h5v-7H4zM7.5 2C6.7 2 6 2.7 6 3.5S6.7 5 7.5 5H9V3.5C9 2.7 8.3 2 7.5 2zm5 0c-.8 0-1.5.7-1.5 1.5V5h1.5c.8 0 1.5-.7 1.5-1.5S13.3 2 12.5 2zM18 7H2v2h16z"/></symbol><symbol viewBox="0 0 24 24" id="icon-regbi" xmlns="http://www.w3.org/2000/svg"><path fill-rule="evenodd" clip-rule="evenodd" fill="#FFF" d="M1.2 21.9s-1.1-9.6 4-15c6.5-6.8 17-6 17-6s3.6 8.3-4 16-15 6-15 6l-2-1z"/><path fill-rule="evenodd" clip-rule="evenodd" fill="#2A2D30" d="M13.2 8.2c.4.4 1 .4 1.4 0 .4-.4.4-1 0-1.4l-1.4-1.4c-.4-.4-1-.4-1.4 0-.4.4-.4 1 0 1.4l1.4 1.4zm-2.1 2.2c.4.4 1 .4 1.4 0 .4-.4.4-1 0-1.4l-1.4-1.4c-.4-.4-1-.4-1.4 0-.4.4-.4 1 0 1.4l1.4 1.4zm12-9.5C21.7-.6 11.5-.8 5.3 5.3-.9 11.5-.6 21.7.8 23.2s11.7 1.7 17.9-4.5S24.6 2.3 23.1.9zM6.7 6.7c1.9-1.9 4.3-3.1 6.8-3.9l4.4 4.4c-.4 2.3-1.3 5.1-3.4 7.2-2 2-4.7 3-7.2 3.4l-4.5-4.5c.7-2.2 1.9-4.6 3.9-6.6zM4.9 22c-1.4 0-2.3-.2-2.7-.3-.3-.9-.5-3.3 0-6l6 6c-1.1.2-2.3.3-3.3.3zm12.4-4.7c-1.9 1.9-4.3 3.1-6.7 3.8L9 19.5c2.4-.6 5-1.7 6.9-3.6 2-2 3.1-4.6 3.6-7l1.7 1.7c-.8 2.3-2 4.8-3.9 6.7zm4.4-9-6-6c1.2-.2 2.3-.3 3.4-.3 1.5 0 2.3.2 2.7.3.3.9.4 3.3-.1 6zM8.9 12.5c.4.4 1 .4 1.4 0 .4-.4.4-1 0-1.4L8.9 9.6c-.4-.4-1-.4-1.4 0-.4.4-.4 1 0 1.4l1.4 1.5zm-.7 2.2c.4-.4.4-1 0-1.4l-1.4-1.4c-.4-.4-1-.4-1.4 0-.4.4-.4 1 0 1.4l1.4 1.4c.3.4 1 .4 1.4 0z"/></symbol><symbol viewBox="0 0 16 12" class="btIcon_icon__w6Pjo" id="icon-rm" xmlns="http://www.w3.org/2000/svg"><path d="M7 6V3c0-1.65-1.35-3-3-3H0v12h2V9h1.55l1.46 3h2.22L5.55 8.55A2.97 2.97 0 0 0 7 6ZM2 2h2c.55 0 1 .45 1 1v3c0 .55-.45 1-1 1H2V2ZM15.18.02c-.47-.08-.94.17-1.12.62L12 6.03 9.93.64A.999.999 0 0 0 8.82.02C8.34.1 8 .52 8 1v11h2V6.4l1.07 2.78c.15.39.52.64.93.64.41 0 .79-.25.93-.64L14 6.4V12h2V1c0-.48-.34-.9-.82-.98Z" fill="#fff"/></symbol><symbol viewBox="0 0 20 20" class="buIcon_icon__w6Pjo" id="icon-search" xmlns="http://www.w3.org/2000/svg"><path d="M9 18a9 9 0 1 1 7.06-3.418l3.618 3.618a1.045 1.045 0 0 1-1.478 1.478l-3.618-3.618A8.962 8.962 0 0 1 9 18zM9 2a7 7 0 1 0 0 14A7 7 0 0 0 9 2zM6 9a1 1 0 1 1-2 0 5 5 0 0 1 5-5 1 1 0 0 1 0 2 3 3 0 0 0-3 3z"/></symbol><symbol fill="none" viewBox="0 0 40 40" id="icon-show" xmlns="http://www.w3.org/2000/svg"><g filter="url(#bva)" fill-rule="evenodd" clip-rule="evenodd" fill="#C650FE"><path d="m24.46 33.03-4.77-2.51-4.77 2.51.91-5.31-3.86-3.76 5.34-.78 2.38-4.83 2.39 4.83 5.33.78-3.86 3.76.91 5.31zm-7.45-7.44 1.34 1.31-.31 1.84 1.65-.87 1.66.87-.32-1.84 1.35-1.31-1.86-.27-.83-1.68-.83 1.68-1.85.27z"/><path d="M6.8 7.03V4.67a4.7 4.7 0 0 1 4.69-4.69h1.17v2.35h-1.17a2.34 2.34 0 0 0-2.34 2.34v2.36h9.37V0h2.34v7.03h9.38V4.67a2.34 2.34 0 0 0-2.34-2.34h-1.18V-.02h1.18a4.69 4.69 0 0 1 4.68 4.69v2.36h2.8l-3.13 9.38h-2.01v21.25h2.34V40H6.8v-2.34h2.35V16.41H7.13L4 7.03h2.8zm23.76 7.03h-.527a3.53 3.53 0 0 0-3.313-2.34H12.66a3.52 3.52 0 0 0-3.306 2.34H8.81L7.25 9.38h24.88l-1.57 4.68zm-2.66 1.18v22.42H11.49V15.24a1.17 1.17 0 0 1 1.17-1.17h14.06a1.17 1.17 0 0 1 1.18 1.17z"/></g><defs><filter id="bva" x="-4" y="-4.02" width="47.38" height="56.02" filterUnits="userSpaceOnUse" color-interpolation-filters="sRGB"><feFlood flood-opacity="0" result="BackgroundImageFix"/><feColorMatrix in="SourceAlpha" values="0 0 0 0 0 0 0 0 0 0 0 0 0 0 0 0 0 0 127 0" result="hardAlpha"/><feOffset dy="4"/><feGaussianBlur stdDeviation="4"/><feComposite in2="hardAlpha" operator="out"/><feColorMatrix values="0 0 0 0 0.776471 0 0 0 0 0.313726 0 0 0 0 0.996078 0 0 0 0.25 0"/><feBlend in2="BackgroundImageFix" result="effect1_dropShadow_21765_30082"/><feBlend in="SourceGraphic" in2="effect1_dropShadow_21765_30082" result="shape"/></filter></defs></symbol><symbol viewBox="0 0 451.847 451.847" class="bwIcon_icon__w6Pjo" id="icon-simple-arrow" xmlns="http://www.w3.org/2000/svg"><path d="M225.923 354.706c-8.098 0-16.195-3.092-22.369-9.263L9.27 151.157c-12.359-12.359-12.359-32.397 0-44.751 12.354-12.354 32.388-12.354 44.748 0l171.905 171.915 171.906-171.909c12.359-12.354 32.391-12.354 44.744 0 12.365 12.354 12.365 32.392 0 44.751L248.292 345.449c-6.177 6.172-14.274 9.257-22.369 9.257z"/></symbol><symbol viewBox="0 0 15 15" id="icon-simple-cross" xmlns="http://www.w3.org/2000/svg"><path fill="currentColor" d="M3.64 2.27 7.5 6.13l3.84-3.84A.92.92 0 0 1 12 2a1 1 0 0 1 1 1 .9.9 0 0 1-.27.66L8.84 7.5l3.89 3.89A.9.9 0 0 1 13 12a1 1 0 0 1-1 1 .92.92 0 0 1-.69-.27L7.5 8.87l-3.85 3.85A.92.92 0 0 1 3 13a1 1 0 0 1-1-1 .9.9 0 0 1 .27-.66L6.16 7.5 2.27 3.61A.9.9 0 0 1 2 3a1 1 0 0 1 1-1c.24.003.47.1.64.27Z"/></symbol><symbol viewBox="0 0 24 24" id="icon-sort" xmlns="http://www.w3.org/2000/svg"><path fill="#003266" d="M21 3H5a1 1 0 0 0-1 1v2.59c0 .523.213 1.037.583 1.407L10 13.414V21a1.001 1.001 0 0 0 1.447.895l4-2c.339-.17.553-.516.553-.895v-5.586l5.417-5.417c.37-.37.583-.884.583-1.407V4a1 1 0 0 0-1-1zm-6.707 9.293A.996.996 0 0 0 14 13v5.382l-2 1V13a.996.996 0 0 0-.293-.707L6 6.59V5h14.001l.002 1.583-5.71 5.71z"/></symbol><symbol viewBox="0 0 24 24" id="icon-sort-bar" xmlns="http://www.w3.org/2000/svg"><path d="M3 18v-2h6v2H3Zm0-5v-2h12v2H3Zm0-5V6h18v2H3Z"/></symbol><symbol viewBox="0 0 40 40" class="caIcon_icon__w6Pjo" id="icon-spin" xmlns="http://www.w3.org/2000/svg"><path d="M20 0c11.046 0 20 8.954 20 20s-8.954 20-20 20S0 31.046 0 20 8.954 0 20 0zM2 20c0 9.941 8.059 18 18 18s18-8.059 18-18S29.941 2 20 2 2 10.059 2 20zM20 4c8.837 0 16 7.163 16 16s-7.163 16-16 16S4 28.837 4 20c0-4.565 1.912-8.684 4.979-11.599l1.033 1.79a14.015 14.015 0 0 0-1.607 1.96l3.477 2.008A9.992 9.992 0 0 1 19 10.049V6.035a13.953 13.953 0 0 0-2.991.542l-1.025-1.775A15.985 15.985 0 0 1 20 4zm-1 29.965V29.95a9.936 9.936 0 0 1-3.11-.832l-2.008 3.477A13.916 13.916 0 0 0 19 33.965zm2 0a13.916 13.916 0 0 0 5.118-1.369L24.11 29.12a9.936 9.936 0 0 1-3.11.832zm6.849-2.37a14.11 14.11 0 0 0 3.746-3.746l-3.478-2.008c-.63.876-1.4 1.645-2.276 2.276zm4.747-5.477A13.916 13.916 0 0 0 33.965 21H29.95a9.936 9.936 0 0 1-.832 3.11zM33.965 19a13.916 13.916 0 0 0-1.369-5.118L29.12 15.89a9.92 9.92 0 0 1 .832 3.11zm-2.37-6.849a14.077 14.077 0 0 0-3.746-3.746l-2.008 3.477a10.082 10.082 0 0 1 2.277 2.277zm-5.477-4.747A13.916 13.916 0 0 0 21 6.035v4.014a9.936 9.936 0 0 1 3.11.832zM7.404 13.882A13.916 13.916 0 0 0 6.035 19h4.014a9.936 9.936 0 0 1 .832-3.11zM6.035 21a13.916 13.916 0 0 0 1.369 5.118l3.477-2.008a9.936 9.936 0 0 1-.832-3.11zm2.37 6.849a14.11 14.11 0 0 0 3.746 3.746l2.008-3.478a10.057 10.057 0 0 1-2.276-2.276zM12 20a8 8 0 1 0 16 0 8 8 0 0 0-16 0zm7-4a1 1 0 1 1 0-2h2a1 1 0 0 1 0 2v3h3a1 1 0 0 1 2 0v2a1 1 0 0 1-2 0h-3v3a1 1 0 0 1 0 2h-2a1 1 0 1 1 0-2v-3h-3a1 1 0 0 1-2 0v-2a1 1 0 0 1 2 0h3zM12.5 6a1.5 1.5 0 1 1 0 3 1.5 1.5 0 0 1 0-3z"/></symbol><symbol viewBox="0 0 40 40" class="cbIcon_icon__w6Pjo" id="icon-star" xmlns="http://www.w3.org/2000/svg"><path d="M19.997 40c-1.328 0-2.502-.594-3.256-1.602-1.054.69-2.359.849-3.609.396-1.248-.453-2.147-1.411-2.51-2.614-1.227.288-2.508-.01-3.526-.86-1.018-.85-1.534-2.057-1.462-3.311-1.25-.147-2.354-.863-3.018-2.009-.664-1.146-.736-2.456-.237-3.61C1.253 25.825.462 24.776.23 23.473.001 22.169.383 20.914 1.248 20 .384 19.085 0 17.83.23 16.526c.231-1.303 1.021-2.352 2.148-2.917-.499-1.153-.428-2.463.237-3.61.664-1.145 1.766-1.862 3.018-2.009-.072-1.254.444-2.46 1.462-3.311 1.018-.85 2.3-1.147 3.527-.86.362-1.203 1.261-2.16 2.51-2.613 1.248-.452 2.554-.295 3.608.395C17.494.594 18.668 0 19.996 0c1.329 0 2.503.594 3.256 1.6 1.054-.689 2.362-.846 3.61-.394 1.247.453 2.146 1.41 2.509 2.613 1.227-.287 2.508.008 3.527.86 1.017.85 1.534 2.057 1.461 3.311 1.253.147 2.355.864 3.02 2.009.664 1.147.735 2.457.236 3.611 1.127.565 1.917 1.614 2.147 2.916.231 1.304-.152 2.559-1.016 3.474.865.915 1.247 2.17 1.016 3.473-.23 1.303-1.021 2.352-2.147 2.917.499 1.154.427 2.464-.237 3.61-.664 1.146-1.767 1.862-3.019 2.009.073 1.255-.444 2.46-1.461 3.311-1.018.85-2.3 1.148-3.526.86-.363 1.203-1.262 2.16-2.51 2.614-1.248.453-2.556.294-3.61-.394-.753 1.006-1.927 1.6-3.255 1.6zm-2.97-4.21a1.005 1.005 0 0 1 .932.63l.108.272c.384.964 1.248 1.308 1.93 1.308.681 0 1.546-.344 1.93-1.307l.108-.271a1 1 0 0 1 .758-.616.994.994 0 0 1 .925.32l.196.22c.69.772 1.618.8 2.26.568.641-.232 1.336-.848 1.366-1.884l.009-.296a1.004 1.004 0 0 1 1.48-.85l.26.14c.914.494 1.797.2 2.319-.236s.963-1.253.636-2.236l-.093-.277a.998.998 0 0 1 .183-.958.996.996 0 0 1 .913-.347l.291.042c1.026.151 1.762-.423 2.102-1.012.34-.589.475-1.507-.17-2.32l-.182-.227a.997.997 0 0 1-.157-.963c.119-.326.399-.568.74-.638l.289-.06c1.018-.209 1.507-.998 1.626-1.667.118-.668-.07-1.577-.956-2.12l-.249-.152a1 1 0 0 1-.002-1.703l.25-.155c.886-.544 1.075-1.453.957-2.12-.119-.67-.608-1.459-1.626-1.668l-.286-.059a.997.997 0 0 1-.586-1.6l.183-.23c.644-.812.51-1.73.17-2.319-.341-.589-1.075-1.16-2.1-1.012l-.29.043a1.013 1.013 0 0 1-.916-.346.996.996 0 0 1-.184-.959l.093-.279c.327-.982-.114-1.798-.636-2.235-.522-.437-1.407-.728-2.32-.236l-.259.14a1.005 1.005 0 0 1-1.48-.85l-.01-.293c-.029-1.037-.724-1.655-1.364-1.886-.64-.232-1.57-.205-2.262.568l-.197.22a.997.997 0 0 1-.924.32 1.001 1.001 0 0 1-.757-.617l-.108-.271C21.543 2.343 20.678 2 19.997 2c-.682 0-1.546.343-1.93 1.306l-.109.273a1 1 0 0 1-.757.614.997.997 0 0 1-.924-.318l-.196-.219c-.692-.775-1.623-.804-2.262-.57-.64.231-1.335.849-1.365 1.884l-.009.293a1 1 0 0 1-.5.838 1.013 1.013 0 0 1-.98.013l-.259-.14c-.913-.49-1.797-.2-2.32.237-.522.437-.963 1.253-.636 2.235l.093.282c.11.329.04.691-.185.957a1.011 1.011 0 0 1-.915.345l-.291-.043C5.427 9.84 4.694 10.41 4.354 11c-.34.589-.476 1.507.17 2.32l.183.23a.997.997 0 0 1-.587 1.6l-.289.058c-1.016.21-1.505.998-1.623 1.667-.119.668.07 1.577.955 2.12l.252.156a.997.997 0 0 1-.003 1.703l-.25.153c-.884.542-1.073 1.451-.954 2.119.118.669.607 1.458 1.625 1.667l.29.06a.997.997 0 0 1 .583 1.602l-.183.229c-.645.81-.51 1.728-.169 2.317.34.588 1.073 1.161 2.099 1.012l.294-.042c.345-.056.69.08.913.347a.997.997 0 0 1 .183.957l-.093.278c-.327.983.114 1.8.636 2.236.522.438 1.407.728 2.32.236l.26-.14a1.01 1.01 0 0 1 .978.015 1 1 0 0 1 .501.837l.009.294c.03 1.036.725 1.652 1.365 1.884.64.233 1.57.204 2.261-.568l.196-.22c.192-.216.466-.336.75-.336z"/><path fill="#ffba00" d="m20 9 3.296 5.971 6.703 1.286-4.666 4.977L26.18 28 20 25.104 13.82 28l.847-6.766-4.666-4.977 6.703-1.286L20 9.001m3.707 15.68-.508-4.268 2.796-3.14-4.017-.811-1.976-3.77-1.977 3.77-4.015.811 2.795 3.14-.508 4.269 3.705-1.828z"/></symbol><symbol fill="none" viewBox="0 0 20 20" id="icon-t-bascket" xmlns="http://www.w3.org/2000/svg"><g clip-path="url(#cca)"><path d="M19.19.82H.82V14.6h18.37V.82Z" fill="#FFF3E6"/><path d="M13.04 11.15a4.59 4.59 0 1 0-6.08 0h6.08Z" fill="#FF9F17"/><path d="M20 0H0v15.41h5.74v4.33h1.63v-1.46h.66v1.46h1.64v-1.46h.66v1.46h1.63v-1.46h.68v1.46h1.63v-4.33h5.74L20 0Zm-7.15 13.74h-.89v-1.78h1.5l-.61 1.78Zm-3.8-5.59a8.05 8.05 0 0 1 1.9 0c.066.755.291 1.488.66 2.15H8.38a5.36 5.36 0 0 0 .67-2.12v-.03Zm-2.2 1.59a3.63 3.63 0 0 1-.41-.84 8 8 0 0 1 .92-.36 3.75 3.75 0 0 1-.51 1.2Zm5.79-1.19c.31.104.615.228.91.37a3.66 3.66 0 0 1-.4.82 3.6 3.6 0 0 1-.51-1.18v-.01Zm-2.31 3.4v1.79h-.66v-1.78l.66-.01Zm2.31-5.11c.1-.425.276-.828.52-1.19a3.66 3.66 0 0 1 .58 1.56 9.811 9.811 0 0 0-1.1-.37Zm-1.61-.3a10.13 10.13 0 0 0-2.06 0 5.48 5.48 0 0 0-.94-2 3.69 3.69 0 0 1 3.94 0 5.51 5.51 0 0 0-.94 2Zm-4.19-.9c.242.37.418.78.52 1.21-.37.1-.733.22-1.09.36a3.9 3.9 0 0 1 .57-1.57Zm1.19 6.32v1.78h-.92l-.58-1.81 1.5.03Zm-.66 4.68v-1.23h.66v1.23h-.66Zm2.3 0v-1.23h.66v1.23h-.66Zm2.29 0v-1.23h.7v1.23h-.7Zm6.41-2.9h-3.79l.6-1.81h1.13v-1.6h-1.57a5.409 5.409 0 0 0-7.41-7.338A5.41 5.41 0 0 0 5.3 10.33H3.7v1.63h1.14l.6 1.81H1.63V1.63h16.74v12.11Z" fill="#2A2D30"/></g><defs><clipPath id="cca"><path fill="#fff" d="M0 0h20v20H0z"/></clipPath></defs></symbol><symbol fill="none" viewBox="0 0 20 20" id="icon-t-kick" xmlns="http://www.w3.org/2000/svg"><g clip-path="url(#cda)"><path d="m16.075 18-3.015-2.197H7.03L4.015 18H1V3.465c0-.389.159-.761.442-1.036A1.53 1.53 0 0 1 2.508 2h14.984c.4 0 .784.154 1.066.429.283.275.442.647.442 1.036V18h-2.925Z" fill="#fff"/><path d="M17.693 1H2.33A2.323 2.323 0 0 0 .008 3.323V18.7a.775.775 0 0 0 .774.775H3.88a.72.72 0 0 0 .457-.163l2.873-2.145h5.66l2.865 2.153c.134.1.297.155.464.155h3.098a.774.774 0 0 0 .774-.775V3.307A2.324 2.324 0 0 0 17.693 1ZM6.148 15.99l-1.549 1.154v-3.871h1.549v2.717Zm0-4.227H4.599V9.44h1.549v2.323Zm3.097 3.871H7.697v-2.323h1.548v2.323Zm3.097 0h-1.548v-2.323h1.548v2.323Zm3.098 1.549-1.55-1.154v-2.687h1.55v3.84Zm0-5.382h-1.55V9.478h1.55v2.323Zm3.097 6.156h-1.549V4.84a.774.774 0 0 0-.774-.774H13.89v1.549h1.549v2.323h-3.098v3.871H7.697V7.938H4.599V5.615h1.448V4.066H3.88a.774.774 0 0 0-.774.774v13.078h-1.55V3.308a.774.774 0 0 1 .775-.775h15.385a.774.774 0 0 1 .774.774l.047 14.65Z" fill="#2A2D30"/><path d="M9.26 4.074H7.744v1.54H9.26v5.158h1.54V5.615h1.51V4.074H9.26Z" fill="#F04F2F"/></g><defs><clipPath id="cda"><path fill="#fff" d="M0 0h20v20H0z"/></clipPath></defs></symbol><symbol viewBox="0 0 24 24" id="icon-table-tennis" xmlns="http://www.w3.org/2000/svg"><path fill-rule="evenodd" clip-rule="evenodd" fill="#FF9F17" d="M15 1c4.4 0 8 3.6 8 8s-3.6 8-8 8-8-3.6-8-8 3.6-8 8-8z"/><path fill-rule="evenodd" clip-rule="evenodd" fill="#FFF" d="M9 7c4.4 0 8 3.6 8 8s-3.6 8-8 8-8-3.6-8-8 3.6-8 8-8z"/><path fill-rule="evenodd" clip-rule="evenodd" fill="#2A2D30" d="M17.6 17.6A8.94 8.94 0 0 1 9 24c-5 0-9-4-9-9 0-4.1 2.7-7.5 6.4-8.6C7.5 2.7 10.9 0 15 0c5 0 9 4 9 9 0 4.1-2.7 7.5-6.4 8.6zM2 15c0 3.9 3.1 7 7 7s7-3.1 7-7-3.1-7-7-7-7 3.1-7 7zM15 2c-2.8 0-5.2 1.6-6.3 4h1.1c1-1.8 3-3 5.2-3 .6 0 1 .4 1 1s-.4 1-1 1c-1.3 0-2.4.6-3.1 1.5C15.5 7.7 18 11 18 15v.3c2.4-1.1 4-3.5 4-6.3 0-3.9-3.1-7-7-7zm-5 8c0 .6-.4 1-1 1-2.2 0-4 1.8-4 4 0 .6-.4 1-1 1s-1-.4-1-1c0-3.3 2.7-6 6-6 .6 0 1 .4 1 1z"/></symbol><symbol viewBox="0 0 24 24" id="icon-tenis" xmlns="http://www.w3.org/2000/svg"><path fill-rule="evenodd" clip-rule="evenodd" fill="#BDE24B" d="M12 1c6.1 0 11 4.9 11 11s-4.9 11-11 11S1 18.1 1 12 5.9 1 12 1z"/><path fill-rule="evenodd" clip-rule="evenodd" fill="#2A2D30" d="M12 0C5.4 0 0 5.4 0 12s5.4 12 12 12 12-5.4 12-12S18.6 0 12 0zM2 12c0-2.8 1.1-5.3 3-7.1C6.8 6.7 8 9.2 8 12s-1.2 5.3-3 7.1c-1.9-1.8-3-4.3-3-7.1zm4.6 8.4C8.7 18.2 10 15.3 10 12c0-3.3-1.3-6.2-3.4-8.4C8.1 2.6 10 2 12 2s3.9.6 5.4 1.6C15.3 5.8 14 8.7 14 12c0 3.3 1.3 6.2 3.4 8.4-1.5 1-3.4 1.6-5.4 1.6s-3.9-.6-5.4-1.6zM19 19.1c-1.9-1.8-3-4.3-3-7.1s1.2-5.3 3-7.1c1.8 1.8 3 4.3 3 7.1s-1.1 5.3-3 7.1z"/></symbol><symbol class="cgIcon_icon__w6Pjo" viewBox="0 0 16 16" id="icon-top-lable" xmlns="http://www.w3.org/2000/svg"><path fill-rule="evenodd" clip-rule="evenodd" d="M9 11.9A5.002 5.002 0 0 0 13 7V0H3v7a5.002 5.002 0 0 0 4 4.9V14H5v2h6v-2H9v-2.1ZM5 2h6v5a3 3 0 0 1-6 0V2Z" fill="#fff"/><path d="M14 2h2v5h-2V2ZM2 2H0v5h2V2Z" fill="#fff"/></symbol><symbol class="chIcon_icon__w6Pjo" viewBox="0 0 15 18" id="icon-trending" xmlns="http://www.w3.org/2000/svg"><path d="M13.165 4.5C12.127 2.847 10.797 1.436 9.633.274a.937.937 0 0 0-1.509.26L5.87 5.27 3.648 3.79a.938.938 0 0 0-1.301.26C.79 6.399 0 8.536 0 10.4a7.5 7.5 0 1 0 15 0c0-2.003-.6-3.933-1.835-5.9ZM7.5 16.026A5.632 5.632 0 0 1 1.875 10.4c0-1.294.515-2.81 1.533-4.518L5.73 7.43a.937.937 0 0 0 1.366-.377l2.142-4.497c2.117 2.255 3.887 4.777 3.887 7.844A5.631 5.631 0 0 1 7.5 16.026Z" fill="#fff"/></symbol><symbol viewBox="0 0 44 50" id="icon-trophy" xmlns="http://www.w3.org/2000/svg"><defs><filter id="cia" width="66" height="76" x="-11" y="-15" filterUnits="userSpaceOnUse"><feOffset dy="4" in="SourceGraphic" result="FeOffset1184Out"/><feGaussianBlur in="FeOffset1184Out" result="FeGaussianBlur1185Out" stdDeviation="2.56 2.56"/></filter><mask id="cib" width="2.11" height="2.09" x="-1.05" y="-1.04"><path fill="#fff" d="M5.4 1.4h33.2v39.2H5.4z"/><path d="m25.157 22.428.478 2.646c2.2.227 3.984 1.853 4.42 3.957L34 29v8h2v2H8v-2h2v-8l3.961.031c.435-2.104 2.22-3.73 4.42-3.957l.477-2.646c-2.408-1.003-4.231-3.125-4.768-5.748a8.142 8.142 0 0 1-4.023-2.164A7.943 7.943 0 0 1 7.76 9.779L7 3h30l-.76 6.778a7.944 7.944 0 0 1-2.301 4.732 8.141 8.141 0 0 1-4.012 2.167c-.537 2.625-2.36 4.748-4.77 5.75zm5.04-7.893c2.156-.747 3.776-2.678 4.035-4.976l.512-4.567h-3.488zm-16.38.005-1.071-9.548h-3.49l.512 4.567c.26 2.304 1.886 4.238 4.048 4.981zM12 31v6h20v-6zm13.105-3.96H18.91a3.03 3.03 0 0 0-2.856 1.991h11.908a3.033 3.033 0 0 0-2.857-1.992zm-1.527-1.993-.375-2.08a8.25 8.25 0 0 1-2.39 0l-.375 2.08zm4.453-9.293 1.193-10.762H14.778l1.207 10.762c.34 3.026 2.93 5.308 6.023 5.308 3.093 0 5.682-2.282 6.023-5.308zM16 33h12v2H16z"/></mask></defs><g filter="url(#cia)"><path fill="none" stroke="#ffba00" stroke-opacity=".3" stroke-width="3.2" d="m25.157 26.428.478 2.646c2.2.227 3.984 1.853 4.42 3.957L34 33v8h2v2H8v-2h2v-8l3.961.031c.435-2.104 2.22-3.73 4.42-3.957l.477-2.646c-2.408-1.003-4.231-3.125-4.768-5.748a8.142 8.142 0 0 1-4.023-2.164 7.943 7.943 0 0 1-2.307-4.737L7 7h30l-.76 6.778a7.944 7.944 0 0 1-2.301 4.732 8.141 8.141 0 0 1-4.012 2.167c-.537 2.625-2.36 4.748-4.77 5.75zm5.04-7.893c2.156-.747 3.776-2.678 4.035-4.976l.512-4.567h-3.488zm-16.38.005-1.071-9.548h-3.49l.512 4.567c.26 2.304 1.886 4.238 4.048 4.981zM12 35v6h20v-6zm13.105-3.96H18.91a3.03 3.03 0 0 0-2.856 1.991h11.908a3.033 3.033 0 0 0-2.857-1.992zm-1.527-1.993-.375-2.08a8.25 8.25 0 0 1-2.39 0l-.375 2.08zm4.453-9.293 1.193-10.762H14.778l1.207 10.762c.34 3.026 2.93 5.308 6.023 5.308 3.093 0 5.682-2.282 6.023-5.308zM16 37h12v2H16z" mask="url(#cib)"/><path fill="#ffba00" fill-opacity=".3" d="m25.157 26.428.478 2.646c2.2.227 3.984 1.853 4.42 3.957L34 33v8h2v2H8v-2h2v-8l3.961.031c.435-2.104 2.22-3.73 4.42-3.957l.477-2.646c-2.408-1.003-4.231-3.125-4.768-5.748a8.142 8.142 0 0 1-4.023-2.164 7.943 7.943 0 0 1-2.307-4.737L7 7h30l-.76 6.778a7.944 7.944 0 0 1-2.301 4.732 8.141 8.141 0 0 1-4.012 2.167c-.537 2.625-2.36 4.748-4.77 5.75zm5.04-7.893c2.156-.747 3.776-2.678 4.035-4.976l.512-4.567h-3.488zm-16.38.005-1.071-9.548h-3.49l.512 4.567c.26 2.304 1.886 4.238 4.048 4.981zM12 35v6h20v-6zm13.105-3.96H18.91a3.03 3.03 0 0 0-2.856 1.991h11.908a3.033 3.033 0 0 0-2.857-1.992zm-1.527-1.993-.375-2.08a8.25 8.25 0 0 1-2.39 0l-.375 2.08zm4.453-9.293 1.193-10.762H14.778l1.207 10.762c.34 3.026 2.93 5.308 6.023 5.308 3.093 0 5.682-2.282 6.023-5.308zM16 37h12v2H16z"/></g><path fill="#ffba00" d="m25.157 26.428.478 2.646c2.2.227 3.984 1.853 4.42 3.957L34 33v8h2v2H8v-2h2v-8l3.961.031c.435-2.104 2.22-3.73 4.42-3.957l.477-2.646c-2.408-1.003-4.231-3.125-4.768-5.748a8.142 8.142 0 0 1-4.023-2.164 7.943 7.943 0 0 1-2.307-4.737L7 7h30l-.76 6.778a7.944 7.944 0 0 1-2.301 4.732 8.141 8.141 0 0 1-4.012 2.167c-.537 2.625-2.36 4.748-4.77 5.75zm5.04-7.893c2.156-.747 3.776-2.678 4.035-4.976l.512-4.567h-3.488zm-16.38.005-1.071-9.548h-3.49l.512 4.567c.26 2.304 1.886 4.238 4.048 4.981zM12 35v6h20v-6zm13.105-3.96H18.91a3.03 3.03 0 0 0-2.856 1.991h11.908a3.033 3.033 0 0 0-2.857-1.992zm-1.527-1.993-.375-2.08a8.25 8.25 0 0 1-2.39 0l-.375 2.08zm4.453-9.293 1.193-10.762H14.778l1.207 10.762c.34 3.026 2.93 5.308 6.023 5.308 3.093 0 5.682-2.282 6.023-5.308zM16 37h12v2H16z"/></symbol><symbol viewBox="0 0 40 40" fill="none" class="cjIcon_icon__w6Pjo" id="icon-tv" xmlns="http://www.w3.org/2000/svg"><path d="M3.504 0A3.508 3.508 0 0 0 0 3.504v24.502a3.508 3.508 0 0 0 3.504 3.504h9.873l-2.498 6.327h-4.43a1.04 1.04 0 0 0 0 2.081H33.51a1.041 1.041 0 0 0 0-2.081h-4.43l-2.497-6.327h9.913A3.508 3.508 0 0 0 40 28.006V3.504A3.508 3.508 0 0 0 36.496 0H3.504Zm0 2.082h32.992c.784 0 1.422.638 1.422 1.422v18.639h-2.081V5.204a1.04 1.04 0 0 0-1.041-1.04H5.204a1.04 1.04 0 0 0-1.04 1.04v16.939H2.081V3.504c0-.784.638-1.422 1.422-1.422Zm2.74 4.163h27.511v15.898H13.612a1.04 1.04 0 0 0 0 2.081h24.306v3.782c0 .784-.638 1.423-1.422 1.423H3.505a1.424 1.424 0 0 1-1.423-1.423v-3.782h7.285a1.04 1.04 0 0 0 0-2.081H6.245V6.245Zm13.687 19.02a1.138 1.138 0 0 0 0 2.276 1.138 1.138 0 0 0 0-2.276ZM15.55 31.51h8.86l2.497 6.327H13.052l2.498-6.327Z"/></symbol><symbol viewBox="0 0 512 512" class="ckIcon_icon__w6Pjo" id="icon-ua" xmlns="http://www.w3.org/2000/svg"><circle cx="256" cy="256" r="256" fill="#ffda44"/><path d="M0 256C0 114.616 114.616 0 256 0s256 114.616 256 256" fill="#338af3"/></symbol><symbol viewBox="0 0 20 20" id="icon-valorant" xmlns="http://www.w3.org/2000/svg"><path d="M20 9.333V1.557a.13.13 0 0 0-.23-.08l-8.496 10.615a.128.128 0 0 0 .1.21h6.137a.525.525 0 0 0 .42-.21l1.94-2.42a.512.512 0 0 0 .129-.34zm-19.87.35 6.377 7.976a.536.536 0 0 0 .43.2h6.136a.121.121 0 0 0 .1-.2L.23 1.487a.13.13 0 0 0-.23.08v7.776a.622.622 0 0 0 .13.34z" fill="#111"/></symbol><symbol viewBox="0 0 24 24" id="icon-walleyball" xmlns="http://www.w3.org/2000/svg"><path fill-rule="evenodd" clip-rule="evenodd" fill="#FFF" d="M12 1c6.1 0 11 4.9 11 11s-4.9 11-11 11S1 18.1 1 12 5.9 1 12 1z"/><path fill="#2A2D30" d="M12 0c-1.3 0-2.6.2-3.9.6-1.2.4-2.4 1-3.4 1.8C.6 5.6-1 11 .6 15.9c1 3 3.2 5.5 6.1 6.9 1.7.8 3.5 1.2 5.3 1.2 1.3 0 2.6-.2 3.9-.6 1.2-.4 2.4-1 3.4-1.8 4.1-3.1 5.8-8.5 4.1-13.4C21.7 3.3 17.1 0 12 0zm1.2 2.6c.2-.1.3-.3.5-.4l.1-.1h.2c.8.2 1.6.4 2.3.8l.5.3-.5.4c-3.9 3.3-4.7 6.6-4.8 8.3v.2l-.2.1c-.4.2-.9.3-1.4.3-.6 0-1.2-.1-1.8-.3l-.3-.1v-.3c.1-1.2.5-5.4 5.4-9.2zM2.8 8.1C3.5 6.5 4.6 5.1 6 4c.9-.7 1.8-1.2 2.8-1.5.3-.1.6-.2 1-.3l1.3-.3-1 1c-2.8 2.8-3.7 5.7-3.9 7.7l-.1.6-.5-.4C4.5 10 3.5 9.1 2.9 8.5l-.2-.1.1-.3zm-.4 6.8v-.1c-.4-1.3-.5-2.5-.4-3.7l.1-.8.6.5c1.5 1.3 4.3 3.4 7.3 3.4.8 0 1.6-.2 2.4-.5l.2-.1.2.1c.9.5 1.7 1.1 2.4 1.8l.4.3-.6.4c-.9.5-2.3 1.2-4.4 1.2h-.2c-2.4 0-5.1-.8-7.9-2.5h-.1zm15.2 5.4c-.8.5-1.6.9-2.4 1.2-1 .3-2.1.5-3.2.5-1.5 0-3-.3-4.4-1-1.1-.5-2.1-1.3-2.9-2.1l-1.2-1.2 1.6.6c1.8.7 3.6 1.1 5.3 1.1 2.7 0 4.6-.9 5.8-1.7l.3-.2.2.3c.4.7.8 1.4 1 2.1l.1.3-.2.1zm3.7-4.6c-.4.9-.9 1.8-1.5 2.6l-.4.5-.3-.6c-.8-1.7-2.4-4.2-5.5-6l-.2-.1v-.2c.1-.7.3-1.8 1-3.1l.2-.3.3.1c1.6.6 4.5 2.4 6.4 6.8l.1.1-.1.2zm0-4c-1.8-2.5-3.8-3.8-5.2-4.5l-.5-.2.4-.4c.6-.7 1.4-1.4 2.2-2.1l.3-.2.2.2c1.3 1.1 2.2 2.6 2.8 4.2.3.9.5 1.8.5 2.7l.1 1.4-.8-1.1z"/></symbol><symbol viewBox="0 0 24 24" id="icon-watter-polo" xmlns="http://www.w3.org/2000/svg"><path fill-rule="evenodd" clip-rule="evenodd" fill="#FFD617" d="M12 1c6.1 0 11 4.9 11 11s-4.9 11-11 11S1 18.1 1 12 5.9 1 12 1z"/><path fill="#00AEEF" d="M11.6 23c-1.7 0-3.3-.4-4.8-1.1-1.2-.6-2.2-1.4-3.1-2.3l-1.1-1.2 1.1-1.6 1.6.6c1.7.7 3.3 1 4.9 1 2.4 0 4.1-.8 5.1-1.5l1.2-.8.8 1.2c.5.7.8 1.5 1.1 2.3l.4 1-.9.6c-.8.6-1.7 1-2.6 1.3-1.3.3-2.5.5-3.7.5z"/><path fill="#2A2D30" d="M12 0c-1.3 0-2.6.2-3.9.6-1.2.4-2.4 1-3.4 1.8C.6 5.6-1 11 .6 15.9c1 3 3.2 5.5 6.1 6.9 1.7.8 3.4 1.2 5.3 1.2 1.3 0 2.6-.2 3.9-.6 1.2-.4 2.4-1 3.4-1.8 4.1-3.1 5.8-8.5 4.1-13.4C21.7 3.3 17.1 0 12 0zm1.1 2.6c.2-.1.3-.3.5-.4l.1-.1h.2c.8.2 1.6.4 2.3.8l.5.3-.5.4c-3.9 3.3-4.7 6.6-4.8 8.3v.2l-.2.1c-.4.2-.9.3-1.4.3-.6 0-1.2-.1-1.8-.3l-.3-.1v-.3c.2-1.2.6-5.4 5.4-9.2zM2.8 8.1C3.5 6.5 4.6 5.1 6 4c.9-.7 1.8-1.2 2.8-1.5.3-.1.6-.2 1-.3l1.3-.3-1 1c-2.8 2.8-3.7 5.7-3.9 7.7l-.1.6-.5-.4C4.5 10 3.5 9.1 2.9 8.5l-.2-.1.1-.3zm-.4 6.8v-.1c-.4-1.3-.5-2.5-.4-3.7l.1-.8.6.5c1.5 1.3 4.3 3.4 7.3 3.4.8 0 1.6-.2 2.4-.5l.2-.1.2.1c.9.5 1.7 1.1 2.4 1.8l.4.3-.6.4c-.9.5-2.3 1.2-4.4 1.2h-.2c-2.4 0-5.1-.8-7.9-2.5h-.1zm15.2 5.4c-.8.5-1.6.9-2.4 1.2-1 .3-2.1.5-3.2.5-1.5 0-3-.3-4.4-1-1.1-.5-2.1-1.3-2.9-2.1l-1.2-1.2 1.6.6c1.8.7 3.6 1.1 5.3 1.1 2.7 0 4.6-.9 5.8-1.7l.3-.2.2.3c.4.7.8 1.4 1 2.1l.1.3-.2.1zm3.7-4.6c-.4.9-.9 1.8-1.5 2.6l-.4.5-.3-.6c-.8-1.7-2.4-4.2-5.5-6l-.2-.1v-.2c.1-.7.3-1.8 1-3.1l.2-.3.3.1c1.6.6 4.5 2.4 6.4 6.8l.1.1-.1.2zm0-4c-1.8-2.5-3.8-3.8-5.2-4.5l-.5-.2.3-.4c.6-.7 1.4-1.4 2.2-2.1l.3-.2.2.2c1.3 1.1 2.2 2.6 2.8 4.2.3.9.5 1.8.5 2.7l.1 1.4-.7-1.1z"/></symbol></svg>