<svg xmlns="http://www.w3.org/2000/svg" viewBox="0 0 54 54"><defs><filter id="a" width="76" height="80" x="-11" y="-15" filterUnits="userSpaceOnUse"><feOffset dy="4" in="SourceGraphic" result="FeOffset1050Out"/><feGaussianBlur in="FeOffset1050Out" result="FeGaussianBlur1051Out" stdDeviation="2.56 2.56"/></filter><mask id="b" width="2.08" height="2.08" x="-1.04" y="-1.04"><path fill="#fff" d="M5.4 1.4h43.2v43.2H5.4z"/><path d="M27 3c11.046 0 20 8.954 20 20s-8.954 20-20 20S7 34.046 7 23 15.954 3 27 3zm-1 37.973V40a1 1 0 112 0v.973a17.897 17.897 0 007.122-1.905l-.488-.846a1 1 0 011.732-1l.487.844a18.098 18.098 0 005.213-5.213l-.844-.487a1 1 0 011-1.732l.846.488A17.897 17.897 0 0044.973 24H44a1 1 0 010-2h.973a17.897 17.897 0 00-1.905-7.122l-.846.488a1 1 0 11-1-1.732l.844-.487a18.097 18.097 0 00-5.213-5.213l-.487.844a1 1 0 01-1.732-1l.488-.846A17.897 17.897 0 0028 5.027V6a1 1 0 11-2 0v-.973a17.9 17.9 0 00-7.122 1.905l.488.846a1 1 0 11-1.732 1l-.487-.844a18.097 18.097 0 00-5.213 5.213l.844.487a1 1 0 11-1 1.732l-.846-.488A17.897 17.897 0 009.027 22H10a1 1 0 110 2h-.973a17.9 17.9 0 001.905 7.122l.846-.488a1 1 0 111 1.732l-.844.487a18.098 18.098 0 005.213 5.213l.487-.844a1 1 0 011.732 1l-.488.846A17.897 17.897 0 0026 40.973zM27 9c7.732 0 14 6.268 14 14s-6.268 14-14 14-14-6.268-14-14S19.268 9 27 9zM15 23c0 6.628 5.373 12 12 12s12-5.372 12-12c0-6.627-5.373-12-12-12s-12 5.373-12 12zm5.66 3.966L30.966 16.66a.972.972 0 011.374 1.374L22.034 28.34a.972.972 0 01-1.374-1.374zm-1.374-5.497l6.183-6.183a.972.972 0 011.375 1.374l-6.184 6.184a.972.972 0 01-1.374-1.375zm6.87 6.871l6.184-6.184a.972.972 0 111.374 1.375l-6.183 6.183a.972.972 0 01-1.375-1.374z"/></mask></defs><g filter="url(#a)"><path fill="none" stroke="#1d68b7" stroke-opacity=".3" stroke-width="3.2" d="M27 3c11.046 0 20 8.954 20 20s-8.954 20-20 20S7 34.046 7 23 15.954 3 27 3zm-1 37.973V40a1 1 0 112 0v.973a17.897 17.897 0 007.122-1.905l-.488-.846a1 1 0 011.732-1l.487.844a18.098 18.098 0 005.213-5.213l-.844-.487a1 1 0 011-1.732l.846.488A17.897 17.897 0 0044.973 24H44a1 1 0 010-2h.973a17.897 17.897 0 00-1.905-7.122l-.846.488a1 1 0 11-1-1.732l.844-.487a18.097 18.097 0 00-5.213-5.213l-.487.844a1 1 0 01-1.732-1l.488-.846A17.897 17.897 0 0028 5.027V6a1 1 0 11-2 0v-.973a17.9 17.9 0 00-7.122 1.905l.488.846a1 1 0 11-1.732 1l-.487-.844a18.097 18.097 0 00-5.213 5.213l.844.487a1 1 0 11-1 1.732l-.846-.488A17.897 17.897 0 009.027 22H10a1 1 0 110 2h-.973a17.9 17.9 0 001.905 7.122l.846-.488a1 1 0 111 1.732l-.844.487a18.098 18.098 0 005.213 5.213l.487-.844a1 1 0 011.732 1l-.488.846A17.897 17.897 0 0026 40.973zM27 9c7.732 0 14 6.268 14 14s-6.268 14-14 14-14-6.268-14-14S19.268 9 27 9zM15 23c0 6.628 5.373 12 12 12s12-5.372 12-12c0-6.627-5.373-12-12-12s-12 5.373-12 12zm5.66 3.966L30.966 16.66a.972.972 0 011.374 1.374L22.034 28.34a.972.972 0 01-1.374-1.374zm-1.374-5.497l6.183-6.183a.972.972 0 011.375 1.374l-6.184 6.184a.972.972 0 01-1.374-1.375zm6.87 6.871l6.184-6.184a.972.972 0 111.374 1.375l-6.183 6.183a.972.972 0 01-1.375-1.374z" mask="url(&quot;#b&quot;)"/><path fill="#1d68b7" fill-opacity=".3" d="M27 3c11.046 0 20 8.954 20 20s-8.954 20-20 20S7 34.046 7 23 15.954 3 27 3zm-1 37.973V40a1 1 0 112 0v.973a17.897 17.897 0 007.122-1.905l-.488-.846a1 1 0 011.732-1l.487.844a18.098 18.098 0 005.213-5.213l-.844-.487a1 1 0 011-1.732l.846.488A17.897 17.897 0 0044.973 24H44a1 1 0 010-2h.973a17.897 17.897 0 00-1.905-7.122l-.846.488a1 1 0 11-1-1.732l.844-.487a18.097 18.097 0 00-5.213-5.213l-.487.844a1 1 0 01-1.732-1l.488-.846A17.897 17.897 0 0028 5.027V6a1 1 0 11-2 0v-.973a17.9 17.9 0 00-7.122 1.905l.488.846a1 1 0 11-1.732 1l-.487-.844a18.097 18.097 0 00-5.213 5.213l.844.487a1 1 0 11-1 1.732l-.846-.488A17.897 17.897 0 009.027 22H10a1 1 0 110 2h-.973a17.9 17.9 0 001.905 7.122l.846-.488a1 1 0 111 1.732l-.844.487a18.098 18.098 0 005.213 5.213l.487-.844a1 1 0 011.732 1l-.488.846A17.897 17.897 0 0026 40.973zM27 9c7.732 0 14 6.268 14 14s-6.268 14-14 14-14-6.268-14-14S19.268 9 27 9zM15 23c0 6.628 5.373 12 12 12s12-5.372 12-12c0-6.627-5.373-12-12-12s-12 5.373-12 12zm5.66 3.966L30.966 16.66a.972.972 0 011.374 1.374L22.034 28.34a.972.972 0 01-1.374-1.374zm-1.374-5.497l6.183-6.183a.972.972 0 011.375 1.374l-6.184 6.184a.972.972 0 01-1.374-1.375zm6.87 6.871l6.184-6.184a.972.972 0 111.374 1.375l-6.183 6.183a.972.972 0 01-1.375-1.374z"/></g><path fill="#57a9ff" d="M27 3c11.046 0 20 8.954 20 20s-8.954 20-20 20S7 34.046 7 23 15.954 3 27 3zm-1 37.973V40a1 1 0 112 0v.973a17.897 17.897 0 007.122-1.905l-.488-.846a1 1 0 011.732-1l.487.844a18.098 18.098 0 005.213-5.213l-.844-.487a1 1 0 011-1.732l.846.488A17.897 17.897 0 0044.973 24H44a1 1 0 010-2h.973a17.897 17.897 0 00-1.905-7.122l-.846.488a1 1 0 11-1-1.732l.844-.487a18.097 18.097 0 00-5.213-5.213l-.487.844a1 1 0 01-1.732-1l.488-.846A17.897 17.897 0 0028 5.027V6a1 1 0 11-2 0v-.973a17.9 17.9 0 00-7.122 1.905l.488.846a1 1 0 11-1.732 1l-.487-.844a18.097 18.097 0 00-5.213 5.213l.844.487a1 1 0 11-1 1.732l-.846-.488A17.897 17.897 0 009.027 22H10a1 1 0 110 2h-.973a17.9 17.9 0 001.905 7.122l.846-.488a1 1 0 111 1.732l-.844.487a18.098 18.098 0 005.213 5.213l.487-.844a1 1 0 011.732 1l-.488.846A17.897 17.897 0 0026 40.973zM27 9c7.732 0 14 6.268 14 14s-6.268 14-14 14-14-6.268-14-14S19.268 9 27 9zM15 23c0 6.628 5.373 12 12 12s12-5.372 12-12c0-6.627-5.373-12-12-12s-12 5.373-12 12zm5.66 3.966L30.966 16.66a.972.972 0 011.374 1.374L22.034 28.34a.972.972 0 01-1.374-1.374zm-1.374-5.497l6.183-6.183a.972.972 0 011.375 1.374l-6.184 6.184a.972.972 0 01-1.374-1.375zm6.87 6.871l6.184-6.184a.972.972 0 111.374 1.375l-6.183 6.183a.972.972 0 01-1.375-1.374z"/></svg>