<svg xmlns="http://www.w3.org/2000/svg" viewBox="0 0 54 48"><defs><filter id="a" width="76" height="74" x="-11" y="-15" filterUnits="userSpaceOnUse"><feOffset dy="4" in="SourceGraphic" result="FeOffset1030Out"/><feGaussianBlur in="FeOffset1030Out" result="FeGaussianBlur1031Out" stdDeviation="2.56 2.56"/></filter><mask id="b" width="2.08" height="2.09" x="-1.04" y="-1.05"><path fill="#fff" d="M5.4 1.4h43.2v37.2H5.4z"/><path d="M46.897 11.074l-2.644 8.293-.65 1.96L41 28v8c0 .572-.43 1-1 1H14c-.57 0-1-.428-1-1v-8l-2.604-6.673-.65-1.96-2.643-8.293c-.1-.142-.1-.285-.1-.36 0-.573.413-.988.982-.988 2.775 0 5.48.691 7.823 2l.04.022.098.098c.15.078.294.289.343.542a1.04 1.04 0 01-.182.811l-.378.572c-.735 1.426-.182 3.11 1.304 3.887a2.85 2.85 0 001.332.334c1.064 0 2.047-.623 2.566-1.626.368-.71.434-1.51.188-2.252a2.819 2.819 0 00-1.397-1.629h-.015l-.143-.048c-.474-.285-.607-.876-.31-1.374 2.021-3.046 4.425-5.684 7.155-7.854A.98.98 0 0127 2.991a.98.98 0 01.591.218c2.73 2.17 5.134 4.808 7.155 7.854.297.498.164 1.089-.31 1.374l-.142.048h-.016a2.819 2.819 0 00-1.397 1.629 2.887 2.887 0 00.188 2.252c.519 1.003 1.502 1.626 2.566 1.626a2.85 2.85 0 001.332-.334c1.486-.777 2.04-2.461 1.304-3.887l-.378-.572a1.038 1.038 0 01-.182-.81c.05-.254.193-.465.343-.543l.098-.098.04-.023c2.342-1.308 5.048-1.999 7.823-1.999.569 0 .983.415.983.988 0 .075 0 .218-.101.36zM15 35h24v-6H15v2h7a1 1 0 110 2h-7zm27.673-17.092l2.085-6.113c-1.47.113-3.005.505-4.574 1.17a4.75 4.75 0 01.452 2.055c0 2.716-2.11 4.898-4.814 4.969-2.702 0-4.874-2.122-4.943-4.839 0-1.47.64-2.855 1.768-3.846-1.532-2.2-3.41-4.246-5.588-6.09L27 5.268l-.06-.054c-2.177 1.844-4.055 3.89-5.587 6.09 1.127.99 1.768 2.376 1.768 3.846-.07 2.717-2.24 4.839-4.943 4.839-2.703-.071-4.814-2.253-4.814-4.969 0-.735.156-1.438.452-2.055-1.57-.665-3.104-1.057-4.574-1.17l2.085 6.113 2.776 8.165.702.927h24.39l.702-.927z"/></mask></defs><g filter="url(#a)"><path fill="none" stroke="#00a9b8" stroke-opacity=".3" stroke-width="3.2" d="M46.897 11.074l-2.644 8.293-.65 1.96L41 28v8c0 .572-.43 1-1 1H14c-.57 0-1-.428-1-1v-8l-2.604-6.673-.65-1.96-2.643-8.293c-.1-.142-.1-.285-.1-.36 0-.573.413-.988.982-.988 2.775 0 5.48.691 7.823 2l.04.022.098.098c.15.078.294.289.343.542a1.04 1.04 0 01-.182.811l-.378.572c-.735 1.426-.182 3.11 1.304 3.887a2.85 2.85 0 001.332.334c1.064 0 2.047-.623 2.566-1.626.368-.71.434-1.51.188-2.252a2.819 2.819 0 00-1.397-1.629h-.015l-.143-.048c-.474-.285-.607-.876-.31-1.374 2.021-3.046 4.425-5.684 7.155-7.854A.98.98 0 0127 2.991a.98.98 0 01.591.218c2.73 2.17 5.134 4.808 7.155 7.854.297.498.164 1.089-.31 1.374l-.142.048h-.016a2.819 2.819 0 00-1.397 1.629 2.887 2.887 0 00.188 2.252c.519 1.003 1.502 1.626 2.566 1.626a2.85 2.85 0 001.332-.334c1.486-.777 2.04-2.461 1.304-3.887l-.378-.572a1.038 1.038 0 01-.182-.81c.05-.254.193-.465.343-.543l.098-.098.04-.023c2.342-1.308 5.048-1.999 7.823-1.999.569 0 .983.415.983.988 0 .075 0 .218-.101.36zM15 35h24v-6H15v2h7a1 1 0 110 2h-7zm27.673-17.092l2.085-6.113c-1.47.113-3.005.505-4.574 1.17a4.75 4.75 0 01.452 2.055c0 2.716-2.11 4.898-4.814 4.969-2.702 0-4.874-2.122-4.943-4.839 0-1.47.64-2.855 1.768-3.846-1.532-2.2-3.41-4.246-5.588-6.09L27 5.268l-.06-.054c-2.177 1.844-4.055 3.89-5.587 6.09 1.127.99 1.768 2.376 1.768 3.846-.07 2.717-2.24 4.839-4.943 4.839-2.703-.071-4.814-2.253-4.814-4.969 0-.735.156-1.438.452-2.055-1.57-.665-3.104-1.057-4.574-1.17l2.085 6.113 2.776 8.165.702.927h24.39l.702-.927z" mask="url(&quot;#b&quot;)"/><path fill="#00a9b8" fill-opacity=".3" d="M46.897 11.074l-2.644 8.293-.65 1.96L41 28v8c0 .572-.43 1-1 1H14c-.57 0-1-.428-1-1v-8l-2.604-6.673-.65-1.96-2.643-8.293c-.1-.142-.1-.285-.1-.36 0-.573.413-.988.982-.988 2.775 0 5.48.691 7.823 2l.04.022.098.098c.15.078.294.289.343.542a1.04 1.04 0 01-.182.811l-.378.572c-.735 1.426-.182 3.11 1.304 3.887a2.85 2.85 0 001.332.334c1.064 0 2.047-.623 2.566-1.626.368-.71.434-1.51.188-2.252a2.819 2.819 0 00-1.397-1.629h-.015l-.143-.048c-.474-.285-.607-.876-.31-1.374 2.021-3.046 4.425-5.684 7.155-7.854A.98.98 0 0127 2.991a.98.98 0 01.591.218c2.73 2.17 5.134 4.808 7.155 7.854.297.498.164 1.089-.31 1.374l-.142.048h-.016a2.819 2.819 0 00-1.397 1.629 2.887 2.887 0 00.188 2.252c.519 1.003 1.502 1.626 2.566 1.626a2.85 2.85 0 001.332-.334c1.486-.777 2.04-2.461 1.304-3.887l-.378-.572a1.038 1.038 0 01-.182-.81c.05-.254.193-.465.343-.543l.098-.098.04-.023c2.342-1.308 5.048-1.999 7.823-1.999.569 0 .983.415.983.988 0 .075 0 .218-.101.36zM15 35h24v-6H15v2h7a1 1 0 110 2h-7zm27.673-17.092l2.085-6.113c-1.47.113-3.005.505-4.574 1.17a4.75 4.75 0 01.452 2.055c0 2.716-2.11 4.898-4.814 4.969-2.702 0-4.874-2.122-4.943-4.839 0-1.47.64-2.855 1.768-3.846-1.532-2.2-3.41-4.246-5.588-6.09L27 5.268l-.06-.054c-2.177 1.844-4.055 3.89-5.587 6.09 1.127.99 1.768 2.376 1.768 3.846-.07 2.717-2.24 4.839-4.943 4.839-2.703-.071-4.814-2.253-4.814-4.969 0-.735.156-1.438.452-2.055-1.57-.665-3.104-1.057-4.574-1.17l2.085 6.113 2.776 8.165.702.927h24.39l.702-.927z"/></g><path fill="#00eaff" d="M46.897 11.074l-2.644 8.293-.65 1.96L41 28v8c0 .572-.43 1-1 1H14c-.57 0-1-.428-1-1v-8l-2.604-6.673-.65-1.96-2.643-8.293c-.1-.142-.1-.285-.1-.36 0-.573.413-.988.982-.988 2.775 0 5.48.691 7.823 2l.04.022.098.098c.15.078.294.289.343.542a1.04 1.04 0 01-.182.811l-.378.572c-.735 1.426-.182 3.11 1.304 3.887a2.85 2.85 0 001.332.334c1.064 0 2.047-.623 2.566-1.626.368-.71.434-1.51.188-2.252a2.819 2.819 0 00-1.397-1.629h-.015l-.143-.048c-.474-.285-.607-.876-.31-1.374 2.021-3.046 4.425-5.684 7.155-7.854A.98.98 0 0127 2.991a.98.98 0 01.591.218c2.73 2.17 5.134 4.808 7.155 7.854.297.498.164 1.089-.31 1.374l-.142.048h-.016a2.819 2.819 0 00-1.397 1.629 2.887 2.887 0 00.188 2.252c.519 1.003 1.502 1.626 2.566 1.626a2.85 2.85 0 001.332-.334c1.486-.777 2.04-2.461 1.304-3.887l-.378-.572a1.038 1.038 0 01-.182-.81c.05-.254.193-.465.343-.543l.098-.098.04-.023c2.342-1.308 5.048-1.999 7.823-1.999.569 0 .983.415.983.988 0 .075 0 .218-.101.36zM15 35h24v-6H15v2h7a1 1 0 110 2h-7zm27.673-17.092l2.085-6.113c-1.47.113-3.005.505-4.574 1.17a4.75 4.75 0 01.452 2.055c0 2.716-2.11 4.898-4.814 4.969-2.702 0-4.874-2.122-4.943-4.839 0-1.47.64-2.855 1.768-3.846-1.532-2.2-3.41-4.246-5.588-6.09L27 5.268l-.06-.054c-2.177 1.844-4.055 3.89-5.587 6.09 1.127.99 1.768 2.376 1.768 3.846-.07 2.717-2.24 4.839-4.943 4.839-2.703-.071-4.814-2.253-4.814-4.969 0-.735.156-1.438.452-2.055-1.57-.665-3.104-1.057-4.574-1.17l2.085 6.113 2.776 8.165.702.927h24.39l.702-.927z"/></svg>