<svg xmlns="http://www.w3.org/2000/svg" viewBox="0 0 49 52"><defs><filter id="a" width="72" height="78" x="-12" y="-15" filterUnits="userSpaceOnUse"><feOffset dy="4" in="SourceGraphic" result="FeOffset1224Out"/><feGaussianBlur in="FeOffset1224Out" result="FeGaussianBlur1225Out" stdDeviation="2.56 2.56"/></filter><mask id="b" width="2.09" height="2.08" x="-1.04" y="-1.04"><path fill="#fff" d="M4.4 1.4h39.2v41.2H4.4z"/><path d="M35.661 40.938H18.707c-2.79 0-3.77-1.213-4.488-2.1-.523-.647-.786-.972-1.702-.972l-5.589-.022V17.32h7.155c.511-.038 2.33-1.305 3.904-2.721.334-.378.664-.736.982-1.083 1.957-2.133 3.372-3.674 3.372-6.526V5.64c0-1.056.619-1.925 1.615-2.266 1.318-.45 2.92.124 3.9 1.395 1.447 1.878 2.052 3.213 2.052 6.616 0 2.266-.492 3.672-.785 4.512-.076.217-.17.488-.179.576v4.044c0 5.039-3.06 9.443-7.8 11.221l-.694-1.859c4.019-1.508 6.514-5.095 6.514-9.362V16.46c0-.39.128-.757.29-1.22.27-.767.674-1.927.674-3.855 0-2.979-.475-3.89-1.639-5.402-.585-.76-1.334-.852-1.693-.73-.229.078-.275.212-.275.387v1.352c0 3.627-1.805 5.593-3.895 7.87-.322.351-.656.715-.996 1.099l-.077.077c-1.086.983-3.774 3.27-5.27 3.27H8.908v16.56l3.612.013h.001c1.856 0 2.621.948 3.236 1.709.617.762 1.104 1.364 2.95 1.364h16.954c.878 0 1.918-1.197 1.918-2.208l.013-.163 2.143-12.863c.166-.996-.14-2.016-.863-2.872-.815-.965-2.015-1.54-3.21-1.54h-4.624V17.32h4.623c1.772 0 3.537.839 4.722 2.244 1.09 1.29 1.565 2.924 1.305 4.482l-2.13 12.788c-.055 1.881-1.772 4.103-3.897 4.103z"/></mask></defs><g filter="url(#a)"><path fill="none" stroke="#00a9b8" stroke-opacity=".3" stroke-width="3.2" d="M35.661 40.938H18.707c-2.79 0-3.77-1.213-4.488-2.1-.523-.647-.786-.972-1.702-.972h0v0l-5.589-.022v0V17.32v0h7.155c.511-.038 2.33-1.305 3.904-2.721.334-.378.664-.736.982-1.083 1.957-2.133 3.372-3.674 3.372-6.526V5.64c0-1.056.619-1.925 1.615-2.266 1.318-.45 2.92.124 3.9 1.395 1.447 1.878 2.052 3.213 2.052 6.616 0 2.266-.492 3.672-.785 4.512-.076.217-.17.488-.179.576v4.044c0 5.039-3.06 9.443-7.8 11.221l-.694-1.859c4.019-1.508 6.514-5.095 6.514-9.362V16.46c0-.39.128-.757.29-1.22.27-.767.674-1.927.674-3.855 0-2.979-.475-3.89-1.639-5.402-.585-.76-1.334-.852-1.693-.73-.229.078-.275.212-.275.387v1.352c0 3.627-1.805 5.593-3.895 7.87-.322.351-.656.715-.996 1.099l-.077.077c-1.086.983-3.774 3.27-5.27 3.27H8.908v16.56l3.612.013v0h.001c1.856 0 2.621.948 3.236 1.709.617.762 1.104 1.364 2.95 1.364h16.954c.878 0 1.918-1.197 1.918-2.208l.013-.163v0l2.143-12.863c.166-.996-.14-2.016-.863-2.872-.815-.965-2.015-1.54-3.21-1.54h-4.624v0-1.986 0h4.623c1.772 0 3.537.839 4.722 2.244 1.09 1.29 1.565 2.924 1.305 4.482l-2.13 12.788c-.055 1.881-1.772 4.103-3.897 4.103z" mask="url(&quot;#b&quot;)"/><path fill="#00a9b8" fill-opacity=".3" d="M35.661 40.938H18.707c-2.79 0-3.77-1.213-4.488-2.1-.523-.647-.786-.972-1.702-.972l-5.589-.022V17.32h7.155c.511-.038 2.33-1.305 3.904-2.721.334-.378.664-.736.982-1.083 1.957-2.133 3.372-3.674 3.372-6.526V5.64c0-1.056.619-1.925 1.615-2.266 1.318-.45 2.92.124 3.9 1.395 1.447 1.878 2.052 3.213 2.052 6.616 0 2.266-.492 3.672-.785 4.512-.076.217-.17.488-.179.576v4.044c0 5.039-3.06 9.443-7.8 11.221l-.694-1.859c4.019-1.508 6.514-5.095 6.514-9.362V16.46c0-.39.128-.757.29-1.22.27-.767.674-1.927.674-3.855 0-2.979-.475-3.89-1.639-5.402-.585-.76-1.334-.852-1.693-.73-.229.078-.275.212-.275.387v1.352c0 3.627-1.805 5.593-3.895 7.87-.322.351-.656.715-.996 1.099l-.077.077c-1.086.983-3.774 3.27-5.27 3.27H8.908v16.56l3.612.013h.001c1.856 0 2.621.948 3.236 1.709.617.762 1.104 1.364 2.95 1.364h16.954c.878 0 1.918-1.197 1.918-2.208l.013-.163 2.143-12.863c.166-.996-.14-2.016-.863-2.872-.815-.965-2.015-1.54-3.21-1.54h-4.624V17.32h4.623c1.772 0 3.537.839 4.722 2.244 1.09 1.29 1.565 2.924 1.305 4.482l-2.13 12.788c-.055 1.881-1.772 4.103-3.897 4.103z"/></g><path fill="#00eaff" d="M35.661 40.938H18.707c-2.79 0-3.77-1.213-4.488-2.1-.523-.647-.786-.972-1.702-.972l-5.589-.022V17.32h7.155c.511-.038 2.33-1.305 3.904-2.721.334-.378.664-.736.982-1.083 1.957-2.133 3.372-3.674 3.372-6.526V5.64c0-1.056.619-1.925 1.615-2.266 1.318-.45 2.92.124 3.9 1.395 1.447 1.878 2.052 3.213 2.052 6.616 0 2.266-.492 3.672-.785 4.512-.076.217-.17.488-.179.576v4.044c0 5.039-3.06 9.443-7.8 11.221l-.694-1.859c4.019-1.508 6.514-5.095 6.514-9.362V16.46c0-.39.128-.757.29-1.22.27-.767.674-1.927.674-3.855 0-2.979-.475-3.89-1.639-5.402-.585-.76-1.334-.852-1.693-.73-.229.078-.275.212-.275.387v1.352c0 3.627-1.805 5.593-3.895 7.87-.322.351-.656.715-.996 1.099l-.077.077c-1.086.983-3.774 3.27-5.27 3.27H8.908v16.56l3.612.013h.001c1.856 0 2.621.948 3.236 1.709.617.762 1.104 1.364 2.95 1.364h16.954c.878 0 1.918-1.197 1.918-2.208l.013-.163 2.143-12.863c.166-.996-.14-2.016-.863-2.872-.815-.965-2.015-1.54-3.21-1.54h-4.624V17.32h4.623c1.772 0 3.537.839 4.722 2.244 1.09 1.29 1.565 2.924 1.305 4.482l-2.13 12.788c-.055 1.881-1.772 4.103-3.897 4.103z"/></svg>