<svg width="235" height="40" viewBox="0 0 235 40" fill="none" xmlns="http://www.w3.org/2000/svg">
<g clip-path="url(#clip0_3_4)">
<path fill-rule="evenodd" clip-rule="evenodd" d="M100.271 6.82057C105.031 6.72124 108.033 7.92633 111.253 9.02414C110.193 11.2138 109.132 13.4034 108.07 15.5931C106.586 14.7814 97.0623 11.9077 96.8486 15.1759C96.8606 16.6319 98.8582 16.9597 100.51 17.3769C104.726 18.4398 108.752 19.3906 109.502 23.9856C110.862 32.31 99.9656 35.5753 91.9159 34.2782C89.4489 33.8809 86.4673 33.3175 84.7539 31.9013C85.8943 29.74 87.0349 27.5773 88.1758 25.4132C92.117 28.0797 100.752 29.7826 100.589 26.3427C100.491 25.1095 98.0585 24.6625 96.4519 24.1871C93.8945 23.4307 90.8543 22.7084 89.3695 20.8508C85.0872 15.4923 90.5123 9.50947 94.6215 7.87808C96.4218 7.17311 98.3383 6.81435 100.271 6.82057V6.82057ZM5.0945 7.6831C8.09182 7.70031 11.0893 7.71744 14.087 7.73447C15.5456 12.4214 17.0046 17.1086 18.464 21.7959L18.6232 21.715C21.9649 17.0131 25.3071 12.3108 28.6498 7.60803C31.6737 7.59857 34.6975 7.5891 37.7214 7.57964C36.0239 16.4618 34.3263 25.3444 32.6284 34.2274C29.711 34.236 26.7932 34.2454 23.8749 34.2558C24.6174 30.2285 25.3601 26.2006 26.103 22.1723C26.0764 22.2262 26.0498 22.2787 26.0234 22.3326L17.4288 34.2757L14.8028 34.2842C13.556 30.3689 12.3092 26.4541 11.0624 22.5398H10.9829C10.2406 26.461 9.49821 30.3819 8.75579 34.3024C5.83819 34.3123 2.92026 34.3218 0.0019989 34.3307C1.6994 25.4487 3.3969 16.5661 5.0945 7.6831ZM142.448 7.24588L141.255 13.8872L133.217 13.9128C131.944 20.5811 130.671 27.2498 129.397 33.9191C126.48 33.9276 123.562 33.937 120.644 33.9474V33.7062C121.916 27.1188 123.189 20.5304 124.463 13.9411C121.891 13.9497 119.317 13.9577 116.744 13.9653V13.7254C117.168 11.5925 117.593 9.45862 118.017 7.32365L142.448 7.24588ZM202.61 13.6929C198.26 13.7071 193.909 13.7208 189.559 13.7341C189.374 14.8538 189.188 15.9739 189.001 17.0945C192.848 17.0832 196.694 17.0709 200.541 17.0576C200.116 19.2714 199.692 21.4856 199.267 23.7004C195.395 23.7117 191.522 23.724 187.648 23.7372C187.436 24.8569 187.224 25.9771 187.013 27.0977L200.223 27.0551V27.136C199.798 29.3228 199.373 31.5101 198.949 33.6978C191.629 33.7205 184.308 33.7437 176.985 33.7674V33.6879C178.71 24.8328 180.434 15.9767 182.157 7.11957L203.882 7.05047C203.46 9.26405 203.036 11.4782 202.61 13.6929ZM210.489 7.02947C218.657 7.00364 226.827 6.97767 234.999 6.95156C234.574 9.166 234.149 11.3798 233.725 13.5929C231.045 13.6284 228.366 13.6634 225.688 13.6979C224.414 20.3392 223.141 26.9815 221.868 33.6248C218.95 33.6333 216.032 33.6423 213.114 33.6517C214.414 27.0104 215.714 20.3686 217.014 13.7263V13.6454L209.215 13.671C209.639 11.4576 210.064 9.24382 210.489 7.02947V7.02947ZM149.213 7.30449C155.994 7.20515 166.501 6.24499 170.459 9.07664C172.824 10.7682 173.331 14.9346 171.415 17.5514C170.524 18.7662 169.234 19.2416 167.993 20.12V20.2009C172.593 21.6185 172.266 28.4813 168.948 31.0739C163.948 34.9821 152.636 33.8781 143.88 33.8724C145.658 25.0173 147.435 16.1613 149.213 7.30449ZM155.817 17.2009C158.867 17.2889 163.133 17.6494 162.342 14.8083C161.846 13.7199 157.996 13.4631 156.374 13.92C156.188 15.0127 156.003 16.1063 155.817 17.2009V17.2009ZM154.465 23.8423C154.252 24.9619 154.04 26.0825 153.828 27.2041C156.944 27.275 161.576 28.0413 161.149 24.7803C160.987 24.285 160.74 24.0353 160.433 23.9161C159.518 23.4222 155.836 23.8224 154.465 23.8423V23.8423Z" fill="white"/>
<path fill-rule="evenodd" clip-rule="evenodd" d="M61.2637 -1.95204e-05C72.2405 -0.0350141 81.1391 8.89074 81.1393 19.9363C81.1395 30.9818 72.241 39.9645 61.2639 39.9998C50.2869 40.035 41.3881 31.1088 41.3881 20.0632C41.3881 9.01771 50.2866 0.0352115 61.2637 -1.95204e-05Z" fill="#FB4D00"/>
<path d="M61.2221 33.0661C59.4843 33.0661 57.7985 32.7261 56.2105 32.0553C54.664 31.4022 53.2752 30.4645 52.0827 29.2683C50.8901 28.0721 49.9537 26.6775 49.2994 25.1235C48.6222 23.5145 48.2787 21.8042 48.2787 20.0403C48.2787 18.2766 48.622 16.5645 49.2992 14.9512C49.9532 13.3935 50.8892 11.9932 52.0815 10.7897C53.2738 9.58617 54.6621 8.63989 56.2084 7.97689C57.8093 7.29047 59.5097 6.93935 61.2625 6.93391C63.0144 6.92823 64.7159 7.26848 66.3169 7.94473C67.8634 8.59804 69.2521 9.53557 70.4445 10.7318C71.6371 11.928 72.5735 13.3225 73.2277 14.8765C73.9049 16.4855 74.2485 18.1958 74.2485 19.9597C74.2485 21.7234 73.9052 23.4355 73.2282 25.0488C72.5742 26.6065 71.6382 28.0068 70.4459 29.2103C69.2536 30.4139 67.8652 31.3604 66.319 32.0231C64.718 32.7098 63.0176 33.0607 61.2649 33.0664C61.2505 33.0664 61.2362 33.0664 61.2221 33.0664V33.0661ZM61.2646 7.64326C54.4927 7.66501 48.9836 13.2263 48.9836 20.0403C48.9836 23.3409 50.261 26.4396 52.5804 28.766C54.8898 31.0825 57.9579 32.3568 61.2223 32.357C61.236 32.357 61.2491 32.357 61.2625 32.357C68.0344 32.3352 73.5435 26.7739 73.5435 19.9599C73.5435 16.6596 72.2661 13.5607 69.947 11.2345C67.6281 8.9085 64.5448 7.63238 61.2649 7.64349L61.2646 7.64326Z" fill="white"/>
<path fill-rule="evenodd" clip-rule="evenodd" d="M61.2637 9.49773C67.0277 9.47929 71.7005 14.1664 71.7005 19.9666C71.7005 25.7667 67.028 30.4836 61.2637 30.5021C55.4994 30.5205 50.8266 25.8334 50.8266 20.0332C50.8266 14.2331 55.4994 9.51618 61.2634 9.49773H61.2637Z" fill="white"/>
<path fill-rule="evenodd" clip-rule="evenodd" d="M78.9196 28.3082H78.9194C77.6666 27.0477 75.6359 27.0477 74.3834 28.3082L69.5381 33.1836H69.5379C68.2854 34.4441 68.2854 36.4875 69.5381 37.748L69.8185 38.0301C73.912 36.0503 77.2317 32.7048 79.1936 28.5837L78.9196 28.3082ZM53.0191 33.1836L48.1736 28.3082C46.9211 27.0477 44.8901 27.0477 43.6374 28.3082L43.3068 28.6409C45.2623 32.7703 48.5877 36.1127 52.6922 38.0769L53.0191 37.748C54.2716 36.4875 54.2716 34.4439 53.0191 33.1836V33.1836ZM53.0203 2.25806L52.7258 1.96179C48.6272 3.93946 45.3028 7.28546 43.3375 11.4084L43.632 11.7047C44.8847 12.965 46.9155 12.965 48.1682 11.7047L53.0203 6.82249C54.2728 5.56198 54.2728 3.51858 53.0203 2.25806V2.25806ZM69.9468 1.97716L69.5379 2.38858C68.2852 3.64886 68.2852 5.6925 69.5379 6.95301L74.3834 11.8286C75.6359 13.0889 77.6669 13.0889 78.9196 11.8286L79.2737 11.472C77.3428 7.3285 74.0372 3.96618 69.9468 1.97716V1.97716Z" fill="white"/>
</g>
<defs>
<clipPath id="clip0_3_4">
<rect width="235" height="40" fill="white"/>
</clipPath>
</defs>
</svg>
