<svg xmlns="http://www.w3.org/2000/svg" viewBox="0 0 54 48"><defs><filter id="a" width="76" height="74" x="-11" y="-15" filterUnits="userSpaceOnUse"><feOffset dy="4" in="SourceGraphic" result="FeOffset1023Out"/><feGaussianBlur in="FeOffset1023Out" result="FeGaussianBlur1024Out" stdDeviation="2.56 2.56"/></filter><mask id="b" width="2.08" height="2.09" x="-1.04" y="-1.05"><path fill="#fff" d="M5.4 1.4h43.2v37.2H5.4z"/><path d="M42.205 16.137c.417-1.725.918-3.53 1.377-5.185.475-1.713.93-3.353 1.19-4.545-7.512-1.255-11.274 1.225-12.33 2.954a1 1 0 01-.183.22c.073 1.35.104 3.146-.085 4.769 2.317-.2 7.472-.362 10.03 1.787zm3.928-11.509a.998.998 0 01.79 1.12c-.183 1.284-.755 3.348-1.418 5.737-.67 2.419-1.43 5.16-1.874 7.443a1.019 1.019 0 01-.007.039c-.48 2.19-3.714 2.427-5.082 2.427-2.001 0-4.349-.846-4.448-.882a.997.997 0 01.681-1.876c.022.008 2.121.762 3.767.762 1.572 0 2.76-.354 3.063-.724-.813-2.56-6.726-2.66-9.839-2.285-.167.527-.38.984-.65 1.332v.001c-.695.896-2.205 1.257-3.847 1.257-1.697 0-3.537-.387-4.762-.966a.998.998 0 01-.571-.925c-1.101-.234-3.177-.624-4.752-.624-1.84 0-3.973.828-4.701 2.415.366.645 1.488.883 2.82.56a188.86 188.86 0 013.296-.773.997.997 0 11.435 1.948c-.004 0-1.43.318-3.26.764-.567.137-1.098.2-1.588.2-2.064 0-3.409-1.118-3.74-2.47a.999.999 0 01-.028-.25c-.055-5.31-1.785-9.268-3.312-12.76a.996.996 0 01.545-1.327c6.319-2.514 11.99-1.323 15.09 1 1.36-1.266 3.79-1.675 5.748-1.285 1.682.332 2.888 1.22 3.399 2.456 2.36-2.176 7.065-3.757 14.245-2.314zM22.228 7.956c-2.297-2.298-7.365-3.529-12.87-1.685 1.167 2.704 2.428 5.905 2.882 9.816 1.399-1.1 3.296-1.619 4.944-1.619 1.854 0 4.204.457 5.33.702.526-2.313.534-5.543-.235-7.166a1.01 1.01 0 01-.051-.048zm1.978 8.58c2.125.665 4.887.536 5.332-.037.725-.935.984-4.44.618-8.333-.11-1.168-1.333-1.58-2.053-1.722-1.475-.288-3.217.08-3.99.778 1.111 2.475.874 6.736.093 9.313zm-6.56 14.854a.998.998 0 01-.517-1.409c.518-.952 1.026-1.787 1.516-2.594 1.446-2.382 2.588-4.262 2.902-7.332a1.01 1.01 0 011.094-.892.999.999 0 01.892 1.095c-.36 3.518-1.668 5.67-3.182 8.165-.289.475-.584.96-.882 1.471 3.105.885 6.667.75 9.023.501-.11-3.24-.78-7.16-1.256-8.835a.998.998 0 111.92-.546c.565 1.99 1.348 6.664 1.348 10.266a1 1 0 01-.868.99 37.45 37.45 0 01-2.707.258 7.39 7.39 0 00.669 2.368c2.134-.465 6.1-2.14 8.598-3.761-2.55-2.804-5.672-7.627-5.604-10.999a.999.999 0 01.998-.977h.02a1 1 0 01.978 1.018c-.055 2.649 3.032 7.669 5.829 10.388a.998.998 0 01-.085 1.505c-2.66 2.06-8.502 4.634-11.16 4.918a1 1 0 01-.955-.467c-.868-1.402-1.172-2.847-1.275-3.813a1.01 1.01 0 01-.006-.124c-2.406-.009-4.988-.308-7.29-1.194z"/></mask></defs><g filter="url(#a)"><path fill="none" stroke="#ff5ec8" stroke-opacity=".3" stroke-width="3.2" d="M42.205 16.137c.417-1.725.918-3.53 1.377-5.185.475-1.713.93-3.353 1.19-4.545-7.512-1.255-11.274 1.225-12.33 2.954a1 1 0 01-.183.22c.073 1.35.104 3.146-.085 4.769 2.317-.2 7.472-.362 10.03 1.787zm3.928-11.509a.998.998 0 01.79 1.12c-.183 1.284-.755 3.348-1.418 5.737-.67 2.419-1.43 5.16-1.874 7.443a1.019 1.019 0 01-.007.039c-.48 2.19-3.714 2.427-5.082 2.427-2.001 0-4.349-.846-4.448-.882a.997.997 0 01.681-1.876c.022.008 2.121.762 3.767.762 1.572 0 2.76-.354 3.063-.724-.813-2.56-6.726-2.66-9.839-2.285-.167.527-.38.984-.65 1.332v.001c-.695.896-2.205 1.257-3.847 1.257-1.697 0-3.537-.387-4.762-.966a.998.998 0 01-.571-.925c-1.101-.234-3.177-.624-4.752-.624-1.84 0-3.973.828-4.701 2.415.366.645 1.488.883 2.82.56a188.86 188.86 0 013.296-.773.997.997 0 11.435 1.948c-.004 0-1.43.318-3.26.764-.567.137-1.098.2-1.588.2-2.064 0-3.409-1.118-3.74-2.47a.999.999 0 01-.028-.25c-.055-5.31-1.785-9.268-3.312-12.76a.996.996 0 01.545-1.327c6.319-2.514 11.99-1.323 15.09 1 1.36-1.266 3.79-1.675 5.748-1.285 1.682.332 2.888 1.22 3.399 2.456 2.36-2.176 7.065-3.757 14.245-2.314zM22.228 7.956c-2.297-2.298-7.365-3.529-12.87-1.685 1.167 2.704 2.428 5.905 2.882 9.816 1.399-1.1 3.296-1.619 4.944-1.619 1.854 0 4.204.457 5.33.702.526-2.313.534-5.543-.235-7.166a1.01 1.01 0 01-.051-.048zm1.978 8.58c2.125.665 4.887.536 5.332-.037.725-.935.984-4.44.618-8.333-.11-1.168-1.333-1.58-2.053-1.722-1.475-.288-3.217.08-3.99.778 1.111 2.475.874 6.736.093 9.313zm-6.56 14.854a.998.998 0 01-.517-1.409c.518-.952 1.026-1.787 1.516-2.594 1.446-2.382 2.588-4.262 2.902-7.332a1.01 1.01 0 011.094-.892.999.999 0 01.892 1.095c-.36 3.518-1.668 5.67-3.182 8.165-.289.475-.584.96-.882 1.471 3.105.885 6.667.75 9.023.501-.11-3.24-.78-7.16-1.256-8.835a.998.998 0 111.92-.546c.565 1.99 1.348 6.664 1.348 10.266a1 1 0 01-.868.99 37.45 37.45 0 01-2.707.258 7.39 7.39 0 00.669 2.368c2.134-.465 6.1-2.14 8.598-3.761-2.55-2.804-5.672-7.627-5.604-10.999a.999.999 0 01.998-.977h.02a1 1 0 01.978 1.018c-.055 2.649 3.032 7.669 5.829 10.388a.998.998 0 01-.085 1.505c-2.66 2.06-8.502 4.634-11.16 4.918a1 1 0 01-.955-.467c-.868-1.402-1.172-2.847-1.275-3.813a1.01 1.01 0 01-.006-.124c-2.406-.009-4.988-.308-7.29-1.194z" mask="url(&quot;#b&quot;)"/><path fill="#ff5ec8" fill-opacity=".3" d="M42.205 16.137c.417-1.725.918-3.53 1.377-5.185.475-1.713.93-3.353 1.19-4.545-7.512-1.255-11.274 1.225-12.33 2.954a1 1 0 01-.183.22c.073 1.35.104 3.146-.085 4.769 2.317-.2 7.472-.362 10.03 1.787zm3.928-11.509a.998.998 0 01.79 1.12c-.183 1.284-.755 3.348-1.418 5.737-.67 2.419-1.43 5.16-1.874 7.443a1.019 1.019 0 01-.007.039c-.48 2.19-3.714 2.427-5.082 2.427-2.001 0-4.349-.846-4.448-.882a.997.997 0 01.681-1.876c.022.008 2.121.762 3.767.762 1.572 0 2.76-.354 3.063-.724-.813-2.56-6.726-2.66-9.839-2.285-.167.527-.38.984-.65 1.332v.001c-.695.896-2.205 1.257-3.847 1.257-1.697 0-3.537-.387-4.762-.966a.998.998 0 01-.571-.925c-1.101-.234-3.177-.624-4.752-.624-1.84 0-3.973.828-4.701 2.415.366.645 1.488.883 2.82.56a188.86 188.86 0 013.296-.773.997.997 0 11.435 1.948c-.004 0-1.43.318-3.26.764-.567.137-1.098.2-1.588.2-2.064 0-3.409-1.118-3.74-2.47a.999.999 0 01-.028-.25c-.055-5.31-1.785-9.268-3.312-12.76a.996.996 0 01.545-1.327c6.319-2.514 11.99-1.323 15.09 1 1.36-1.266 3.79-1.675 5.748-1.285 1.682.332 2.888 1.22 3.399 2.456 2.36-2.176 7.065-3.757 14.245-2.314zM22.228 7.956c-2.297-2.298-7.365-3.529-12.87-1.685 1.167 2.704 2.428 5.905 2.882 9.816 1.399-1.1 3.296-1.619 4.944-1.619 1.854 0 4.204.457 5.33.702.526-2.313.534-5.543-.235-7.166a1.01 1.01 0 01-.051-.048zm1.978 8.58c2.125.665 4.887.536 5.332-.037.725-.935.984-4.44.618-8.333-.11-1.168-1.333-1.58-2.053-1.722-1.475-.288-3.217.08-3.99.778 1.111 2.475.874 6.736.093 9.313zm-6.56 14.854a.998.998 0 01-.517-1.409c.518-.952 1.026-1.787 1.516-2.594 1.446-2.382 2.588-4.262 2.902-7.332a1.01 1.01 0 011.094-.892.999.999 0 01.892 1.095c-.36 3.518-1.668 5.67-3.182 8.165-.289.475-.584.96-.882 1.471 3.105.885 6.667.75 9.023.501-.11-3.24-.78-7.16-1.256-8.835a.998.998 0 111.92-.546c.565 1.99 1.348 6.664 1.348 10.266a1 1 0 01-.868.99 37.45 37.45 0 01-2.707.258 7.39 7.39 0 00.669 2.368c2.134-.465 6.1-2.14 8.598-3.761-2.55-2.804-5.672-7.627-5.604-10.999a.999.999 0 01.998-.977h.02a1 1 0 01.978 1.018c-.055 2.649 3.032 7.669 5.829 10.388a.998.998 0 01-.085 1.505c-2.66 2.06-8.502 4.634-11.16 4.918a1 1 0 01-.955-.467c-.868-1.402-1.172-2.847-1.275-3.813a1.01 1.01 0 01-.006-.124c-2.406-.009-4.988-.308-7.29-1.194z"/></g><path fill="#ff5ec8" d="M42.205 16.137c.417-1.725.918-3.53 1.377-5.185.475-1.713.93-3.353 1.19-4.545-7.512-1.255-11.274 1.225-12.33 2.954a1 1 0 01-.183.22c.073 1.35.104 3.146-.085 4.769 2.317-.2 7.472-.362 10.03 1.787zm3.928-11.509a.998.998 0 01.79 1.12c-.183 1.284-.755 3.348-1.418 5.737-.67 2.419-1.43 5.16-1.874 7.443a1.019 1.019 0 01-.007.039c-.48 2.19-3.714 2.427-5.082 2.427-2.001 0-4.349-.846-4.448-.882a.997.997 0 01.681-1.876c.022.008 2.121.762 3.767.762 1.572 0 2.76-.354 3.063-.724-.813-2.56-6.726-2.66-9.839-2.285-.167.527-.38.984-.65 1.332v.001c-.695.896-2.205 1.257-3.847 1.257-1.697 0-3.537-.387-4.762-.966a.998.998 0 01-.571-.925c-1.101-.234-3.177-.624-4.752-.624-1.84 0-3.973.828-4.701 2.415.366.645 1.488.883 2.82.56a188.86 188.86 0 013.296-.773.997.997 0 11.435 1.948c-.004 0-1.43.318-3.26.764-.567.137-1.098.2-1.588.2-2.064 0-3.409-1.118-3.74-2.47a.999.999 0 01-.028-.25c-.055-5.31-1.785-9.268-3.312-12.76a.996.996 0 01.545-1.327c6.319-2.514 11.99-1.323 15.09 1 1.36-1.266 3.79-1.675 5.748-1.285 1.682.332 2.888 1.22 3.399 2.456 2.36-2.176 7.065-3.757 14.245-2.314zM22.228 7.956c-2.297-2.298-7.365-3.529-12.87-1.685 1.167 2.704 2.428 5.905 2.882 9.816 1.399-1.1 3.296-1.619 4.944-1.619 1.854 0 4.204.457 5.33.702.526-2.313.534-5.543-.235-7.166a1.01 1.01 0 01-.051-.048zm1.978 8.58c2.125.665 4.887.536 5.332-.037.725-.935.984-4.44.618-8.333-.11-1.168-1.333-1.58-2.053-1.722-1.475-.288-3.217.08-3.99.778 1.111 2.475.874 6.736.093 9.313zm-6.56 14.854a.998.998 0 01-.517-1.409c.518-.952 1.026-1.787 1.516-2.594 1.446-2.382 2.588-4.262 2.902-7.332a1.01 1.01 0 011.094-.892.999.999 0 01.892 1.095c-.36 3.518-1.668 5.67-3.182 8.165-.289.475-.584.96-.882 1.471 3.105.885 6.667.75 9.023.501-.11-3.24-.78-7.16-1.256-8.835a.998.998 0 111.92-.546c.565 1.99 1.348 6.664 1.348 10.266a1 1 0 01-.868.99 37.45 37.45 0 01-2.707.258 7.39 7.39 0 00.669 2.368c2.134-.465 6.1-2.14 8.598-3.761-2.55-2.804-5.672-7.627-5.604-10.999a.999.999 0 01.998-.977h.02a1 1 0 01.978 1.018c-.055 2.649 3.032 7.669 5.829 10.388a.998.998 0 01-.085 1.505c-2.66 2.06-8.502 4.634-11.16 4.918a1 1 0 01-.955-.467c-.868-1.402-1.172-2.847-1.275-3.813a1.01 1.01 0 01-.006-.124c-2.406-.009-4.988-.308-7.29-1.194z"/></svg>