<svg xmlns="http://www.w3.org/2000/svg" xmlns:xlink="http://www.w3.org/1999/xlink"><symbol viewBox="0 0 20 20" class="aaIcon_icon__w6Pjo" id="icon-android" xmlns="http://www.w3.org/2000/svg"><path d="M4 15c0 1.1.9 2 2 2v2c0 .6.4 1 1 1s1-.4 1-1v-2h4v2c0 .6.4 1 1 1s1-.4 1-1v-2c1.1 0 2 .1 2-1V9H4v6zM2 8c-.6 0-1 .5-1 1v5c0 .6.4 1 1 1s1-.4 1-1V9c0-.5-.4-1-1-1zm12.7-6.2c.4-.4.4-1.1 0-1.5-.4-.4-1.1-.4-1.5 0l-1.1 1.1c-.7-.2-1.4-.4-2.1-.4-.7 0-1.4.2-2.1.4L6.8.3c-.4-.4-1.1-.4-1.5 0-.4.4-.4 1.1 0 1.5l.8.8C4.8 3.8 4 5.5 4 7.4V8h12v-.6c0-2-.8-3.7-2.1-4.9l.8-.7zM7.5 7C6.7 7 6 6.3 6 5.5S6.7 4 7.5 4 9 4.7 9 5.5 8.3 7 7.5 7zM14 5.5c0 .8-.7 1.5-1.5 1.5S11 6.3 11 5.5 11.7 4 12.5 4s1.5.7 1.5 1.5zM18 8c-.6 0-1 .4-1 1v5c0 .6.4 1 1 1s1-.4 1-1V9c0-.5-.4-1-1-1z"/></symbol><symbol viewBox="0 0 20 20" class="abIcon_icon__w6Pjo" id="icon-apple" xmlns="http://www.w3.org/2000/svg"><path d="M17.4 14.9c-.2-.1-2.3-1-2.3-3.5 0-2 1.5-3.1 1.9-3.3v-.2C15.9 6.3 14.2 6 13.6 6h-.3c-.8 0-1.5.3-2.1.5-.4.2-.8.3-1 .3-.3 0-.6-.1-1.1-.3-.6-.2-1.2-.5-1.9-.5-1.6 0-3 .9-3.9 2.3-1.5 2.7-.6 6.8 1.1 9.3.9 1.3 1.8 2.4 2.9 2.4h.1c.6 0 1-.2 1.3-.4.4-.2.9-.4 1.6-.4.7 0 1.1.2 1.5.4.4.2.8.4 1.5.3 1.3 0 2.2-1.2 2.9-2.3.8-1.1 1.1-2.2 1.3-2.6 0 0 0-.1-.1-.1zM9.7 5h.2c1 .1 2-.5 2.7-1.4.7-1 1-2.3.9-3.4 0-.1-.1-.2-.2-.2-1 0-2.2.6-2.8 1.5-.6.7-1.1 2-.9 3.3-.1.1 0 .2.1.2z"/></symbol><symbol fill="none" viewBox="0 0 24 24" stroke-width="1.5" stroke="currentColor" id="icon-burger-icon" xmlns="http://www.w3.org/2000/svg"><path stroke-linecap="round" stroke-linejoin="round" d="M3.75 6.75h16.5M3.75 12h16.5m-16.5 5.25h16.5"/></symbol><symbol viewBox="0 0 12 8" id="icon-check" xmlns="http://www.w3.org/2000/svg"><path fill="#043e7d" d="M.204 3.63 1.68 2.152l2.95 2.953L9.796-.06l1.475 1.476-6.64 6.64z"/></symbol><symbol viewBox="0 0 54 54" id="icon-circle" xmlns="http://www.w3.org/2000/svg"><defs><filter id="aea" width="76" height="80" x="-11" y="-15" filterUnits="userSpaceOnUse"><feOffset dy="4" in="SourceGraphic" result="FeOffset1050Out"/><feGaussianBlur in="FeOffset1050Out" result="FeGaussianBlur1051Out" stdDeviation="2.56 2.56"/></filter><mask id="aeb" width="2.08" height="2.08" x="-1.04" y="-1.04"><path fill="#fff" d="M5.4 1.4h43.2v43.2H5.4z"/><path d="M27 3c11.046 0 20 8.954 20 20s-8.954 20-20 20S7 34.046 7 23 15.954 3 27 3zm-1 37.973V40a1 1 0 1 1 2 0v.973a17.897 17.897 0 0 0 7.122-1.905l-.488-.846a1 1 0 0 1 1.732-1l.487.844a18.098 18.098 0 0 0 5.213-5.213l-.844-.487a1 1 0 0 1 1-1.732l.846.488A17.897 17.897 0 0 0 44.973 24H44a1 1 0 0 1 0-2h.973a17.897 17.897 0 0 0-1.905-7.122l-.846.488a1 1 0 1 1-1-1.732l.844-.487a18.097 18.097 0 0 0-5.213-5.213l-.487.844a1 1 0 0 1-1.732-1l.488-.846A17.897 17.897 0 0 0 28 5.027V6a1 1 0 1 1-2 0v-.973a17.9 17.9 0 0 0-7.122 1.905l.488.846a1 1 0 1 1-1.732 1l-.487-.844a18.097 18.097 0 0 0-5.213 5.213l.844.487a1 1 0 1 1-1 1.732l-.846-.488A17.897 17.897 0 0 0 9.027 22H10a1 1 0 1 1 0 2h-.973a17.9 17.9 0 0 0 1.905 7.122l.846-.488a1 1 0 1 1 1 1.732l-.844.487a18.098 18.098 0 0 0 5.213 5.213l.487-.844a1 1 0 0 1 1.732 1l-.488.846A17.897 17.897 0 0 0 26 40.973zM27 9c7.732 0 14 6.268 14 14s-6.268 14-14 14-14-6.268-14-14S19.268 9 27 9zM15 23c0 6.628 5.373 12 12 12s12-5.372 12-12c0-6.627-5.373-12-12-12s-12 5.373-12 12zm5.66 3.966L30.966 16.66a.972.972 0 0 1 1.374 1.374L22.034 28.34a.972.972 0 0 1-1.374-1.374zm-1.374-5.497 6.183-6.183a.972.972 0 0 1 1.375 1.374l-6.184 6.184a.972.972 0 0 1-1.374-1.375zm6.87 6.871 6.184-6.184a.972.972 0 1 1 1.374 1.375l-6.183 6.183a.972.972 0 0 1-1.375-1.374z"/></mask></defs><g filter="url(#aea)"><path fill="none" stroke="#1d68b7" stroke-opacity=".3" stroke-width="3.2" d="M27 3c11.046 0 20 8.954 20 20s-8.954 20-20 20S7 34.046 7 23 15.954 3 27 3zm-1 37.973V40a1 1 0 1 1 2 0v.973a17.897 17.897 0 0 0 7.122-1.905l-.488-.846a1 1 0 0 1 1.732-1l.487.844a18.098 18.098 0 0 0 5.213-5.213l-.844-.487a1 1 0 0 1 1-1.732l.846.488A17.897 17.897 0 0 0 44.973 24H44a1 1 0 0 1 0-2h.973a17.897 17.897 0 0 0-1.905-7.122l-.846.488a1 1 0 1 1-1-1.732l.844-.487a18.097 18.097 0 0 0-5.213-5.213l-.487.844a1 1 0 0 1-1.732-1l.488-.846A17.897 17.897 0 0 0 28 5.027V6a1 1 0 1 1-2 0v-.973a17.9 17.9 0 0 0-7.122 1.905l.488.846a1 1 0 1 1-1.732 1l-.487-.844a18.097 18.097 0 0 0-5.213 5.213l.844.487a1 1 0 1 1-1 1.732l-.846-.488A17.897 17.897 0 0 0 9.027 22H10a1 1 0 1 1 0 2h-.973a17.9 17.9 0 0 0 1.905 7.122l.846-.488a1 1 0 1 1 1 1.732l-.844.487a18.098 18.098 0 0 0 5.213 5.213l.487-.844a1 1 0 0 1 1.732 1l-.488.846A17.897 17.897 0 0 0 26 40.973zM27 9c7.732 0 14 6.268 14 14s-6.268 14-14 14-14-6.268-14-14S19.268 9 27 9zM15 23c0 6.628 5.373 12 12 12s12-5.372 12-12c0-6.627-5.373-12-12-12s-12 5.373-12 12zm5.66 3.966L30.966 16.66a.972.972 0 0 1 1.374 1.374L22.034 28.34a.972.972 0 0 1-1.374-1.374zm-1.374-5.497 6.183-6.183a.972.972 0 0 1 1.375 1.374l-6.184 6.184a.972.972 0 0 1-1.374-1.375zm6.87 6.871 6.184-6.184a.972.972 0 1 1 1.374 1.375l-6.183 6.183a.972.972 0 0 1-1.375-1.374z" mask="url(#aeb)"/><path fill="#1d68b7" fill-opacity=".3" d="M27 3c11.046 0 20 8.954 20 20s-8.954 20-20 20S7 34.046 7 23 15.954 3 27 3zm-1 37.973V40a1 1 0 1 1 2 0v.973a17.897 17.897 0 0 0 7.122-1.905l-.488-.846a1 1 0 0 1 1.732-1l.487.844a18.098 18.098 0 0 0 5.213-5.213l-.844-.487a1 1 0 0 1 1-1.732l.846.488A17.897 17.897 0 0 0 44.973 24H44a1 1 0 0 1 0-2h.973a17.897 17.897 0 0 0-1.905-7.122l-.846.488a1 1 0 1 1-1-1.732l.844-.487a18.097 18.097 0 0 0-5.213-5.213l-.487.844a1 1 0 0 1-1.732-1l.488-.846A17.897 17.897 0 0 0 28 5.027V6a1 1 0 1 1-2 0v-.973a17.9 17.9 0 0 0-7.122 1.905l.488.846a1 1 0 1 1-1.732 1l-.487-.844a18.097 18.097 0 0 0-5.213 5.213l.844.487a1 1 0 1 1-1 1.732l-.846-.488A17.897 17.897 0 0 0 9.027 22H10a1 1 0 1 1 0 2h-.973a17.9 17.9 0 0 0 1.905 7.122l.846-.488a1 1 0 1 1 1 1.732l-.844.487a18.098 18.098 0 0 0 5.213 5.213l.487-.844a1 1 0 0 1 1.732 1l-.488.846A17.897 17.897 0 0 0 26 40.973zM27 9c7.732 0 14 6.268 14 14s-6.268 14-14 14-14-6.268-14-14S19.268 9 27 9zM15 23c0 6.628 5.373 12 12 12s12-5.372 12-12c0-6.627-5.373-12-12-12s-12 5.373-12 12zm5.66 3.966L30.966 16.66a.972.972 0 0 1 1.374 1.374L22.034 28.34a.972.972 0 0 1-1.374-1.374zm-1.374-5.497 6.183-6.183a.972.972 0 0 1 1.375 1.374l-6.184 6.184a.972.972 0 0 1-1.374-1.375zm6.87 6.871 6.184-6.184a.972.972 0 1 1 1.374 1.375l-6.183 6.183a.972.972 0 0 1-1.375-1.374z"/></g><path fill="#57a9ff" d="M27 3c11.046 0 20 8.954 20 20s-8.954 20-20 20S7 34.046 7 23 15.954 3 27 3zm-1 37.973V40a1 1 0 1 1 2 0v.973a17.897 17.897 0 0 0 7.122-1.905l-.488-.846a1 1 0 0 1 1.732-1l.487.844a18.098 18.098 0 0 0 5.213-5.213l-.844-.487a1 1 0 0 1 1-1.732l.846.488A17.897 17.897 0 0 0 44.973 24H44a1 1 0 0 1 0-2h.973a17.897 17.897 0 0 0-1.905-7.122l-.846.488a1 1 0 1 1-1-1.732l.844-.487a18.097 18.097 0 0 0-5.213-5.213l-.487.844a1 1 0 0 1-1.732-1l.488-.846A17.897 17.897 0 0 0 28 5.027V6a1 1 0 1 1-2 0v-.973a17.9 17.9 0 0 0-7.122 1.905l.488.846a1 1 0 1 1-1.732 1l-.487-.844a18.097 18.097 0 0 0-5.213 5.213l.844.487a1 1 0 1 1-1 1.732l-.846-.488A17.897 17.897 0 0 0 9.027 22H10a1 1 0 1 1 0 2h-.973a17.9 17.9 0 0 0 1.905 7.122l.846-.488a1 1 0 1 1 1 1.732l-.844.487a18.098 18.098 0 0 0 5.213 5.213l.487-.844a1 1 0 0 1 1.732 1l-.488.846A17.897 17.897 0 0 0 26 40.973zM27 9c7.732 0 14 6.268 14 14s-6.268 14-14 14-14-6.268-14-14S19.268 9 27 9zM15 23c0 6.628 5.373 12 12 12s12-5.372 12-12c0-6.627-5.373-12-12-12s-12 5.373-12 12zm5.66 3.966L30.966 16.66a.972.972 0 0 1 1.374 1.374L22.034 28.34a.972.972 0 0 1-1.374-1.374zm-1.374-5.497 6.183-6.183a.972.972 0 0 1 1.375 1.374l-6.184 6.184a.972.972 0 0 1-1.374-1.375zm6.87 6.871 6.184-6.184a.972.972 0 1 1 1.374 1.375l-6.183 6.183a.972.972 0 0 1-1.375-1.374z"/></symbol><symbol viewBox="0 0 20 20" class="afIcon_icon__w6Pjo" id="icon-cross" xmlns="http://www.w3.org/2000/svg"><path d="M17.071 2.929c3.905 3.905 3.905 10.237 0 14.142-3.905 3.905-10.237 3.905-14.142 0-3.905-3.905-3.905-10.237 0-14.142 3.905-3.905 10.237-3.905 14.142 0zm-4.243 2.828L10 8.586 7.172 5.757a1 1 0 0 0-1.415 1.415L8.586 10l-2.829 2.828a1 1 0 0 0 1.415 1.415L10 11.414l2.828 2.829a1 1 0 1 0 1.415-1.415L11.414 10l2.829-2.828a1 1 0 1 0-1.415-1.415z"/></symbol><symbol class="agIcon_icon__w6Pjo" viewBox="0 0 16 15" id="icon-crown-lable" xmlns="http://www.w3.org/2000/svg"><path fill-rule="evenodd" clip-rule="evenodd" d="M4 6.5 0 3v12h16V3l-4 3.5L8 0 4 6.5Zm.5 3L2 7.5V13h12V7.5l-2.5 2L8 4 4.5 9.5Z" fill="#fff"/></symbol><symbol viewBox="0 0 33 40" class="ahIcon_icon__w6Pjo" id="icon-fire" xmlns="http://www.w3.org/2000/svg"><path d="M24.405 39.997c-.428 0-.826-.27-.964-.693a.994.994 0 0 1 .655-1.254c3.702-1.17 6.825-7.335 6.825-10.586 0-4.084-2.28-8.047-7.175-12.471-4.602-4.16-6.7-7.418-6.6-10.255.015-.399.073-.787.176-1.164-3.126 1.844-5.622 4.635-4.956 8.064.485 2.497 1.37 3.581 2.152 4.538.767.938 1.559 1.907 1.427 3.733-.108 1.481-.96 2.616-2.402 3.195-1.894.762-4.69.438-5.983-.69-1.15-1.004-1.769-2.226-1.831-3.517-2.18 2.14-3.732 5.761-3.732 9.166 0 2.801 1.722 5.583 5.264 8.505a.987.987 0 0 1 .126 1.405 1.023 1.023 0 0 1-1.426.124c-4.03-3.324-5.99-6.606-5.99-10.034 0-5.278 2.993-10.624 6.961-12.433.4-.182.873-.089 1.17.23a.985.985 0 0 1 .136 1.168c-1.05 1.82-.218 3.122.665 3.893.586.511 2.555.865 3.875.336.73-.293 1.094-.767 1.147-1.49.075-1.044-.279-1.477-.984-2.34-.837-1.025-1.984-2.43-2.564-5.414C9.245 6.186 14.818 1.986 19.935.16c.466-.168.987.024 1.229.45a.988.988 0 0 1-.252 1.267c-1.134.89-1.704 1.85-1.742 2.93-.075 2.15 1.925 5.083 5.946 8.716 5.342 4.828 7.83 9.259 7.83 13.941 0 3.888-3.534 11-8.231 12.485a1.02 1.02 0 0 1-.31.048zm-2.92-.824a1.02 1.02 0 0 1-.634-.22.987.987 0 0 1-.156-1.401c2.56-3.14 1.974-5.153 1.233-7.701-.316-1.089-.66-2.27-.724-3.585-1.258 1.199-1.73 2.543-2.114 3.925-.754 2.717-3.171 4.786-5.622 4.813-1.692.027-2.783-.81-3.517-1.78-.063 1.9.998 3.097 2.213 4.227a.987.987 0 0 1 .04 1.41 1.023 1.023 0 0 1-1.43.04c-1.367-1.27-4.213-3.916-2.06-8.989a1.02 1.02 0 0 1 1.898.082c.864 2.667 1.86 2.996 2.833 3.015 1.528-.017 3.185-1.517 3.692-3.344.586-2.11 1.485-4.516 4.755-6.362a1.027 1.027 0 0 1 1.106.064.99.99 0 0 1 .385 1.023c-.415 1.793.026 3.308.492 4.911.757 2.604 1.615 5.555-1.6 9.5-.2.245-.495.372-.79.372z"/></symbol><symbol viewBox="0 0 20 20" class="aiIcon_icon__w6Pjo" id="icon-geer" xmlns="http://www.w3.org/2000/svg"><path d="M10 6c-2.2 0-4 1.8-4 4s1.8 4 4 4 4-1.8 4-4-1.8-4-4-4zm0 6c-1.1 0-2-.9-2-2s.9-2 2-2 2 .9 2 2-.9 2-2 2zm9.5-3.9-1.3-.6c0-.2-.1-.3-.2-.5l.7-1.2c.2-.3.2-.6 0-.9-.4-.7-.8-1.3-1.3-1.8-.2-.2-.6-.4-.9-.3l-1.3.3c-.1-.1-.3-.2-.4-.3l-.1-1.4c0-.3-.2-.6-.5-.7-.7-.3-1.4-.5-2.1-.7-.3-.1-.7 0-.9.3l-.9 1.1h-.5l-1-1C8.6.1 8.3 0 8 .1c-.8.1-1.5.4-2.2.7-.3.1-.5.4-.5.7l-.1 1.4c-.1.1-.3.2-.4.3l-1.3-.3c-.3-.1-.7 0-.9.3-.5.5-1 1.1-1.3 1.8-.2.3-.2.6 0 .9L2 7.1c-.1.2-.1.3-.2.5l-1.3.5c-.3.2-.5.5-.5.9v2c0 .4.2.7.5.8l1.3.6c0 .2.1.3.2.5l-.7 1.2c-.2.3-.2.6 0 .9.4.7.8 1.3 1.3 1.8.2.2.6.4.9.3l1.3-.3c.1.1.3.2.4.3l.1 1.4c0 .3.2.6.5.7.7.3 1.4.5 2.1.7.3.1.7 0 .9-.3l.9-1.1h.4l.9 1.1c.2.2.4.3.7.3h.2c.7-.2 1.4-.4 2.1-.7.3-.1.5-.4.5-.7l.1-1.4c.1-.1.3-.2.4-.3l1.3.3c.3.1.7 0 .9-.3.5-.6.9-1.2 1.3-1.8.2-.3.2-.6 0-.9l-.5-1.2c.1-.2.1-.3.2-.5l1.3-.6c.3-.1.5-.5.5-.8V9c0-.4-.2-.7-.5-.9zM18 10.3l-1.5.7-.3.9c0 .1-.1.3-.1.4l-.3.9.8 1.4c-.1.2-.2.3-.3.5l-1.6-.4-.7.5c-.1.1-.2.2-.3.2l-.8.6-.2 1.7c-.2.1-.3.1-.5.2l-1.1-1.3H8.9l-1.1 1.3c-.2-.1-.4-.1-.5-.2L7.1 16l-.8-.5c-.1-.1-.2-.1-.3-.2l-.7-.6-1.6.3c-.1-.2-.2-.3-.3-.5l.8-1.4-.3-.9c0-.1-.1-.3-.1-.4l-.3-.8-1.5-.7v-.6L3.5 9l.3-.9c0-.1.1-.3.1-.4l.3-.9-.9-1.4c.1-.1.2-.3.4-.4l1.6.4.7-.6c.1-.1.2-.2.3-.2l.8-.6.2-1.7c.2-.1.3-.1.5-.2l1.1 1.3h2.3l1.1-1.3c.2.1.4.1.5.2l.1 1.7.8.5c.1.1.2.2.3.2l.7.6 1.6-.3c.1.2.2.3.3.5l-.8 1.4.3.9c0 .1.1.3.1.4l.3.8 1.5.7v.6z"/></symbol><symbol viewBox="0 0 512 512" class="ajIcon_icon__w6Pjo" id="icon-global" xmlns="http://www.w3.org/2000/svg"><circle cx="256" cy="256" r="256" fill="#258e9c"/><path d="M255.8 101C170.3 101 101 170.4 101 256s69.3 155 154.8 155c85.7 0 155.2-69.4 155.2-155s-69.4-155-155.2-155zm107.5 93h-45.7c-5-19.4-12.1-38-21.4-55.2 28.5 9.8 52.2 29.6 67.1 55.2zM256 132.6c12.9 18.6 22.9 39.2 29.6 61.4h-59.2c6.7-22.2 16.7-42.8 29.6-61.4zM136 287c-2.5-9.9-4-20.3-4-31s1.6-21.1 4-31h52.4c-1.2 10.2-2.2 20.5-2.2 31s.9 20.8 2.2 31H136zm12.7 31h45.7c5 19.4 12.1 38 21.4 55.2-28.5-9.8-52.2-29.5-67.1-55.2zm45.8-124h-45.7c14.9-25.7 38.6-45.4 67.1-55.2-9.3 17.2-16.5 35.8-21.4 55.2zM256 379.4c-12.9-18.6-22.9-39.2-29.6-61.4h59.2c-6.7 22.2-16.7 42.8-29.6 61.4zm36.3-92.4h-72.5c-1.4-10.2-2.5-20.5-2.5-31s1.1-20.9 2.5-31h72.5c1.4 10.1 2.5 20.5 2.5 31s-1.1 20.8-2.5 31zm3.8 86.2c9.3-17.2 16.4-35.8 21.4-55.2h45.7c-14.8 25.6-38.5 45.4-67.1 55.2zm27.5-86.2c1.2-10.2 2.2-20.5 2.2-31s-.9-20.8-2.2-31H376c2.5 9.9 4 20.3 4 31s-1.6 21.1-4 31h-52.4z" fill="#fff"/></symbol><symbol viewBox="0 0 20 20" class="akIcon_icon__w6Pjo" id="icon-guard" xmlns="http://www.w3.org/2000/svg"><path d="m13.7 5.9-5 4.1-2-1.5-1.5 1.3 3.4 3.8 6.1-6.2-1-1.5zM10 0 0 4.2S.7 20 10 20 20 4.2 20 4.2L10 0zm0 18C4.1 18 2.5 9 2.1 5.5L10 2.2l7.9 3.3C17.5 9 15.9 18 10 18z"/></symbol><symbol viewBox="0 0 20 17" class="alIcon_icon__w6Pjo" id="icon-house" xmlns="http://www.w3.org/2000/svg"><path d="M19.697 10.704a1.01 1.01 0 0 1-1.428 0L17 9.434V15a2 2 0 0 1-2 2H5a2 2 0 0 1-2-2V9.403l-1.3 1.3A1.01 1.01 0 1 1 .27 9.276l9-9.005a1.01 1.01 0 0 1 1.428 0L15 4.575V2a1 1 0 0 1 2 0v4.576l2.697 2.699a1.01 1.01 0 0 1 0 1.429zm-9.713-8.29L5 7.403V15h2v-4a2 2 0 0 1 2-2h2a2 2 0 0 1 2 2v4h2V7.433zM11 11H9v4h2z"/></symbol><symbol viewBox="0 0 20 14" id="icon-multi-arrows" xmlns="http://www.w3.org/2000/svg"><defs><linearGradient id="ama" x1="-.02" x2="19.98" y1="7.01" y2="6.99" gradientUnits="userSpaceOnUse"><stop offset="0" stop-color="#0f65c0"/><stop offset=".01" stop-color="#0f65c0"/><stop offset="1" stop-color="#30a4f5"/></linearGradient></defs><path fill="#1181d1" d="m19.718 7.702-6.04 6.016a.997.997 0 0 1-1.407 0 .99.99 0 0 1 0-1.404L17.606 7 12.27 1.685a.99.99 0 0 1 0-1.403.998.998 0 0 1 1.408 0l6.039 6.016a.99.99 0 0 1 0 1.404zm-6 0-6.04 6.016a.997.997 0 0 1-1.407 0 .99.99 0 0 1 0-1.404L11.606 7 6.271 1.685a.99.99 0 0 1 0-1.403.998.998 0 0 1 1.408 0l6.039 6.016a.99.99 0 0 1 0 1.404zm-6 0-6.04 6.016a.997.997 0 0 1-1.407 0 .99.99 0 0 1 0-1.404L5.606 7 .27 1.685a.99.99 0 0 1 0-1.403.998.998 0 0 1 1.408 0l6.039 6.016a.99.99 0 0 1 0 1.404z"/><path fill="url(#ama)" d="m19.718 7.702-6.04 6.016a.997.997 0 0 1-1.407 0 .99.99 0 0 1 0-1.404L17.606 7 12.27 1.685a.99.99 0 0 1 0-1.403.998.998 0 0 1 1.408 0l6.039 6.016a.99.99 0 0 1 0 1.404zm-6 0-6.04 6.016a.997.997 0 0 1-1.407 0 .99.99 0 0 1 0-1.404L11.606 7 6.271 1.685a.99.99 0 0 1 0-1.403.998.998 0 0 1 1.408 0l6.039 6.016a.99.99 0 0 1 0 1.404zm-6 0-6.04 6.016a.997.997 0 0 1-1.407 0 .99.99 0 0 1 0-1.404L5.606 7 .27 1.685a.99.99 0 0 1 0-1.403.998.998 0 0 1 1.408 0l6.039 6.016a.99.99 0 0 1 0 1.404z"/></symbol><symbol viewBox="0 0 40 41" class="aoIcon_icon__w6Pjo" id="icon-new" xmlns="http://www.w3.org/2000/svg"><path d="m20.375 40.902-3.183-2.418-3.763 1.312-2.173-3.375-3.982-.068-.9-3.924-3.718-1.442.479-4-3.007-2.642 1.803-3.593-1.932-3.522 2.906-2.753-.625-3.98 3.663-1.58.758-3.955 3.974-.217 2.049-3.455 3.808 1.171 3.092-2.537 3.184 2.42 3.763-1.314 2.173 3.376 3.98.067.903 3.925 3.717 1.442-.479 4 3.006 2.642-1.802 3.593 1.932 3.522-2.906 2.753.625 3.98-3.663 1.58-.758 3.955-3.974.217-2.049 3.455-3.809-1.171zm-2.832-4.68 2.786 2.116 2.705-2.22 3.331 1.026 1.793-3.022 3.477-.19.663-3.461 3.204-1.383-.547-3.48 2.543-2.409-1.69-3.082 1.576-3.144-2.63-2.31.42-3.5-3.252-1.262-.79-3.433-3.482-.06-1.902-2.953-3.291 1.15-2.786-2.117-2.706 2.22-3.33-1.025-1.793 3.022-3.478.19-.662 3.46-3.204 1.384.547 3.48-2.544 2.409 1.69 3.082-1.575 3.144 2.63 2.31-.42 3.5 3.253 1.261.789 3.433 3.482.06 1.902 2.953zm3.39-15.13H18.56v2.526h3.494v2.022h-5.491V14.522h5.491v2.022H18.56v2.526h2.371zm-11.36 4.674H7.576V14.522h2.449l3.168 7.181v-7.307h1.997V25.64h-2.448l-3.168-7.18zm22.467-.126h-2.437l-1.932-3.62-1.93 3.62h-2.438V14.396H25.3v7.812l2.371-4.444 2.371 4.444v-7.812h1.998zm-11.67 6.823c-1.98 0-3.894-.413-5.688-1.227l.817-1.845a11.872 11.872 0 0 0 9.74 0l.818 1.845a13.684 13.684 0 0 1-5.687 1.227zm4.87-21.692a11.882 11.882 0 0 0-9.74 0l-.818-1.845a13.86 13.86 0 0 1 11.375 0z"/></symbol><symbol class="anIcon_icon__w6Pjo" viewBox="0 0 18 8" id="icon-new-lable" xmlns="http://www.w3.org/2000/svg"><path d="M3.531 3.5 1.511 0H0v7.25h1.51V3.5l2.082 3.75h1.45V0h-1.51v3.5ZM6.25 7.25h3.833V5.74h-2.02V4.398h2.02V2.876h-2.02V1.523h2.02V0H6.25v7.25ZM16 0v5.438h-.864V1.196h-1.51V5.45h-.824V0h-1.51v6.042c0 .664.543 1.208 1.208 1.208h3.802c.665 0 1.208-.544 1.208-1.208V0H16Z" fill="#fff"/></symbol><symbol viewBox="0 0 40 40" fill="none" class="apIcon_icon__w6Pjo" id="icon-play" xmlns="http://www.w3.org/2000/svg"><rect width="40" height="40" rx="20" fill="url(#apa)"/><path fill-rule="evenodd" clip-rule="evenodd" d="m27.924 18.615-12.696-7.354a2.125 2.125 0 0 0-2.152 0A2.137 2.137 0 0 0 12 13.131v14.707c0 .78.402 1.479 1.076 1.869.337.195.706.293 1.076.293.369 0 .739-.098 1.076-.293l12.696-7.353A2.137 2.137 0 0 0 29 20.484c0-.78-.402-1.479-1.076-1.869Zm-1.028 1.952-12.697 7.354c-.015.009-.047.028-.095 0s-.048-.065-.048-.083V13.131c0-.018 0-.056.048-.083a.097.097 0 0 1 .049-.015.09.09 0 0 1 .047.015l12.696 7.353c.015.009.048.028.048.083 0 .056-.033.074-.048.083Z" fill="#fff"/><defs><linearGradient id="apa" x1="20" y1="0" x2="20" y2="40" gradientUnits="userSpaceOnUse"><stop stop-color="#FB5E01"/><stop offset="1" stop-color="#FB4F01"/></linearGradient></defs></symbol><symbol viewBox="0 0 20 20" class="aqIcon_icon__w6Pjo" id="icon-present" xmlns="http://www.w3.org/2000/svg"><path d="M18 11v7c0 1.1-.9 2-2 2H4c-1.1 0-2-.9-2-2v-7c-1.1 0-2-.9-2-2V7c0-1.1.9-2 2-2h2.3C4.1 4.5 4 4 4 3.5 4 1.6 5.6 0 7.5 0c1 0 1.9.4 2.5 1.1.6-.7 1.5-1.1 2.5-1.1C14.4 0 16 1.6 16 3.5c0 .5-.1 1-.3 1.5H18c1.1 0 2 .9 2 2v2c0 1.1-.9 2-2 2zm-2 7v-7h-5v7zM4 18h5v-7H4zM7.5 2C6.7 2 6 2.7 6 3.5S6.7 5 7.5 5H9V3.5C9 2.7 8.3 2 7.5 2zm5 0c-.8 0-1.5.7-1.5 1.5V5h1.5c.8 0 1.5-.7 1.5-1.5S13.3 2 12.5 2zM18 7H2v2h16z"/></symbol><symbol viewBox="0 0 16 12" class="arIcon_icon__w6Pjo" id="icon-rm" xmlns="http://www.w3.org/2000/svg"><path d="M7 6V3c0-1.65-1.35-3-3-3H0v12h2V9h1.55l1.46 3h2.22L5.55 8.55A2.97 2.97 0 0 0 7 6ZM2 2h2c.55 0 1 .45 1 1v3c0 .55-.45 1-1 1H2V2ZM15.18.02c-.47-.08-.94.17-1.12.62L12 6.03 9.93.64A.999.999 0 0 0 8.82.02C8.34.1 8 .52 8 1v11h2V6.4l1.07 2.78c.15.39.52.64.93.64.41 0 .79-.25.93-.64L14 6.4V12h2V1c0-.48-.34-.9-.82-.98Z" fill="#fff"/></symbol><symbol viewBox="0 0 20 20" class="asIcon_icon__w6Pjo" id="icon-search" xmlns="http://www.w3.org/2000/svg"><path d="M9 18a9 9 0 1 1 7.06-3.418l3.618 3.618a1.045 1.045 0 0 1-1.478 1.478l-3.618-3.618A8.962 8.962 0 0 1 9 18zM9 2a7 7 0 1 0 0 14A7 7 0 0 0 9 2zM6 9a1 1 0 1 1-2 0 5 5 0 0 1 5-5 1 1 0 0 1 0 2 3 3 0 0 0-3 3z"/></symbol><symbol fill="none" viewBox="0 0 40 40" id="icon-show" xmlns="http://www.w3.org/2000/svg"><g filter="url(#ata)" fill-rule="evenodd" clip-rule="evenodd" fill="#C650FE"><path d="m24.46 33.03-4.77-2.51-4.77 2.51.91-5.31-3.86-3.76 5.34-.78 2.38-4.83 2.39 4.83 5.33.78-3.86 3.76.91 5.31zm-7.45-7.44 1.34 1.31-.31 1.84 1.65-.87 1.66.87-.32-1.84 1.35-1.31-1.86-.27-.83-1.68-.83 1.68-1.85.27z"/><path d="M6.8 7.03V4.67a4.7 4.7 0 0 1 4.69-4.69h1.17v2.35h-1.17a2.34 2.34 0 0 0-2.34 2.34v2.36h9.37V0h2.34v7.03h9.38V4.67a2.34 2.34 0 0 0-2.34-2.34h-1.18V-.02h1.18a4.69 4.69 0 0 1 4.68 4.69v2.36h2.8l-3.13 9.38h-2.01v21.25h2.34V40H6.8v-2.34h2.35V16.41H7.13L4 7.03h2.8zm23.76 7.03h-.527a3.53 3.53 0 0 0-3.313-2.34H12.66a3.52 3.52 0 0 0-3.306 2.34H8.81L7.25 9.38h24.88l-1.57 4.68zm-2.66 1.18v22.42H11.49V15.24a1.17 1.17 0 0 1 1.17-1.17h14.06a1.17 1.17 0 0 1 1.18 1.17z"/></g><defs><filter id="ata" x="-4" y="-4.02" width="47.38" height="56.02" filterUnits="userSpaceOnUse" color-interpolation-filters="sRGB"><feFlood flood-opacity="0" result="BackgroundImageFix"/><feColorMatrix in="SourceAlpha" values="0 0 0 0 0 0 0 0 0 0 0 0 0 0 0 0 0 0 127 0" result="hardAlpha"/><feOffset dy="4"/><feGaussianBlur stdDeviation="4"/><feComposite in2="hardAlpha" operator="out"/><feColorMatrix values="0 0 0 0 0.776471 0 0 0 0 0.313726 0 0 0 0 0.996078 0 0 0 0.25 0"/><feBlend in2="BackgroundImageFix" result="effect1_dropShadow_21765_30082"/><feBlend in="SourceGraphic" in2="effect1_dropShadow_21765_30082" result="shape"/></filter></defs></symbol><symbol viewBox="0 0 451.847 451.847" class="auIcon_icon__w6Pjo" id="icon-simple-arrow" xmlns="http://www.w3.org/2000/svg"><path d="M225.923 354.706c-8.098 0-16.195-3.092-22.369-9.263L9.27 151.157c-12.359-12.359-12.359-32.397 0-44.751 12.354-12.354 32.388-12.354 44.748 0l171.905 171.915 171.906-171.909c12.359-12.354 32.391-12.354 44.744 0 12.365 12.354 12.365 32.392 0 44.751L248.292 345.449c-6.177 6.172-14.274 9.257-22.369 9.257z"/></symbol><symbol viewBox="0 0 15 15" id="icon-simple-cross" xmlns="http://www.w3.org/2000/svg"><path fill="currentColor" d="M3.64 2.27 7.5 6.13l3.84-3.84A.92.92 0 0 1 12 2a1 1 0 0 1 1 1 .9.9 0 0 1-.27.66L8.84 7.5l3.89 3.89A.9.9 0 0 1 13 12a1 1 0 0 1-1 1 .92.92 0 0 1-.69-.27L7.5 8.87l-3.85 3.85A.92.92 0 0 1 3 13a1 1 0 0 1-1-1 .9.9 0 0 1 .27-.66L6.16 7.5 2.27 3.61A.9.9 0 0 1 2 3a1 1 0 0 1 1-1c.24.003.47.1.64.27Z"/></symbol><symbol viewBox="0 0 24 24" id="icon-sort" xmlns="http://www.w3.org/2000/svg"><path fill="#003266" d="M21 3H5a1 1 0 0 0-1 1v2.59c0 .523.213 1.037.583 1.407L10 13.414V21a1.001 1.001 0 0 0 1.447.895l4-2c.339-.17.553-.516.553-.895v-5.586l5.417-5.417c.37-.37.583-.884.583-1.407V4a1 1 0 0 0-1-1zm-6.707 9.293A.996.996 0 0 0 14 13v5.382l-2 1V13a.996.996 0 0 0-.293-.707L6 6.59V5h14.001l.002 1.583-5.71 5.71z"/></symbol><symbol viewBox="0 0 24 24" id="icon-sort-bar" xmlns="http://www.w3.org/2000/svg"><path d="M3 18v-2h6v2H3Zm0-5v-2h12v2H3Zm0-5V6h18v2H3Z"/></symbol><symbol viewBox="0 0 40 40" class="ayIcon_icon__w6Pjo" id="icon-star" xmlns="http://www.w3.org/2000/svg"><path d="M19.997 40c-1.328 0-2.502-.594-3.256-1.602-1.054.69-2.359.849-3.609.396-1.248-.453-2.147-1.411-2.51-2.614-1.227.288-2.508-.01-3.526-.86-1.018-.85-1.534-2.057-1.462-3.311-1.25-.147-2.354-.863-3.018-2.009-.664-1.146-.736-2.456-.237-3.61C1.253 25.825.462 24.776.23 23.473.001 22.169.383 20.914 1.248 20 .384 19.085 0 17.83.23 16.526c.231-1.303 1.021-2.352 2.148-2.917-.499-1.153-.428-2.463.237-3.61.664-1.145 1.766-1.862 3.018-2.009-.072-1.254.444-2.46 1.462-3.311 1.018-.85 2.3-1.147 3.527-.86.362-1.203 1.261-2.16 2.51-2.613 1.248-.452 2.554-.295 3.608.395C17.494.594 18.668 0 19.996 0c1.329 0 2.503.594 3.256 1.6 1.054-.689 2.362-.846 3.61-.394 1.247.453 2.146 1.41 2.509 2.613 1.227-.287 2.508.008 3.527.86 1.017.85 1.534 2.057 1.461 3.311 1.253.147 2.355.864 3.02 2.009.664 1.147.735 2.457.236 3.611 1.127.565 1.917 1.614 2.147 2.916.231 1.304-.152 2.559-1.016 3.474.865.915 1.247 2.17 1.016 3.473-.23 1.303-1.021 2.352-2.147 2.917.499 1.154.427 2.464-.237 3.61-.664 1.146-1.767 1.862-3.019 2.009.073 1.255-.444 2.46-1.461 3.311-1.018.85-2.3 1.148-3.526.86-.363 1.203-1.262 2.16-2.51 2.614-1.248.453-2.556.294-3.61-.394-.753 1.006-1.927 1.6-3.255 1.6zm-2.97-4.21a1.005 1.005 0 0 1 .932.63l.108.272c.384.964 1.248 1.308 1.93 1.308.681 0 1.546-.344 1.93-1.307l.108-.271a1 1 0 0 1 .758-.616.994.994 0 0 1 .925.32l.196.22c.69.772 1.618.8 2.26.568.641-.232 1.336-.848 1.366-1.884l.009-.296a1.004 1.004 0 0 1 1.48-.85l.26.14c.914.494 1.797.2 2.319-.236s.963-1.253.636-2.236l-.093-.277a.998.998 0 0 1 .183-.958.996.996 0 0 1 .913-.347l.291.042c1.026.151 1.762-.423 2.102-1.012.34-.589.475-1.507-.17-2.32l-.182-.227a.997.997 0 0 1-.157-.963c.119-.326.399-.568.74-.638l.289-.06c1.018-.209 1.507-.998 1.626-1.667.118-.668-.07-1.577-.956-2.12l-.249-.152a1 1 0 0 1-.002-1.703l.25-.155c.886-.544 1.075-1.453.957-2.12-.119-.67-.608-1.459-1.626-1.668l-.286-.059a.997.997 0 0 1-.586-1.6l.183-.23c.644-.812.51-1.73.17-2.319-.341-.589-1.075-1.16-2.1-1.012l-.29.043a1.013 1.013 0 0 1-.916-.346.996.996 0 0 1-.184-.959l.093-.279c.327-.982-.114-1.798-.636-2.235-.522-.437-1.407-.728-2.32-.236l-.259.14a1.005 1.005 0 0 1-1.48-.85l-.01-.293c-.029-1.037-.724-1.655-1.364-1.886-.64-.232-1.57-.205-2.262.568l-.197.22a.997.997 0 0 1-.924.32 1.001 1.001 0 0 1-.757-.617l-.108-.271C21.543 2.343 20.678 2 19.997 2c-.682 0-1.546.343-1.93 1.306l-.109.273a1 1 0 0 1-.757.614.997.997 0 0 1-.924-.318l-.196-.219c-.692-.775-1.623-.804-2.262-.57-.64.231-1.335.849-1.365 1.884l-.009.293a1 1 0 0 1-.5.838 1.013 1.013 0 0 1-.98.013l-.259-.14c-.913-.49-1.797-.2-2.32.237-.522.437-.963 1.253-.636 2.235l.093.282c.11.329.04.691-.185.957a1.011 1.011 0 0 1-.915.345l-.291-.043C5.427 9.84 4.694 10.41 4.354 11c-.34.589-.476 1.507.17 2.32l.183.23a.997.997 0 0 1-.587 1.6l-.289.058c-1.016.21-1.505.998-1.623 1.667-.119.668.07 1.577.955 2.12l.252.156a.997.997 0 0 1-.003 1.703l-.25.153c-.884.542-1.073 1.451-.954 2.119.118.669.607 1.458 1.625 1.667l.29.06a.997.997 0 0 1 .583 1.602l-.183.229c-.645.81-.51 1.728-.169 2.317.34.588 1.073 1.161 2.099 1.012l.294-.042c.345-.056.69.08.913.347a.997.997 0 0 1 .183.957l-.093.278c-.327.983.114 1.8.636 2.236.522.438 1.407.728 2.32.236l.26-.14a1.01 1.01 0 0 1 .978.015 1 1 0 0 1 .501.837l.009.294c.03 1.036.725 1.652 1.365 1.884.64.233 1.57.204 2.261-.568l.196-.22c.192-.216.466-.336.75-.336z"/><path fill="#ffba00" d="m20 9 3.296 5.971 6.703 1.286-4.666 4.977L26.18 28 20 25.104 13.82 28l.847-6.766-4.666-4.977 6.703-1.286L20 9.001m3.707 15.68-.508-4.268 2.796-3.14-4.017-.811-1.976-3.77-1.977 3.77-4.015.811 2.795 3.14-.508 4.269 3.705-1.828z"/></symbol><symbol class="azIcon_icon__w6Pjo" viewBox="0 0 16 16" id="icon-top-lable" xmlns="http://www.w3.org/2000/svg"><path fill-rule="evenodd" clip-rule="evenodd" d="M9 11.9A5.002 5.002 0 0 0 13 7V0H3v7a5.002 5.002 0 0 0 4 4.9V14H5v2h6v-2H9v-2.1ZM5 2h6v5a3 3 0 0 1-6 0V2Z" fill="#fff"/><path d="M14 2h2v5h-2V2ZM2 2H0v5h2V2Z" fill="#fff"/></symbol><symbol class="baIcon_icon__w6Pjo" viewBox="0 0 15 18" id="icon-trending" xmlns="http://www.w3.org/2000/svg"><path d="M13.165 4.5C12.127 2.847 10.797 1.436 9.633.274a.937.937 0 0 0-1.509.26L5.87 5.27 3.648 3.79a.938.938 0 0 0-1.301.26C.79 6.399 0 8.536 0 10.4a7.5 7.5 0 1 0 15 0c0-2.003-.6-3.933-1.835-5.9ZM7.5 16.026A5.632 5.632 0 0 1 1.875 10.4c0-1.294.515-2.81 1.533-4.518L5.73 7.43a.937.937 0 0 0 1.366-.377l2.142-4.497c2.117 2.255 3.887 4.777 3.887 7.844A5.631 5.631 0 0 1 7.5 16.026Z" fill="#fff"/></symbol><symbol viewBox="0 0 44 50" id="icon-trophy" xmlns="http://www.w3.org/2000/svg"><defs><filter id="bba" width="66" height="76" x="-11" y="-15" filterUnits="userSpaceOnUse"><feOffset dy="4" in="SourceGraphic" result="FeOffset1184Out"/><feGaussianBlur in="FeOffset1184Out" result="FeGaussianBlur1185Out" stdDeviation="2.56 2.56"/></filter><mask id="bbb" width="2.11" height="2.09" x="-1.05" y="-1.04"><path fill="#fff" d="M5.4 1.4h33.2v39.2H5.4z"/><path d="m25.157 22.428.478 2.646c2.2.227 3.984 1.853 4.42 3.957L34 29v8h2v2H8v-2h2v-8l3.961.031c.435-2.104 2.22-3.73 4.42-3.957l.477-2.646c-2.408-1.003-4.231-3.125-4.768-5.748a8.142 8.142 0 0 1-4.023-2.164A7.943 7.943 0 0 1 7.76 9.779L7 3h30l-.76 6.778a7.944 7.944 0 0 1-2.301 4.732 8.141 8.141 0 0 1-4.012 2.167c-.537 2.625-2.36 4.748-4.77 5.75zm5.04-7.893c2.156-.747 3.776-2.678 4.035-4.976l.512-4.567h-3.488zm-16.38.005-1.071-9.548h-3.49l.512 4.567c.26 2.304 1.886 4.238 4.048 4.981zM12 31v6h20v-6zm13.105-3.96H18.91a3.03 3.03 0 0 0-2.856 1.991h11.908a3.033 3.033 0 0 0-2.857-1.992zm-1.527-1.993-.375-2.08a8.25 8.25 0 0 1-2.39 0l-.375 2.08zm4.453-9.293 1.193-10.762H14.778l1.207 10.762c.34 3.026 2.93 5.308 6.023 5.308 3.093 0 5.682-2.282 6.023-5.308zM16 33h12v2H16z"/></mask></defs><g filter="url(#bba)"><path fill="none" stroke="#ffba00" stroke-opacity=".3" stroke-width="3.2" d="m25.157 26.428.478 2.646c2.2.227 3.984 1.853 4.42 3.957L34 33v8h2v2H8v-2h2v-8l3.961.031c.435-2.104 2.22-3.73 4.42-3.957l.477-2.646c-2.408-1.003-4.231-3.125-4.768-5.748a8.142 8.142 0 0 1-4.023-2.164 7.943 7.943 0 0 1-2.307-4.737L7 7h30l-.76 6.778a7.944 7.944 0 0 1-2.301 4.732 8.141 8.141 0 0 1-4.012 2.167c-.537 2.625-2.36 4.748-4.77 5.75zm5.04-7.893c2.156-.747 3.776-2.678 4.035-4.976l.512-4.567h-3.488zm-16.38.005-1.071-9.548h-3.49l.512 4.567c.26 2.304 1.886 4.238 4.048 4.981zM12 35v6h20v-6zm13.105-3.96H18.91a3.03 3.03 0 0 0-2.856 1.991h11.908a3.033 3.033 0 0 0-2.857-1.992zm-1.527-1.993-.375-2.08a8.25 8.25 0 0 1-2.39 0l-.375 2.08zm4.453-9.293 1.193-10.762H14.778l1.207 10.762c.34 3.026 2.93 5.308 6.023 5.308 3.093 0 5.682-2.282 6.023-5.308zM16 37h12v2H16z" mask="url(#bbb)"/><path fill="#ffba00" fill-opacity=".3" d="m25.157 26.428.478 2.646c2.2.227 3.984 1.853 4.42 3.957L34 33v8h2v2H8v-2h2v-8l3.961.031c.435-2.104 2.22-3.73 4.42-3.957l.477-2.646c-2.408-1.003-4.231-3.125-4.768-5.748a8.142 8.142 0 0 1-4.023-2.164 7.943 7.943 0 0 1-2.307-4.737L7 7h30l-.76 6.778a7.944 7.944 0 0 1-2.301 4.732 8.141 8.141 0 0 1-4.012 2.167c-.537 2.625-2.36 4.748-4.77 5.75zm5.04-7.893c2.156-.747 3.776-2.678 4.035-4.976l.512-4.567h-3.488zm-16.38.005-1.071-9.548h-3.49l.512 4.567c.26 2.304 1.886 4.238 4.048 4.981zM12 35v6h20v-6zm13.105-3.96H18.91a3.03 3.03 0 0 0-2.856 1.991h11.908a3.033 3.033 0 0 0-2.857-1.992zm-1.527-1.993-.375-2.08a8.25 8.25 0 0 1-2.39 0l-.375 2.08zm4.453-9.293 1.193-10.762H14.778l1.207 10.762c.34 3.026 2.93 5.308 6.023 5.308 3.093 0 5.682-2.282 6.023-5.308zM16 37h12v2H16z"/></g><path fill="#ffba00" d="m25.157 26.428.478 2.646c2.2.227 3.984 1.853 4.42 3.957L34 33v8h2v2H8v-2h2v-8l3.961.031c.435-2.104 2.22-3.73 4.42-3.957l.477-2.646c-2.408-1.003-4.231-3.125-4.768-5.748a8.142 8.142 0 0 1-4.023-2.164 7.943 7.943 0 0 1-2.307-4.737L7 7h30l-.76 6.778a7.944 7.944 0 0 1-2.301 4.732 8.141 8.141 0 0 1-4.012 2.167c-.537 2.625-2.36 4.748-4.77 5.75zm5.04-7.893c2.156-.747 3.776-2.678 4.035-4.976l.512-4.567h-3.488zm-16.38.005-1.071-9.548h-3.49l.512 4.567c.26 2.304 1.886 4.238 4.048 4.981zM12 35v6h20v-6zm13.105-3.96H18.91a3.03 3.03 0 0 0-2.856 1.991h11.908a3.033 3.033 0 0 0-2.857-1.992zm-1.527-1.993-.375-2.08a8.25 8.25 0 0 1-2.39 0l-.375 2.08zm4.453-9.293 1.193-10.762H14.778l1.207 10.762c.34 3.026 2.93 5.308 6.023 5.308 3.093 0 5.682-2.282 6.023-5.308zM16 37h12v2H16z"/></symbol><symbol viewBox="0 0 40 40" fill="none" class="bcIcon_icon__w6Pjo" id="icon-tv" xmlns="http://www.w3.org/2000/svg"><path d="M3.504 0A3.508 3.508 0 0 0 0 3.504v24.502a3.508 3.508 0 0 0 3.504 3.504h9.873l-2.498 6.327h-4.43a1.04 1.04 0 0 0 0 2.081H33.51a1.041 1.041 0 0 0 0-2.081h-4.43l-2.497-6.327h9.913A3.508 3.508 0 0 0 40 28.006V3.504A3.508 3.508 0 0 0 36.496 0H3.504Zm0 2.082h32.992c.784 0 1.422.638 1.422 1.422v18.639h-2.081V5.204a1.04 1.04 0 0 0-1.041-1.04H5.204a1.04 1.04 0 0 0-1.04 1.04v16.939H2.081V3.504c0-.784.638-1.422 1.422-1.422Zm2.74 4.163h27.511v15.898H13.612a1.04 1.04 0 0 0 0 2.081h24.306v3.782c0 .784-.638 1.423-1.422 1.423H3.505a1.424 1.424 0 0 1-1.423-1.423v-3.782h7.285a1.04 1.04 0 0 0 0-2.081H6.245V6.245Zm13.687 19.02a1.138 1.138 0 0 0 0 2.276 1.138 1.138 0 0 0 0-2.276ZM15.55 31.51h8.86l2.497 6.327H13.052l2.498-6.327Z"/></symbol><symbol viewBox="0 0 512 512" class="bdIcon_icon__w6Pjo" id="icon-ua" xmlns="http://www.w3.org/2000/svg"><circle cx="256" cy="256" r="256" fill="#ffda44"/><path d="M0 256C0 114.616 114.616 0 256 0s256 114.616 256 256" fill="#338af3"/></symbol></svg>